<?xml version="1.0" standalone="no"?>
<!DOCTYPE svg PUBLIC "-//W3C//DTD SVG 1.1//EN" "http://www.w3.org/Graphics/SVG/1.1/DTD/svg11.dtd" >
<svg xmlns="http://www.w3.org/2000/svg">
<metadata>
This is a custom SVG webfont generated by Font Squirrel.
Copyright   : c 1999 Nick Curtis All Rights Reserved Generated by Fontographer 352 
</metadata>
<defs>
<font id="CreampuffRegular" horiz-adv-x="1024" >
<font-face units-per-em="2048" ascent="1638" descent="-410" />
<missing-glyph horiz-adv-x="649" />
<glyph unicode=" "  horiz-adv-x="649" />
<glyph unicode="&#x09;" horiz-adv-x="649" />
<glyph unicode="&#xa0;" horiz-adv-x="649" />
<glyph unicode="!" horiz-adv-x="845" d="M39 98q4 68 55 100.5t111 43.5q14 2 28.5 3t26.5 1q16 0 34.5 -2t39.5 -8q59 -14 108.5 -54.5t44.5 -105.5q-4 -61 -51 -94t-104 -45q-18 -4 -38 -6.5t-36 -2.5q-14 0 -27.5 1t-27.5 5q-63 12 -115.5 52t-48.5 112zM250 887q2 104 83 168.5t177 79.5q14 2 27.5 3t25.5 1 h3h3q88 -2 163 -51.5t75 -149.5q0 -84 -47 -147.5t-105 -118.5q-4 -6 -9 -11.5t-11 -9.5q-76 -78 -143.5 -159.5t-124.5 -178.5h-105q0 6 1 13.5t1 13.5q2 43 4 85t4 85q0 47 -2 96t-8 99q0 4 -1 7t-1 5q-6 35 -9 73t-1 97z" />
<glyph unicode="&#x22;" horiz-adv-x="948" d="M12 995h4h4h21q10 0 20 2q51 2 98.5 12.5t86.5 43.5q10 10 15 17t3 13q0 14 -19.5 23.5t-41.5 15.5q-4 2 -7 3t-8 1q-4 0 -7 1t-7 3q-53 14 -95 49t-38 97q4 80 71.5 114.5t149.5 34.5q53 0 103.5 -13t83.5 -36q10 -4 17 -10t11 -14q31 39 84 56t113 17q53 0 102 -13 t82 -36q45 -31 64.5 -70.5t19.5 -80.5q0 -8 -1 -17.5t-3 -17.5q-10 -57 -48 -111.5t-91 -89.5q-70 -49 -152 -70.5t-168 -27.5l-57 104h4h4h21q10 0 20 2q51 2 98 12.5t86 43.5q10 10 15.5 17t3.5 13q0 14 -19.5 23.5t-42.5 15.5q-4 2 -7 3t-7 1q-20 4 -39.5 12.5 t-38.5 18.5q-14 -51 -49 -94t-82 -74q-70 -49 -151.5 -70.5t-167.5 -27.5z" />
<glyph unicode="#" />
<glyph unicode="$" horiz-adv-x="1046" d="M49 360q2 72 56.5 110t117.5 36q39 -2 63.5 -15.5t47.5 -35.5q6 -6 11 -12.5t11 -12.5q-6 -4 -11 -8t-11 -10q-16 -12 -28.5 -27.5t-14.5 -36.5v-9v-9q0 -57 33.5 -97t85.5 -59l110 320l-3 3q-1 1 -3 1q-76 55 -140.5 116.5t-64.5 157.5q0 12 2 24.5t4 26.5q16 80 89 123 t157 58q37 8 73 10t66 2l70 205l72 -23l-64 -188q14 -2 28.5 -5.5t31.5 -7.5q61 -16 112 -55t51 -106q-2 -2 -2 -8v-9q-4 -43 -40.5 -63.5t-79.5 -20.5h-9h-8q-14 2 -26.5 5t-22.5 10q-6 4 -12 7t-13 7q-8 2 -14 6t-12 6q8 6 15 10.5t14 8.5q8 8 14 16t8 25v3v3v1v3 q0 25 -17.5 39t-35.5 24q-4 0 -7 1t-8 3l-53 -151q14 -8 27.5 -17.5t28.5 -19.5q92 -59 167.5 -134t75.5 -188q0 -14 -1 -29.5t-5 -31.5q-25 -119 -128 -182.5t-222 -85.5q-49 -8 -96 -11.5t-88 -1.5l-89 -256l-69 23l82 242q-16 2 -31.5 6t-32.5 8q-102 27 -185 93t-77 183 zM485 160h14h15q53 6 99 35.5t55 89.5v4q0 2 2 6v4v4q-2 43 -25.5 78t-60.5 65zM610 862q0 -6 3 -15t8 -18q2 -4 5 -8t5 -8l37 105q-29 -6 -43.5 -21t-14.5 -35z" />
<glyph unicode="%" />
<glyph unicode="&#x26;" horiz-adv-x="1724" d="M80 336q0 23 4 47.5t12 48.5q33 94 120 148.5t185 83.5q39 12 78 19t74 13q-51 35 -89 87.5t-38 115.5q0 14 3 29.5t7 29.5q31 86 123 134.5t197 68.5q66 12 126 17.5t107 5.5q35 0 84 -3t103 -14q82 -16 152.5 -53t86.5 -106q0 -4 1 -8.5t1 -8.5q2 -4 2 -8v-8 q0 -57 -49 -90t-108 -37h-6h-5q-27 0 -51 7t-43 22q-2 2 -6 4t-6 4q-4 2 -7 4t-5 4q-4 2 -7.5 4t-5.5 4l4 4l4 4q20 18 36 38t18 48q2 37 -26 58.5t-62 27.5q-10 2 -19.5 3t-19.5 1q-16 0 -31.5 -3t-32.5 -9q-70 -23 -129 -84t-61 -129v-3v-3q0 -57 41 -86t92 -29h114h113 l-41 -121h-15h-13q-90 0 -176.5 -8t-167.5 -57q-63 -37 -108.5 -104.5t-43.5 -141.5q0 -27 8 -54.5t25 -53.5q29 -41 70.5 -60.5t91.5 -19.5q80 0 153.5 34.5t126.5 92.5q-51 10 -87 14t-69 4q-25 0 -51 -4t-59 -10q-4 0 -8 -2t-9 -2q-2 -2 -4 -2h-4l-12 -4l-12 -4 q0 10 1 18t1 16q0 10 1 18.5t1 16.5q18 104 108 158.5t197 66.5q16 2 34.5 3.5t35.5 1.5q23 0 42 -1.5t40 -5.5q63 -10 125.5 -19t123.5 -9q31 0 62 3t59 9l60 10q-2 -6 -4.5 -13t-2.5 -15q-2 -8 -4 -15.5t-4 -13.5q-33 -131 -131 -188.5t-219 -57.5h-12h-13q-8 0 -14 1 t-12 1q-96 -139 -244.5 -185t-308.5 -52q-18 -2 -37 -2h-37q-33 0 -66.5 3t-66.5 7q-88 12 -170 49t-141 100q-39 41 -59.5 91.5t-20.5 103.5z" />
<glyph unicode="'" horiz-adv-x="573" d="M12 995h4h4h21q10 0 20 2q51 2 98.5 12.5t86.5 43.5q10 10 15 17t3 13q0 14 -19.5 23.5t-41.5 15.5q-4 2 -7 3t-8 1q-4 0 -7 1t-7 3q-53 14 -95 49t-38 97q4 80 71.5 114.5t149.5 34.5q53 0 103.5 -13t83.5 -36q45 -31 64 -70.5t19 -80.5q0 -8 -1 -17.5t-3 -17.5 q-10 -57 -48 -111.5t-91 -89.5q-70 -49 -151.5 -70.5t-167.5 -27.5z" />
<glyph unicode="(" d="M45 391q2 57 10 113.5t23 107.5q82 274 320.5 480t508.5 286q10 2 20.5 5t20.5 6l31 -66q-207 -150 -373 -409t-213 -539q-8 -45 -12 -91t-4 -91q0 -137 41 -265.5t129 -240.5l-43 -62q-197 86 -315.5 277.5t-139.5 404.5q-2 20 -3 42t-1 42z" />
<glyph unicode=")" d="M23 -307q211 154 380.5 419t210.5 554q6 39 9.5 79.5t3.5 79.5q0 135 -40 264.5t-130 241.5l43 58q197 -84 315.5 -277.5t136.5 -411.5q2 -18 3 -37.5t1 -37.5q0 -57 -8 -113.5t-24 -110.5q-84 -276 -324 -482t-512 -284l-16 -4l-17 -4z" />
<glyph unicode="*" horiz-adv-x="622" d="M29 1284q0 33 24.5 57.5t57.5 24.5q12 0 19 -4t15 -10q4 -2 8.5 -6.5t10.5 -8.5q14 -10 36.5 -19t67.5 -9l-26 45q-6 12 -19.5 18t-27.5 10q-2 2 -4 2h-3q-23 8 -41 22.5t-18 51.5q0 35 24.5 58.5t57.5 23.5h3h3q27 -2 48.5 -21.5t21.5 -48.5q0 -8 -1 -16t-1 -16 q-2 -8 -3 -16.5t-1 -16.5q0 -12 3 -22.5t9 -18.5q2 -6 6 -12l8 -13q0 -2 1 -4t3 -4q4 8 9.5 16.5t9.5 16.5t7 18.5t3 22.5q0 8 -1 16.5t-1 16.5q-2 8 -3 16t-1 16q0 29 21.5 48.5t47.5 21.5h4h3q35 0 58.5 -23.5t23.5 -58.5t-18.5 -49t-41.5 -25q-2 0 -5 -1t-5 -1 q-14 -6 -25.5 -12t-17.5 -16l-27 -45h54q12 0 23 7t22 15q2 2 4 3t4 3q12 10 25.5 19.5t27.5 9.5q33 0 57.5 -24.5t24.5 -57.5t-23.5 -57.5t-58.5 -24.5q-14 0 -27.5 9.5t-27.5 19.5q-12 10 -25.5 19.5t-25.5 9.5h-52l25 -43q6 -12 19.5 -18.5t27.5 -12.5q2 0 4 -1t4 -1 q23 -8 41.5 -22.5t18.5 -51.5q0 -35 -24 -58.5t-58 -23.5q-29 0 -53.5 19.5t-24.5 50.5q0 8 1 16t3 16t3 16.5t1 16.5q0 14 -5 26.5t-11 22.5l-4 9q-2 4 -7 8q0 2 -1 4t-3 4q-2 -4 -5 -9t-5 -9q0 -2 -1 -4l-3 -3q-6 -12 -11 -23t-5 -26q0 -8 1 -16t3 -17q0 -10 1 -18t1 -16 q0 -37 -25.5 -51.5t-56.5 -16.5h-3h-3q-29 0 -46.5 22.5t-21.5 49.5q-2 4 -2 10v10q0 29 18.5 41.5t40.5 20.5h2h3q14 6 28.5 13t22.5 19l24 46h-51q-10 0 -19.5 -5.5t-19.5 -11.5q-4 -4 -7 -6t-7 -6q-12 -10 -27.5 -19.5t-38.5 -9.5t-41 18.5t-24 41.5q-2 6 -3 11t-1 11z " />
<glyph unicode="+" />
<glyph unicode="," horiz-adv-x="573" d="M12 -156q2 2 4 2h4h21q10 0 20 2q51 2 98.5 12.5t86.5 43.5q10 8 15 16t3 14q0 14 -19.5 23.5t-41.5 15.5q-4 2 -7 3t-8 1q-4 0 -7 1.5l-7 3.5q-53 14 -95 47.5t-38 95.5q4 80 72.5 114.5t150.5 34.5q53 0 102.5 -13t82.5 -36q45 -31 64 -70.5t19 -80.5q0 -8 -1 -17.5 t-3 -17.5q-10 -55 -48 -109.5t-91 -89.5q-70 -47 -151.5 -69.5t-167.5 -28.5z" />
<glyph unicode="-" horiz-adv-x="460" d="M78 547v186h340v-186h-340z" />
<glyph unicode="." horiz-adv-x="520" d="M39 98q4 68 55 100.5t111 43.5q14 2 28.5 3t26.5 1q16 0 34.5 -2t39.5 -8q59 -14 108.5 -54.5t44.5 -105.5q-4 -61 -51 -94t-104 -45q-18 -4 -38 -6.5t-36 -2.5q-14 0 -27.5 1t-27.5 5q-63 12 -115.5 52t-48.5 112z" />
<glyph unicode="/" horiz-adv-x="614" d="M-61 -449l673 2008h160l-676 -2008h-157z" />
<glyph unicode="0" horiz-adv-x="1275" d="M59 303q0 115 62.5 203t157.5 145q84 53 192.5 84t222.5 31q35 0 73 -2t77 -6q82 -10 158.5 -39t130.5 -84q45 -45 64.5 -102.5t19.5 -116.5q0 -16 -1.5 -33.5t-5.5 -34.5q-12 -84 -70.5 -156.5t-146.5 -128.5q-90 -53 -192.5 -79.5t-206.5 -30.5h-17h-18q-37 0 -73.5 3 t-71.5 9q-139 20 -247 101t-108 237zM459 205q0 -12 1 -24.5t3 -26.5q4 -37 23.5 -69t60.5 -32q35 0 66.5 20.5t64.5 57.5q39 47 67.5 109.5t42.5 126.5q8 31 11.5 59.5t3.5 56.5q0 10 -1 21.5t-1 23.5q-6 37 -23.5 69t-60.5 32q-10 0 -22.5 -2t-22.5 -9q-23 -8 -45.5 -25.5 t-44.5 -41.5q-39 -45 -67 -105.5t-42 -126.5q-8 -29 -11 -57t-3 -57z" />
<glyph unicode="1" horiz-adv-x="747" d="M33 612l37 107h107h106h53h53q66 0 129.5 6t126.5 20q12 4 23.5 6.5t21.5 4.5q6 2 11.5 3t11.5 1q-33 -94 -66 -189.5t-65 -189.5q-33 -96 -66 -190.5t-65 -190.5h-400q41 127 85 253t89 251q2 4 2 7t2 5q0 6 1 13.5t1 11.5q0 31 -18 51t-59 20h-60h-61z" />
<glyph unicode="2" horiz-adv-x="1144" d="M53 -16q4 10 7 19t6 20q2 6 3 11t3 9q35 102 125 167.5t190 113.5q33 16 67.5 32.5t65.5 30.5l37 19q20 10 41 22q45 29 81 66.5t34 83.5q-2 29 -23.5 44t-48.5 21q-10 2 -19.5 3t-17.5 1q-14 0 -30.5 -2t-34.5 -8q-29 -8 -54.5 -23.5t-35.5 -40.5q0 -2 -2 -3l-1 -4v-3 q0 -12 14.5 -20t31.5 -15q12 -4 22 -7t16 -5l-8 -12l-8 -12q-14 -23 -31.5 -39.5t-46.5 -26.5q-8 -4 -17 -7t-18 -3q-8 -2 -17 -3t-17 -1q-33 0 -62 13t-49 40q-12 16 -18.5 33.5t-6.5 38.5v8q0 4 2 8q0 4 1.5 8t1.5 8q12 43 53 79t102 61q59 23 131 36t150 13q35 0 82 -4 t98 -15q94 -20 171 -70.5t69 -144.5q-6 -92 -86 -141t-175 -72q-49 -10 -96 -16t-84 -10q-57 -4 -113.5 -21.5t-107.5 -46.5q96 -20 193.5 -37.5t197.5 -23.5q41 -2 77 7t71 23q6 2 13 5.5t13 5.5q4 2 9.5 4t11.5 4q-2 -16 -5 -32.5t-7 -33.5q-20 -100 -109.5 -174 t-192.5 -76h-4h-4q-100 2 -163.5 19.5t-118.5 40.5q-2 0 -4 1t-5 1l-12 4q-6 2 -10 4q-37 14 -74 25.5t-86 15.5q-8 2 -17 2h-20q-33 0 -65.5 -5t-65.5 -13z" />
<glyph unicode="3" horiz-adv-x="1280" d="M57 -213q0 10 1 21.5t3 21.5q12 59 61.5 93t106.5 38h8h7q39 0 74.5 -15.5t58.5 -47.5q4 -4 7 -8.5t5 -8.5q2 -2 3 -5t3 -5l-8 -8q-4 -4 -8 -10q-20 -18 -36.5 -42t-23.5 -49q0 -4 -1 -9t-1 -9q0 -18 10.5 -35.5t37.5 -32.5q10 -6 21 -11t24 -7q10 -4 21 -5t22 -1 q51 0 99 24.5t85 59.5q45 39 84 107.5t51 140.5q4 14 5 27.5t1 27.5q0 31 -6 59.5t-22 53.5q-18 31 -45 46t-62 15h-66h-65l35 104q23 0 46 3.5t46 7.5q100 18 181 74.5t77 170.5q-2 53 -27.5 78t-81.5 25q-6 0 -13 -1t-13 -1q-39 -6 -74 -29.5t-47 -60.5q-2 -6 -3 -12.5 t-1 -10.5q2 -20 17.5 -30.5t33.5 -18.5q2 0 4 -1l2 -1q6 -2 11 -4l8 -4q-12 -10 -23.5 -20.5t-23.5 -18.5q-29 -23 -60 -35t-71 -12h-14q-7 0 -15 2q-51 6 -84 46t-33 89v8q0 4 2 8q0 4 1 8.5t1 8.5q23 76 97.5 117.5t158.5 58.5q49 10 95.5 14t82.5 4q33 0 74 -3t82 -11 q90 -18 165 -64.5t75 -136.5v-5v-5q-2 -4 -2 -6v-6q-8 -102 -85 -159.5t-167 -86.5q-18 -6 -37 -11t-37 -10q113 -25 192.5 -105.5t75.5 -201.5q-8 -160 -141 -253t-289 -134q-72 -18 -140.5 -26.5t-125.5 -8.5q-33 0 -71 3.5t-77 11.5q-98 20 -180 72.5t-82 152.5z" />
<glyph unicode="4" horiz-adv-x="1208" d="M55 184l695 584h405q-51 -145 -101 -291.5t-100 -292.5h181l-45 -131h-183l-164 -481h-403l176 481h-403zM252 184h313l144 387z" />
<glyph unicode="5" horiz-adv-x="1368" d="M61 -176q0 41 20.5 79t61.5 60q27 14 50.5 20.5t46.5 6.5q49 0 92 -24.5t80 -61.5l-8 -7q-3 -3 -7 -6q-29 -27 -53.5 -56.5t-24.5 -59.5q0 -10 3.5 -19.5t9.5 -19.5t15 -19.5t24 -19.5q27 -16 53.5 -24.5t52.5 -8.5h5h5q82 4 157 61.5t114 127.5q4 4 7 9t5 11 q14 27 24.5 56.5t16.5 60.5q2 16 4 33.5t2 33.5q0 70 -36 120t-124 52q-80 2 -130 -42t-89 -105l-94 39l242 698q72 -41 153.5 -59.5t165.5 -18.5h24q11 0 21 2q92 4 182.5 26t172.5 52q-14 -78 -38 -140.5t-96 -111.5q-57 -39 -123.5 -53t-134.5 -14q-18 0 -37.5 1t-39.5 1 l-40 4t-38 4q-20 4 -36.5 6t-29.5 0h-14q-6 0 -10 -2q-59 -10 -85 -55t-42 -96q0 -4 -2 -8.5t-2 -8.5q-4 -10 -6.5 -19.5t-6.5 -17.5q53 29 111.5 45.5t120.5 18.5q8 2 17 2h18h13h13q68 -4 132.5 -24.5t119.5 -59.5q76 -53 108.5 -118.5t32.5 -137.5v-11v-10 q-8 -111 -89 -214t-199 -154q-72 -31 -177.5 -53.5t-218.5 -26.5h-15h-15q-100 0 -193.5 20.5t-159.5 67.5q-33 27 -53 64.5t-27 76.5q-2 6 -2 14v13z" />
<glyph unicode="6" horiz-adv-x="1343" d="M61 422v13v14q6 102 44 201.5t100 180.5q125 164 315.5 250t394.5 86q31 0 65 -2t69 -8q55 -10 107 -31.5t89 -60.5q10 -12 18.5 -23.5t12.5 -23.5t6 -23.5t2 -23.5q0 -61 -54 -111.5t-122 -66.5q-6 -2 -13.5 -3.5t-15.5 -1.5h-5h-5q-2 -2 -5 -2h-5q-12 0 -25 2l-24 5 q-35 6 -66 22t-43 45q-2 10 -7 19.5t-9 17.5q4 2 7 3t7 3q2 0 4 1t6 1q31 12 59.5 28.5t43.5 49.5q4 10 6 17.5t2 13.5q-2 27 -27.5 37t-56.5 10q-115 0 -211 -84t-156 -186q-14 -25 -25.5 -48.5t-19.5 -46.5q49 20 103.5 31.5t109.5 11.5q82 0 157 -27.5t126 -90.5 q35 -45 51 -93.5t16 -97.5v-5v-7q-6 -106 -69.5 -205.5t-155.5 -155.5q-68 -41 -145.5 -64.5t-155.5 -29.5h-16h-17q-109 0 -210 42t-168 136q-45 63 -67 135t-22 146zM383 203q2 -27 8 -52.5t19 -48.5q16 -31 39.5 -44t48.5 -11q8 0 15 1t13 3q33 8 65 30.5t56 49.5 q45 49 77 114.5t44 133.5q2 18 4 35.5t2 36.5q0 14 -1 28.5t-5 30.5q-8 45 -32.5 83t-76.5 38q-70 0 -125 -57.5t-92 -127.5q-16 -31 -28.5 -61.5t-18.5 -54.5q-4 -16 -7 -33.5t-3 -36.5q-2 -8 -2 -17v-18v-11v-11z" />
<glyph unicode="7" horiz-adv-x="1189" d="M55 -350l701 831l-609 -4l103 291h887l-955 -1208z" />
<glyph unicode="8" horiz-adv-x="1218" d="M55 248q0 119 90.5 196.5t196.5 120.5q27 10 53.5 19.5t50.5 15.5q-43 45 -66.5 101.5t-23.5 117.5q0 23 4.5 47.5t12.5 48.5q35 98 142.5 160t229.5 80q29 4 55.5 6t53.5 2q43 0 83 -5t73 -17q61 -20 108 -66.5t47 -116.5q0 -86 -63.5 -149.5t-136.5 -106.5 q-23 -10 -43.5 -20t-38.5 -18q49 -47 78.5 -114t37.5 -136q0 -10 1 -21.5t1 -21.5q0 -25 -3 -48.5t-9 -46.5q-37 -137 -168 -215.5t-282 -97.5q-23 -4 -45.5 -5t-44.5 -1q-51 0 -99.5 7t-89.5 24q-84 31 -144.5 98.5t-60.5 161.5zM240 215q0 -61 39.5 -109.5t109.5 -48.5 q88 0 155.5 47.5t82.5 137.5q2 12 3 23t1 22q0 59 -26.5 109t-67.5 98q-4 4 -8.5 9t-8.5 9q-84 -35 -155.5 -83t-110.5 -138q-8 -18 -11 -37t-3 -39zM715 903q2 -37 23.5 -71.5t47.5 -67.5q4 -4 7.5 -8t7.5 -8q6 4 13 7t13 7q49 27 85 57.5t63 85.5q4 10 7 20.5t3 20.5 q2 4 2 10v11q0 39 -21.5 69.5t-68.5 30.5q-63 0 -108.5 -34t-67.5 -95q-2 -4 -3 -8t-1 -8q-2 -6 -2 -11v-8z" />
<glyph unicode="9" horiz-adv-x="1361" d="M61 -211q2 63 57.5 113.5t121.5 66.5q8 2 14 3t12 1q14 2 32.5 0t39.5 -6q33 -6 63.5 -23.5t40.5 -43.5q6 -16 10.5 -23.5t4.5 -11.5q0 -2 -2 -4t-6 -4q-4 0 -10.5 -2t-16.5 -5q-31 -10 -54.5 -29.5t-33.5 -41.5q-4 -8 -6 -15.5t-2 -15.5q0 -23 19.5 -37t64.5 -14 q113 0 209 84t155 186q14 25 26.5 48.5t20.5 45.5q-49 -20 -103 -32.5t-110 -12.5q-82 0 -155.5 29t-126.5 94q-35 43 -51.5 91.5t-16.5 97.5v7v5q4 109 69.5 207t155.5 155q59 39 127 61.5t135 29.5q16 2 34 3t34 1q197 0 348.5 -125t134.5 -369q-14 -252 -203.5 -436 t-420.5 -244q-51 -14 -115.5 -23.5t-132.5 -9.5q-94 2 -181 23.5t-141 81.5q-10 12 -18 23.5t-12 23.5q-6 12 -8.5 23.5t-2.5 23.5zM573 293q2 -61 26 -111.5t85 -50.5q72 0 129 59.5t92 128.5q16 29 26.5 58t16.5 53q4 20 8.5 48t4.5 57v5v5q-2 59 -26 108t-85 49 q-72 0 -130 -58t-95 -130q-14 -27 -23.5 -53.5t-15.5 -48.5q-6 -20 -9.5 -49t-3.5 -60v-5v-5z" />
<glyph unicode=":" horiz-adv-x="720" d="M39 98q4 68 55 100.5t111 43.5q14 2 28.5 3t26.5 1q16 0 34.5 -2t39.5 -8q59 -14 108.5 -54.5t44.5 -105.5q-4 -61 -51 -94t-104 -45q-18 -4 -38 -6.5t-36 -2.5q-14 0 -27.5 1t-27.5 5q-63 12 -115.5 52t-48.5 112zM182 586q2 68 53.5 101.5t110.5 41.5q14 2 28.5 3 t26.5 1q16 0 35 -2t35 -6q61 -14 112.5 -55t47.5 -107q-4 -76 -73 -113.5t-150 -35.5h-6h-5q-84 2 -152.5 45t-62.5 127z" />
<glyph unicode=";" horiz-adv-x="720" d="M33 -156q2 2 4 2h4h20q10 0 21 2q51 2 98 12.5t86 43.5q10 8 15.5 16t5.5 14q-2 14 -21.5 24.5t-44.5 16.5q-2 0 -5 1t-5 1q-4 0 -8 1.5t-6 3.5q-53 14 -95.5 47.5t-40.5 95.5q4 80 73 114.5t151 34.5h7h7q49 -2 95 -15t77 -34q45 -31 64.5 -70.5t19.5 -80.5 q0 -8 -1 -17.5t-3 -17.5q-10 -55 -48 -109.5t-91 -89.5q-72 -47 -154 -69.5t-166 -28.5zM240 586q4 68 55 100.5t111 42.5q14 2 28.5 3t26.5 1q16 0 34.5 -2t39.5 -8q59 -14 108 -54t45 -106q-4 -76 -72.5 -113.5t-150.5 -35.5h-5h-5q-84 2 -152.5 45t-62.5 127z" />
<glyph unicode="&#x3c;" />
<glyph unicode="=" />
<glyph unicode="&#x3e;" />
<glyph unicode="?" horiz-adv-x="1447" d="M66 854q0 14 3 29.5t9 31.5q33 82 183.5 152t490.5 70q66 0 128 -5.5t119 -13.5q31 -6 67 -14t73 -21q92 -33 167.5 -91t75.5 -154q0 -8 -1 -16.5t-3 -18.5q-27 -156 -166 -196t-307 -56q-10 -2 -21.5 -3t-23.5 -1q-139 -14 -263 -52t-165 -157l-6 -27h-121q0 4 1 6t1 7 v5v5v5q0 3 2 5v5v5q16 98 91 153.5t167 104.5q4 2 9.5 5.5t11.5 5.5q20 10 43.5 21t48.5 26q68 39 125 95t57 134q0 61 -45 93t-98 40q-14 2 -27.5 3t-25.5 1q-16 0 -33 -2t-35 -4q-57 -12 -110.5 -47t-73.5 -90q-4 -10 -6 -19.5t-2 -19.5q0 -27 18 -43t45 -31q6 -4 13 -7 t14 -7q-8 -8 -17.5 -15.5t-17.5 -13.5q-35 -29 -72 -48t-88 -23h-17h-18q-76 6 -138 56t-62 132zM100 98q2 68 54.5 101.5t115.5 42.5q12 2 25.5 3t26.5 1q16 0 34.5 -2t38.5 -8q59 -14 108.5 -54.5t47.5 -105.5q-4 -76 -72.5 -112t-150.5 -36q-88 2 -160 44t-68 126z" />
<glyph unicode="@" horiz-adv-x="1996" d="M76 399q0 35 3 69t7 69q31 217 148.5 406.5t316.5 334.5q156 117 334 176t370 59q342 0 533.5 -169.5t191.5 -456.5q0 -29 -2 -59.5t-6 -61.5q-25 -172 -109.5 -323.5t-213.5 -254.5q-20 -16 -40 -29.5t-40 -25.5q-61 -37 -120.5 -53.5t-117.5 -16.5q-86 0 -140 33 t-77 97q-70 -66 -144.5 -98t-152.5 -32q-131 0 -211 86.5t-80 235.5q0 16 2 35.5t4 40.5q4 29 12.5 58.5t18.5 60.5q33 88 93.5 175t144.5 160q35 29 69.5 52.5t69.5 40.5q59 31 116.5 45t110.5 14q66 0 114 -21.5t81 -62.5l29 70h272l-291 -688q-2 -8 -5 -15.5t-5 -17.5 q-6 -12 -10 -26.5t-6 -33.5v-1v-3v-4v-4q0 -14 6 -21.5t20 -7.5q23 0 59.5 13.5t75.5 40.5q121 82 198 210t99 287q4 23 5 45.5t1 42.5q0 96 -32.5 175t-98.5 145q-72 72 -181 111.5t-241 39.5q-174 0 -324.5 -54t-279.5 -163q-137 -117 -221 -273.5t-110 -344.5 q-4 -33 -7.5 -62.5t-3.5 -58.5q2 -113 40 -203t116 -168q94 -88 224 -134t292 -46q152 0 311.5 53.5t345.5 173.5l91 -133q-205 -133 -387.5 -197.5t-360.5 -70.5h-17h-20q-201 0 -357.5 50t-269.5 147q-119 102 -181 239t-62 303zM786 332q2 -45 19.5 -70.5t52.5 -25.5 q23 0 45.5 7t44.5 21q29 18 59.5 49t61.5 72q23 29 42 60.5t36 62.5q37 66 58.5 129t29.5 115q2 10 3 20t1 19q-2 49 -24.5 80.5t-63.5 31.5q-25 0 -45.5 -8t-40.5 -25q-16 -14 -32.5 -31.5t-35.5 -39.5q-29 -35 -54 -73t-48 -75q-43 -76 -69.5 -147.5t-34.5 -128.5 q-2 -10 -3.5 -21.5t-1.5 -21.5z" />
<glyph unicode="A" horiz-adv-x="1726" d="M20 244v7q0 3 3 5v7v5h1h3q6 0 15 1t21.5 3t21.5 3t15 1q2 -35 29 -53t59 -24q8 0 16.5 -1t16.5 -1q66 0 120 29.5t99 70.5q152 141 280 303t251 328q6 8 13 18t13 19q-2 43 -28.5 72.5t-67.5 43.5q-16 6 -34.5 9.5t-39.5 1.5q-14 0 -29.5 -2.5t-31.5 -4.5 q-94 -20 -175 -88.5t-91 -158.5v-5v-8q-2 -2 -2 -5v-5q2 -70 51 -95.5t106 -33.5l25 -4q12 -2 25 -2q2 -2 5 -2h5q-6 -4 -12.5 -9t-12.5 -12q-49 -43 -103.5 -78.5t-125.5 -37.5h-6q-94 0 -143 65q-50 68 -50 154q0 23 4 46t13 46q49 143 182 221t282 109q66 14 129.5 20 t120.5 6q238 0 379 -115.5t158 -359.5q2 -18 2 -37.5t2 -38.5q0 -20 1 -42.5t3 -45.5q4 -68 12.5 -135t26.5 -133q8 -29 23.5 -41t33.5 -12q8 0 16.5 3t16.5 5q6 4 14.5 9t16.5 11q33 25 61.5 67t42.5 99l105 -14q-12 -158 -146.5 -280.5t-292.5 -143.5q-12 0 -25 -1t-26 -1 q-53 0 -103 15.5t-97 48.5q-74 55 -95.5 130.5t-31.5 157.5q-2 6 -3.5 13.5t-1.5 13.5h-344q-23 -31 -49 -64.5t-57 -68.5q-78 -92 -177.5 -168t-205.5 -76h-7h-7q-4 0 -7.5 1t-7.5 1q-96 10 -149.5 80t-53.5 158zM836 514h227q-6 39 -11 78l-10 78q-6 37 -10 75l-8 78 q-39 -68 -87 -146.5t-101 -162.5z" />
<glyph unicode="B" horiz-adv-x="1808" d="M25 670q0 29 6 57.5t20 60.5q41 92 142.5 170t240.5 136q139 55 307 86.5t344 31.5q180 0 325.5 -15t246.5 -50l12 -4q6 -2 12 -6q70 -27 126.5 -76t56.5 -131q0 -96 -71 -159.5t-155 -96.5q-16 -6 -31.5 -11.5t-29.5 -9.5q100 -39 164 -106q62 -65 61 -166 q0 -98 -59 -170q-57 -70 -135 -115q-76 -43 -170.5 -68.5t-194.5 -27.5h-10h-12q-94 0 -186.5 24.5t-164.5 75.5q-57 -43 -130.5 -64.5t-149.5 -25.5q-10 -2 -21 -2h-20q-33 0 -65.5 3t-61.5 9q-27 4 -50.5 12.5t-45.5 18.5q-12 6 -24.5 13.5t-25.5 13.5l9 8l8 8 q35 35 62.5 73t43.5 85l54 156q27 78 55 157l53 156l53 156q16 45 40 88t53 82q-27 -8 -56.5 -18.5t-58.5 -24.5q-82 -41 -152.5 -102.5t-93.5 -137.5q-6 -18 -8 -33.5t-2 -28.5q0 -27 12 -43t35 -30q12 -8 26.5 -16.5t30.5 -18.5q-8 -8 -15 -16.5t-15 -18.5 q-29 -33 -73 -54.5t-89 -25.5h-14h-13q-53 0 -102 25.5t-76 79.5q-8 18 -13 39.5t-5 46.5zM922 215q27 -23 57.5 -33t62.5 -10q49 0 96.5 19.5t82.5 50.5q47 41 72.5 94t25.5 113q0 84 -50 134t-136 50q-8 0 -17.5 -1t-17.5 -1q-10 -2 -18.5 -4t-18.5 -4zM1104 752h156 q96 0 174.5 76.5t78.5 172.5q0 55 -37.5 72t-86.5 17q-82 0 -142.5 -55.5t-87.5 -131.5q-6 -18 -13 -37.5t-13 -38.5q-8 -18 -15.5 -37.5t-13.5 -37.5z" />
<glyph unicode="C" horiz-adv-x="1153" d="M25 541q0 164 85 301t218 225q109 76 248 117t288 41q25 0 48.5 -1t48.5 -3q84 -6 164.5 -30t144.5 -81q33 -29 47 -64.5t14 -72.5q0 -76 -55 -138.5t-143 -64.5h-10q-45 0 -81 17q-39 19 -73 49q-8 6 -16.5 13t-16.5 15q6 2 11 5t11 5q41 23 72 48.5t49 74.5q4 8 5 15.5 t1 15.5q0 35 -28.5 53.5t-69.5 18.5q-111 0 -196.5 -88t-145.5 -195q-25 -45 -44 -90t-34 -82q-16 -45 -30.5 -102.5t-16.5 -114.5v-11v-11q0 -76 30 -141.5t109 -94.5q29 -10 59 -15t60 -5h16q7 0 13 2q127 8 241.5 89t170.5 187q2 4 4 7t4 7q2 2 4 7l4 8l78 -29l41 -16 q-125 -223 -306.5 -317.5t-435.5 -94.5q-231 0 -409 146.5t-178 394.5z" />
<glyph unicode="D" horiz-adv-x="2033" d="M25 171v9q2 53 46 98.5t128 63.5q29 6 57.5 9t58.5 3q16 0 31.5 -1t32.5 -3q49 -4 95 -16t87 -33q35 94 68 187.5t63 187.5l33 94l33 94q14 47 36.5 91t51.5 83q-29 -8 -59.5 -20t-61.5 -29q-78 -39 -146.5 -99.5t-91.5 -133.5q-4 -18 -7 -32.5t-3 -27.5q2 -27 14.5 -44 t36.5 -34q10 -8 24.5 -15t31.5 -17l-9 -8q-4 -4 -6 -9q-45 -47 -93 -75q-42 -25 -104 -26q-9 0 -18 1q-92 4 -139 61.5t-47 133.5q0 29 6 57.5t19 56.5q80 178 260 268.5t381 127.5q102 16 203.5 23t189.5 7q35 0 70.5 -1t72.5 -3q131 -6 257 -30.5t226 -77.5 q127 -68 182.5 -174.5t55.5 -227.5q0 -27 -2 -52.5t-8 -51.5q-6 -39 -17.5 -79t-27.5 -77q-88 -215 -290 -315.5t-425 -110.5q-14 -2 -30 -2h-31q-68 0 -133.5 7t-127.5 22l-46 12t-44 12q-10 2 -19 6.5t-20 6.5q-10 -4 -19 -8.5t-20 -8.5q-8 -4 -17 -8t-19 -8 q-72 -27 -161 -46.5t-181 -23.5q-10 -2 -22 -2h-23q-72 2 -140.5 15.5t-126.5 41.5q-51 29 -79.5 66t-34.5 76q-2 4 -2 9zM147 147q0 -20 20.5 -30.5t47.5 -16.5q14 -2 27.5 -3t23.5 -1h25q12 0 24 2q53 8 103.5 37t87.5 68q-33 10 -70 17t-74 9q-8 2 -17 2h-19 q-29 0 -57.5 -4t-55.5 -14q-23 -8 -40 -21.5t-23 -31.5q-2 -2 -3 -5v-8zM997 156q29 -8 56.5 -13.5t54.5 -5.5q145 0 252.5 114t171.5 249q16 35 28.5 68.5t22.5 66.5q2 6 4 13t4 16q10 37 20.5 79.5t14.5 87.5q2 16 3 35t1 35q0 37 -5 72t-19 63q-14 35 -40 49.5t-55 14.5 h-9q-5 0 -11 -2q-25 -4 -48.5 -17.5t-41.5 -31.5q-12 -10 -23.5 -24.5t-23.5 -33.5q-23 -35 -46.5 -86t-47.5 -121q-20 -61 -41 -121.5t-41 -119.5q-8 -20 -14.5 -40t-14.5 -40q-14 -41 -27.5 -81t-27.5 -81q-14 -43 -39 -78.5t-58 -66.5z" />
<glyph unicode="E" horiz-adv-x="1159" d="M20 365q0 139 108 229t237 121q31 6 60.5 10t57.5 4q-51 31 -83.5 79t-32.5 107q0 10 1 19.5t3 19.5q27 115 127 172.5t215 79.5q55 12 109.5 16.5t99.5 4.5q35 0 85 -5t103 -18q92 -20 167 -67t75 -133v-8v-9q-8 -66 -55 -93q-43 -26 -95 -26h-8h-13q-7 0 -16 2 q-20 2 -40.5 7.5t-39.5 13.5l-33 15q-11 5 -16 9q-4 4 7.5 12.5t35.5 26.5q20 16 29.5 34t7.5 32q0 35 -34.5 60.5t-82.5 25.5q-96 0 -173 -60q-79 -62 -79 -169q0 -79 60 -100q61 -22 133 -21h27h26q12 2 26 2h25h28h26l-37 -109h-26h-27q-25 1 -51 1q-37 0 -73 -2 q-60 -3 -120 -25q-23 -6 -43.5 -17.5t-42.5 -25.5q-51 -37 -82 -85.5t-37 -99.5q-2 -8 -2 -15v-15q0 -70 45 -126.5t137 -72.5q20 -2 40 -5t38 -3q139 0 259 84t171 211l109 -54q-100 -233 -274.5 -321t-415.5 -88q-53 0 -119 5t-133 21q-147 33 -270.5 115t-123.5 234z" />
<glyph unicode="F" horiz-adv-x="1732" d="M20 233q0 90 58.5 142.5t136.5 52.5q35 -2 71 -13.5t68 -33.5q-31 -35 -55 -73q-23 -35 -23 -71q0 -26 10.5 -47.5t30.5 -44.5q25 -23 53.5 -33t57.5 -10q53 0 102.5 28t83.5 67q55 66 93 145.5t67 163.5q12 33 23.5 65.5t21.5 63.5h-186l39 108h184q43 115 93 185.5 t108 109.5q-39 14 -81 20.5t-85 6.5h-12h-13q-123 -6 -231.5 -69.5t-147.5 -184.5q-4 -14 -8 -31.5t-4 -36.5q-2 -4 -2 -10v-12v-6v-6q2 -31 12.5 -59.5t32.5 -47.5l13.5 -9t13.5 -11l4 -4l4 -5q4 -4 9 -7t9 -7q-20 -6 -41.5 -13t-42.5 -11q-20 -6 -40.5 -9.5t-43.5 -3.5 q-14 0 -31.5 3t-33.5 7q-82 27 -129 100t-53 154v11v12q0 23 3 43t9 41q25 78 91.5 140.5t158.5 101.5q82 37 176 54t190 17h18h19q100 -4 197.5 -24.5t183.5 -55.5q47 31 105.5 49.5t119.5 26.5q43 6 85 9t81 3q29 0 73 -2t91 -8q74 -12 136.5 -46t62.5 -105 q0 -80 -77 -110t-167 -32h-11h-11q-53 0 -101.5 6.5t-81.5 12.5q-4 0 -9 1t-9 3q-14 -25 -25 -53l-20 -58q-2 -6 -4 -13t-4 -15q-6 -12 -10.5 -25.5t-8.5 -26.5h219l-39 -108h-219q-55 -162 -126.5 -304.5t-229.5 -238.5q-106 -66 -241.5 -93.5t-299.5 -27.5q-37 0 -83 4.5 t-93 12.5q-106 20 -195.5 76t-89.5 169zM1567 1028q27 -8 62.5 -13t74.5 -5q43 0 81 11t58 38q4 6 6 12t2 8q0 14 -17 22.5t-38 10.5q-14 2 -26 2h-19q-51 0 -99 -25.5t-85 -60.5z" />
<glyph unicode="G" horiz-adv-x="1277" d="M4 -125q2 76 57 133q53 55 126 56q3 0 6 -1q35 0 67.5 -13t65.5 -46l8 -8q4 -4 10 -8q4 -4 8 -9.5t8 -9.5l-18 -9q-10 -5 -20 -11q-33 -18 -62 -45q-27 -25 -27 -62v-6.5v-6.5v-5q4 -35 30 -51.5t59 -18.5q27 -2 56.5 9.5t59.5 35.5q10 8 22.5 19.5t24.5 23.5 q59 63 96 140t64 159q-31 -10 -62.5 -18t-64.5 -12q-16 -2 -31.5 -3.5t-31.5 -1.5q-102 0 -195.5 42t-155.5 135q-39 59 -56 124.5t-17 133.5q0 16 1 33.5t3 33.5q4 35 12 69t19 66q66 188 240.5 308t369.5 155q43 8 84 12.5t80 4.5q37 0 99 -3t130 -16q98 -16 181 -58 t83 -126q0 -61 -51 -101t-115 -45h-5h-5q-27 2 -52.5 10.5t-45.5 26.5q-4 4 -8 7.5t-9 7.5l-2 1q-2 1 -2 3q-2 2 -5 4t-5 4q16 14 30.5 30.5t24.5 32.5q10 14 14.5 28.5t4.5 27.5q0 23 -22.5 38t-78.5 15q-131 0 -246.5 -136t-183.5 -302l-9 -22.5t-9 -24.5q-2 -4 -3 -7.5 t-3 -7.5q-12 -33 -23.5 -71.5t-17.5 -77.5q-4 -20 -6 -41t-2 -39q0 -16 2 -32.5t6 -33.5q8 -31 24.5 -43t36.5 -12q6 0 14.5 1t14.5 3q20 8 38.5 20.5t33.5 28.5q31 37 63.5 102.5t67.5 172.5l10 30q10 31 22 66q10 29 19.5 55.5t13.5 34.5h535q-25 -74 -51.5 -148.5 t-51.5 -148.5q-27 -76 -53 -150.5t-51 -148.5q-84 -244 -304 -392t-472 -148q-43 0 -86 5t-86 15q-113 27 -168.5 77t-67.5 105q-2 8 -3 17.5t-1 17.5z" />
<glyph unicode="H" horiz-adv-x="1853" d="M14 664v17q0 186 171 321q179 142 397 178q31 6 62.5 8t62.5 2q109 0 201.5 -35t154.5 -113q35 -45 50 -89t15 -91t-13 -95t-30 -99h228l157 458h262h259q-37 -109 -75 -218t-75 -218t-74.5 -218.5t-74.5 -219.5q-6 -14 -11.5 -29.5t-5.5 -27.5q0 -10 7.5 -16.5 t23.5 -6.5q10 0 19.5 2t19.5 8q31 14 60.5 46t54.5 67q18 27 31.5 51.5t21.5 42.5l4 8l4 9q2 4 4 9t4 9l111 -51q-39 -84 -89 -165t-126 -140q-53 -43 -128 -69t-153 -32q-12 -2 -23 -2h-22q-121 0 -216 61.5t-95 206.5q0 59 17.5 118t37.5 116q6 16 12.5 33.5t12.5 34.5 h-228l-186 -535h-532q37 104 72.5 207.5t70.5 208.5q35 102 70.5 206.5t72.5 208.5q2 4 3 7.5t1 7.5q6 16 11.5 34.5t7.5 39.5q2 8 3 18t1 20q0 39 -18.5 66t-67.5 27q-86 0 -162 -78t-104 -172q-6 -20 -9.5 -41t-3.5 -41q0 -57 30 -101.5t97 -60.5q-31 -55 -70.5 -85 t-80.5 -38q-8 0 -15.5 -1t-15.5 -1q-76 2 -136.5 62.5t-64.5 169.5z" />
<glyph unicode="I" horiz-adv-x="1298" d="M16 260q0 23 5.5 46.5t13.5 49.5q18 53 67.5 85t106.5 32h4h4h8h11q27 -4 51 -13t45 -30q16 -14 22 -19t6 -10q0 -4 -7 -10t-23 -16q-27 -23 -44.5 -53.5t-23.5 -61.5q0 -8 -1 -14t-1 -13q0 -37 19.5 -68.5t62.5 -47.5q18 -6 36.5 -9.5t35.5 -3.5q96 0 173 72t122 156 q10 20 19 40.5t15 39.5q29 78 54.5 154.5t52.5 152.5q14 39 27.5 78t25.5 77q2 6 4 11.5t4 11.5q4 16 9.5 34.5t7.5 39.5q2 10 3 20t1 21q0 35 -16.5 59.5t-61.5 24.5q-98 0 -181 -86t-100 -191q-2 -12 -3 -23.5t-1 -21.5q0 -20 3 -39.5t12 -38.5q18 -45 50 -60t71 -26 q6 -2 13 -3t13 -3q-6 -6 -11 -12t-9 -12q-39 -41 -82 -71t-109 -32h-5q-102 0 -153 75q-51 77 -51 171q0 35 6.5 66.5t18.5 60.5q84 205 283.5 287t422.5 86h16h13q127 0 247 -18.5t216 -47.5q-31 -88 -61 -178l-62 -180q-31 -90 -61.5 -179.5t-61.5 -179.5 q-63 -178 -226 -283.5t-347 -140.5q-45 -8 -90 -12t-88 -4t-93.5 3t-103.5 11q-121 18 -222.5 72.5t-101.5 173.5z" />
<glyph unicode="J" horiz-adv-x="1294" d="M14 -84q0 10 2 23l4 24q16 63 68.5 98t112.5 35q37 0 72.5 -13t64.5 -42l37 -35q-8 -4 -17.5 -8t-19.5 -8q-35 -20 -65 -47q-28 -25 -27 -64v-6.5v-6.5v-5q4 -35 30.5 -51.5t59.5 -18.5h9q67 0 125 58q62 62 105 139q25 39 41.5 77.5t26.5 67.5q35 98 68.5 195.5 t66.5 195.5q35 98 69 195.5t66 195.5q2 6 4.5 11.5t4.5 11.5q4 14 8 31.5t8 34.5q2 12 3 24t1 23q0 35 -15.5 59.5t-60.5 24.5q-98 0 -181 -85t-101 -186q-2 -12 -3 -24.5t-1 -24.5q0 -20 3 -39.5t11 -38.5q18 -47 50 -62.5t73 -25.5q6 -2 13 -3t13 -3q-6 -6 -12 -13 l-12 -14q-20 -23 -43 -42t-51 -33q-27 -12 -51.5 -17.5t-47.5 -5.5q-86 0 -144 66.5t-63 165.5v15q0 27 6 54q7 35 21 72q80 203 276.5 283.5t417.5 87.5h22h21q127 0 246 -17.5t215 -46.5q-84 -246 -169 -491.5t-169 -491.5q-86 -244 -305 -392.5t-471 -148.5 q-43 0 -86 5.5t-86 15.5q-6 2 -13 4t-14 2q-82 25 -149.5 77t-67.5 138z" />
<glyph unicode="K" horiz-adv-x="1841" d="M14 676q0 119 81 224.5t177 166.5q6 4 13.5 8t13.5 8q72 39 165 69t191 36q14 2 28 2h26q104 0 198 -34t158 -114q35 -45 50 -90q14 -40 14 -79q0 -5 -1 -11q0 -51 -15 -106.5t-34 -112.5q47 10 90 37t80 59q4 4 23.5 24.5t42.5 45.5q2 0 3 2t3 4q23 25 41 46.5t18 27.5 q82 104 177.5 191t238.5 87h11h10q78 -8 141 -58q62 -49 61 -125v-8.5v-8.5q0 -6 -2 -11q0 -6 -1 -12t-3 -12q-12 -45 -41.5 -81t-62.5 -69l-3 -3l-3 -3l-5 -4l-4 -4q-2 4 -3 8t-3 8q-18 53 -42.5 90t-80.5 37q-10 0 -21 -1t-26 -5q-78 -18 -138 -61t-116 -92q-2 -2 -4 -3 t-4 -4q-37 -33 -76 -63.5t-84 -54.5q14 -2 29.5 -5.5t30.5 -7.5q74 -20 141.5 -60t99.5 -112q8 -20 18.5 -50t20.5 -60q20 -53 46 -96t65 -43q47 0 81 39.5t56 89.5q12 25 21 49l14 43l106 -39q-2 -4 -3 -7t-3 -8q-39 -96 -94 -187t-147 -148q-51 -29 -120 -45.5t-140 -16.5 h-9h-6q-80 2 -154.5 27.5t-123.5 79.5q-33 37 -51.5 83t-18.5 95q0 14 2 27.5t4 27.5q10 47 14.5 82t4.5 61q0 25 -4.5 42.5t-14.5 27.5q-14 16 -42.5 25.5t-71.5 11.5l-191 -553h-532q72 207 143.5 415t140.5 416q2 4 3 7.5t1 7.5q6 16 11.5 34.5t7.5 39.5q2 8 3 18t1 20 q0 39 -18.5 66t-67.5 27q-84 0 -149.5 -62.5t-96.5 -136.5q-4 -10 -8 -19.5t-6 -19.5q-4 -18 -9.5 -41.5t-7.5 -48.5v-11v-10q0 -45 17.5 -83.5t62.5 -49.5q12 -2 20.5 -4t14.5 -4t8 -3t2 -5l-6 -12q-4 -8 -14 -25q-23 -43 -63 -62.5t-83 -19.5h-5h-7q-49 4 -94 29.5 t-72 68.5q-10 18 -17 36t-13 36q-4 18 -6.5 36t-2.5 36z" />
<glyph unicode="L" horiz-adv-x="1548" d="M29 219q0 10 2 21l4 20q27 76 97.5 103.5t156.5 27.5q18 0 35.5 -1t35.5 -3q61 -6 119 -18.5t105 -26.5l24 -8q12 -4 23 -8l63 178q-23 0 -46 3t-48 7q-96 16 -185 62.5t-141 132.5q-23 37 -33 73.5t-10 69.5q0 102 77 173t184 71q29 0 58.5 -6.5t59.5 -18.5 q23 -8 34 -13t13 -9q2 0 2 -1v-1q-2 -4 -11 -13l-27 -24q-33 -29 -52.5 -62t-27.5 -67q-2 -12 -3 -23.5t-1 -21.5q2 -70 56 -124q52 -52 151 -53h8q4 12 8 23.5t8 24.5q47 127 104.5 243.5t171.5 204.5q61 45 148.5 78t181.5 41q14 0 27.5 1t25.5 1q84 0 159 -27.5 t124 -93.5q27 -33 38 -70.5t11 -76.5q0 -27 -5 -53.5t-15 -53.5q-45 -117 -153.5 -200t-229.5 -121q-20 -6 -42 -11.5t-42 -9.5q-16 -100 -74.5 -190t-136.5 -156q35 -29 77 -40t85 -11q16 0 32.5 1t30.5 5q55 8 107.5 25.5t97.5 37.5q-2 -6 -3 -12t-3 -12q-2 -12 -5 -23.5 t-7 -25.5q-27 -119 -136 -178q-105 -57 -227 -58h-8h-5h-7q-94 2 -182.5 40t-135.5 114q-16 -2 -32.5 -9.5t-34.5 -13.5q-8 -4 -19 -8l-20 -8q-47 -14 -110.5 -22.5t-129.5 -8.5h-19h-18q-92 4 -176 28.5t-139 78.5q-20 23 -32.5 49t-12.5 57zM154 205q0 -16 14 -29.5 t31 -21.5q6 -4 12 -7l12 -4q20 -8 42 -11t42 -3h11q5 0 10 2q59 4 114.5 28.5t98.5 59.5q-33 23 -72 37t-80 25q-14 4 -32.5 6t-41.5 2h-17q-9 0 -17 -2q-41 -4 -77 -20.5t-48 -49.5q-2 -2 -2 -5v-7zM1319 686q96 35 162.5 90t101.5 115q6 8 10 16l9 17q2 4 4 10t6 12 q4 14 8 30.5t6 33.5q2 6 2 12v12q0 25 -12 43.5t-41 18.5q-70 0 -119 -71t-82 -155q-20 -53 -33.5 -102t-21.5 -82z" />
<glyph unicode="M" horiz-adv-x="2203" d="M22.5 209.5q4.5 19.5 14.5 40.5q6 14 10 21.5t6 11.5q2 2 4 3t4 1q4 0 11.5 -7.5t21.5 -17.5q41 -33 85 -47t89 -14q123 0 228.5 93t146.5 214q18 53 38.5 107.5t43.5 107.5l33 86l33 86q-35 51 -76 80t-80 39q-14 4 -27.5 5t-27.5 1q-88 0 -160 -57.5t-88 -126.5 q-4 -8 -5 -17.5t-1 -19.5q2 -39 25.5 -72t80.5 -51q31 -10 61.5 -11t61.5 1q6 0 13 1t16 1q-2 -2 -3 -5.5t-3 -5.5q-37 -68 -90 -121q-50 -52 -133 -53h-7q-90 2 -133 72t-49 154v13v13q0 29 4 56.5t12 52.5q63 186 225 271t343 102q25 2 48 3t48 1q256 0 392 -184.5 t167 -411.5q61 68 121.5 135t120.5 135q20 23 39.5 45.5t39.5 44.5q41 45 81 90t81 90l104 2q26 0 51 -1q77 -1 155 -1h77h78q-25 -72 -50.5 -144.5t-49.5 -146.5q-51 -145 -101.5 -290.5t-99.5 -290.5q0 -2 -2 -5t-2 -5q-6 -14 -10 -26.5t-4 -23.5q0 -8 7 -14t27 -6 q45 0 88.5 44t75.5 97q18 31 33.5 59.5t24.5 49.5l110 -51q-88 -180 -205.5 -295t-336.5 -115q-150 0 -229 78t-79 199q0 35 6.5 71.5t20.5 75.5q31 88 61.5 175t61.5 175l-656 -778q-12 55 -22 111l-21 110q-4 14 -6 29.5t-6 30.5q-23 121 -50.5 240.5t-72.5 232.5 q-16 -63 -35.5 -137t-46.5 -150q-68 -188 -186.5 -343t-321.5 -155q-10 0 -20 1t-23 3q-80 12 -148 68q-67 54 -67 129q0 22 4.5 41.5z" />
<glyph unicode="N" horiz-adv-x="1638" d="M27 184q0 31 9 63t25 64q18 -14 35 -26.5t31 -22.5q29 -18 59.5 -28.5t77.5 -10.5h6q126 0 230 94q106 96 145 213q20 57 42 112.5t42 111.5q18 45 35.5 89t34.5 87q-39 37 -93.5 61.5t-111.5 32.5q-12 2 -25.5 3t-25.5 1q-88 0 -155 -51q-59 -46 -59 -142q0 -12 1 -24 q4 -70 54 -94.5t110 -28.5h45q23 0 43 2q-35 -74 -87 -132q-50 -56 -141 -56h-6q-94 4 -138 75.5t-46 155.5v7v5q0 29 5 56.5t13 52.5q72 209 256.5 300t409.5 91q229 0 406.5 -162.5t271.5 -357.5q8 -16 16 -33.5t14 -34.5l175 471v-2q25 74 87 122t138 50 q78 0 107.5 -37.5t41.5 -105.5q-174 0 -257 -123t-136 -274l-264 -776q-53 78 -104.5 159.5t-100.5 163.5q-4 4 -7 10.5t-7 12.5q-80 133 -164 264t-182 248q-18 -102 -51 -203.5t-68 -202.5q-8 -20 -15.5 -39.5t-13.5 -40.5l-8 -20l-8 -21q-57 -123 -178 -224t-258 -101 q-35 0 -69 7t-69 23q-63 31 -90.5 74t-27.5 92z" />
<glyph unicode="O" horiz-adv-x="1576" d="M35 504q0 276 213 450t469 230q55 12 110.5 18t108.5 6q25 0 48.5 -1t47.5 -1q229 -14 422 -121.5t193 -375.5q0 -287 -219.5 -461t-483.5 -225q-53 -12 -107.5 -17.5t-107.5 -5.5q-27 0 -54.5 1t-56.5 3q-219 18 -401 130t-182 370zM553 305q0 -106 34 -157.5t85 -51.5 q39 2 87 31t97 82q6 6 12 13t13 16q68 84 122 197.5t87 234.5q16 61 25 122.5t9 118.5q0 16 -1 35t-5 39q-8 47 -32.5 86t-77.5 39q-92 0 -172 -89t-138 -198q-33 -63 -57.5 -123.5t-36.5 -101.5q-25 -82 -38 -156t-13 -137z" />
<glyph unicode="P" horiz-adv-x="1681" d="M33 664q0 29 6 58.5t20 57.5q39 92 140.5 170t240.5 135t308.5 89t343.5 32q240 0 393 -29.5t235 -82.5q66 -39 94.5 -91.5t28.5 -111.5q0 -27 -5 -54.5t-15 -56.5q-49 -143 -185.5 -207.5t-291.5 -83.5q-41 -4 -81 -6t-79 -2t-78 3t-74 5q-14 -39 -27.5 -77.5 t-25.5 -75.5q-14 -39 -27.5 -78t-27.5 -78q-27 -82 -123 -126t-207 -52q-12 -2 -26 -2h-25q-63 0 -120.5 12.5t-98.5 34.5q-4 2 -7.5 4t-7.5 4q-2 0 -3 1l-3 3q-6 2 -11 5.5t-11 5.5l12 12l12 12q33 33 58.5 69t40.5 81q53 158 107 312.5t108 309.5q16 47 39.5 91t52.5 83 q-27 -8 -56.5 -19t-58.5 -26q-82 -39 -152.5 -100t-93.5 -137q-4 -18 -7 -32.5t-3 -27.5q0 -27 13.5 -44t35.5 -33q12 -8 25.5 -15.5t29.5 -17.5q-45 -53 -96 -87q-46 -30 -112 -30h-17q-92 4 -140 60.5t-48 132.5zM1073 600q164 16 262.5 89t161.5 226q10 25 15.5 45.5 t5.5 38.5q0 41 -30 62.5t-91 21.5q-86 0 -141.5 -56t-81.5 -132q-27 -74 -52 -147z" />
<glyph unicode="Q" horiz-adv-x="1583" d="M29 512q0 276 213 450.5t469 229.5q55 12 110.5 18.5t108.5 6.5q25 0 48 -1.5t48 -1.5q229 -14 421.5 -120.5t192.5 -376.5q0 -285 -219 -459t-483 -225q-53 -12 -107.5 -17.5t-107.5 -5.5q-27 0 -54.5 1t-56.5 3q-219 18 -401 130t-182 368zM256 -133q12 8 24.5 15 t24.5 16q12 8 25.5 15t25.5 13q49 20 102.5 30.5t108.5 10.5q41 0 82 -4t82 -12q53 -8 107.5 -21.5t105.5 -27.5q45 -10 87 -22.5t83 -20.5q33 -8 63.5 -11.5t57.5 -3.5q43 0 83 9.5t79 25.5q35 14 71.5 36t75.5 48v-2q-2 -8 -3 -16t-1 -19q-4 -23 -7 -44t-9 -44 q-39 -111 -138.5 -161t-209.5 -62q-20 -2 -43 -3t-43 -1q-70 2 -129.5 11t-98.5 24q-47 14 -85 35.5t-72 44.5q-4 2 -8.5 5t-8.5 5q-2 2 -5 4t-7 4q-57 37 -125 68.5t-182 42.5zM549 301q0 -70 18.5 -123t67.5 -69q8 -2 15 -3.5t16 -1.5q6 0 11 1t11 1q39 8 76 35t65 58 q14 12 25.5 25.5t19.5 23.5q68 84 122.5 197.5t86.5 234.5q16 61 25.5 122.5t9.5 119.5q0 16 -1 34.5t-5 38.5q-8 47 -31.5 86t-76.5 39q-94 0 -174 -89t-138 -197q-33 -63 -57.5 -124t-36.5 -102l-10 -36q-6 -22 -13 -50q-6 -33 -13 -72.5t-9 -80.5q-2 -16 -3 -34t-1 -34z " />
<glyph unicode="R" horiz-adv-x="1851" d="M23 664q0 29 7 58.5t19 57.5q41 92 141.5 170t241.5 135q139 57 307 89t344 32h3h4q53 0 153 -3t211 -17q154 -23 281 -81t127 -183q0 -102 -79 -168t-171 -97q-27 -8 -51.5 -14t-47.5 -10q35 -23 62 -52.5t41 -70.5q8 -23 17 -53.5t20 -65.5q18 -55 43.5 -103t64.5 -48 q16 2 36 13t42 38q35 39 53.5 83t34.5 89q0 4 1 7t3 7l105 -43q-6 -14 -11.5 -28.5t-11.5 -28.5q-39 -90 -93 -174t-138 -137q-53 -33 -120 -50.5t-136 -17.5q-135 0 -246 71.5t-111 227.5q0 23 5.5 51.5t11.5 57.5q2 6 3 12t1 12q6 25 9 48.5t3 43.5q0 23 -5 40.5t-15 31.5 q-12 18 -41 27.5t-76 11.5q-27 -78 -53.5 -155t-53.5 -154q-14 -39 -26 -77t-27 -77q-27 -78 -120 -120t-199 -48q-12 -2 -24 -2h-23q-63 0 -122 12.5t-100 34.5q-6 4 -11 6t-11 6l-10 6q-6 3 -13 5l13 12l12 12q33 33 58.5 69t41.5 81q53 158 107.5 312.5t105.5 309.5 q16 47 40 91t52 83q-27 -8 -55.5 -18t-56.5 -25q-80 -39 -151.5 -101t-94.5 -138q-6 -18 -8 -33.5t-2 -28.5q0 -27 12 -44t33 -31q12 -8 26.5 -15.5t30.5 -17.5q-45 -53 -96 -87q-46 -30 -113 -30h-16q-92 4 -140 60.5t-48 132.5zM1102 741h26h27q66 0 127 6.5t121 49.5 q45 33 76.5 86t31.5 110q0 55 -38.5 72.5t-86.5 17.5q-111 0 -164 -74.5t-85 -164.5q-8 -23 -15.5 -46.5t-15.5 -43.5q-2 -4 -3 -7.5t-1 -5.5z" />
<glyph unicode="S" horiz-adv-x="1402" d="M29 218v15q0 78 46 143.5t140 88.5q16 4 32.5 5t33.5 1q43 0 82.5 -13.5t66.5 -45.5q12 -14 17.5 -20.5t5.5 -10.5q0 -2 -2 -4t-9.5 -6t-17.5 -13q-2 -2 -5 -4t-7 -4q-20 -16 -40 -39.5t-24 -50.5q-2 -16 -5 -32.5t-3 -30.5q2 -113 86 -168.5t188 -55.5h9h8 q96 4 180 53.5t111 147.5q4 16 6 29.5t2 27.5q0 82 -60.5 144.5t-132.5 120.5q-2 0 -3 1l-3 3l-3 3q-1 1 -3 1q-86 68 -157.5 144.5t-71.5 189.5q2 29 7 57.5t15 60.5q39 115 164 176.5t264 79.5q35 4 68 6.5t65 2.5q41 -2 81 -5.5t73 -9.5q14 -2 29 -6l28 -8 q74 -25 135 -71q59 -45 60 -121q0 -15 -1 -27t-5 -27q-14 -51 -58.5 -75.5t-95.5 -28.5h-7h-7q-14 0 -27.5 2t-26.5 4q-14 4 -28.5 11t-28.5 15q-8 4 -14 8.5t-15 8.5l22 14q9 6 17 13q12 8 20.5 20t14.5 37q2 8 3 15t1 14q0 51 -50 78.5t-109 29.5h-4h-3q-51 0 -97 -21.5 t-62 -68.5q-2 -8 -4 -15.5t-2 -15.5q2 -39 30.5 -71.5t61.5 -59.5q16 -12 30.5 -22.5t26.5 -18.5t25.5 -18t27.5 -19q98 -74 181 -166t83 -227q0 -33 -6 -66.5t-18 -72.5q-59 -172 -252 -270.5t-412 -114.5q-23 -2 -45 -3t-45 -1q-125 0 -238.5 28.5t-197.5 85.5 q-61 41 -97 102.5t-42 127.5q-2 6 -2 13z" />
<glyph unicode="T" horiz-adv-x="1724" d="M25 254q0 90 58 156.5t134 66.5q29 0 58.5 -12t58.5 -37l7 -7l7 -7q2 -4 5 -7l7 -8q-25 -27 -47 -58.5t-28 -61.5q-2 -8 -2 -15v-12q0 -20 10 -42t31 -42q25 -23 53.5 -34t56.5 -11q8 0 15.5 1t13.5 1q45 8 86 33.5t72 60.5q45 53 88 137t86 207q2 4 3 9.5t3 11.5 q10 31 20 63.5t23 65.5q33 100 83 194t136 152q-20 8 -42 13t-42 9t-42 6.5t-42 2.5q-68 -2 -131.5 -20.5t-122.5 -55.5q-68 -45 -116 -115t-48 -154q0 -8 1 -18t3 -20q6 -35 21.5 -55.5t36.5 -39.5q10 -8 19 -15t20 -15q-4 -2 -8.5 -3t-6.5 -1q-10 -4 -20.5 -7.5 t-20.5 -7.5q-27 -8 -54.5 -14t-55.5 -6q-14 0 -32 2t-36 8q-84 25 -131 100.5t-51 159.5v8v8q0 23 3 43.5t9 40.5q25 78 91.5 139.5t158.5 104.5q84 35 177 52.5t192 17.5q109 0 215 -20.5t200 -57.5q47 31 105.5 48t120.5 26q43 6 85 9t80 3q29 0 73 -2t91 -10 q74 -12 136.5 -45t62.5 -103q0 -57 -43 -88t-96 -43q-16 -4 -32.5 -6t-31.5 -4q-18 -2 -36.5 -3t-39.5 -1q-33 0 -68.5 3t-72.5 11q-10 2 -22.5 5t-24.5 7q-6 -10 -10 -21t-10 -22q-4 -12 -8.5 -23t-8.5 -22q-8 -23 -15 -46t-16 -48q-6 -20 -13 -41.5t-13 -42.5 q-57 -168 -136 -325.5t-237 -253.5q-109 -63 -243 -92t-298 -29q-39 0 -84 4t-92 10q-109 23 -197.5 80t-88.5 170zM1573 1049q27 -8 63.5 -14.5t75.5 -6.5q41 0 79 12.5t58 40.5q4 6 6.5 11.5t2.5 9.5q0 14 -17.5 20t-38.5 11q-12 2 -24 2h-21h-8h-8q-47 -6 -91 -31.5 t-77 -54.5z" />
<glyph unicode="U" horiz-adv-x="1902" d="M16 758q0 29 6.5 57.5t20.5 58.5q61 143 216 228.5t329 107.5q33 4 64.5 6.5t62.5 2.5q66 0 128 -10.5t115 -28.5q106 -37 170 -112t64 -175q0 -27 -5 -54.5t-16 -56.5q-20 -53 -44.5 -105t-51.5 -104q-6 -8 -10 -16l-8 -16q-4 -10 -19.5 -38t-31.5 -63 q-6 -14 -13.5 -30.5t-13.5 -30.5q-12 -31 -19.5 -60.5t-7.5 -52.5q0 -27 12.5 -42t41.5 -15t76.5 31.5t99.5 95.5q6 6 11 12t9 12q41 51 81 119t71 154q29 80 56.5 159.5t55.5 161.5q2 8 5.5 17.5t5.5 19.5q16 43 31.5 88t29.5 90h261h261q-76 -217 -150.5 -434t-150.5 -436 q0 -2 -2 -5t-2 -5q-6 -14 -10 -26.5t-4 -20.5q0 -10 8 -16.5t29 -6.5q45 0 88 44t76 97q18 31 32.5 60t22.5 49l112 -51q-41 -84 -90 -165t-125 -140q-51 -41 -124.5 -68t-153.5 -35q-12 0 -25.5 -1t-25.5 -1q-113 2 -204 56.5t-104 183.5q-80 -100 -204.5 -176t-259.5 -80 h-8h-7q-33 0 -66.5 5t-66.5 17q-100 39 -147 121t-47 176q0 37 6 74t20 74q20 51 44 100l48 98q2 6 6.5 13.5t6.5 13.5q29 55 54.5 110.5t43.5 112.5q8 23 12 43.5t4 38.5q0 47 -29.5 79t-95.5 32q-113 0 -193.5 -78t-90.5 -186q-2 -8 -2 -16v-13q0 -72 44 -90.5t105 -24.5 q6 0 11.5 -1t9.5 -1q-6 -6 -12.5 -13t-10.5 -13q-2 -2 -4 -5.5t-4 -5.5q-4 -4 -8 -9t-8 -9q-35 -41 -73 -62.5t-75 -27.5q-10 -2 -19.5 -3t-19.5 -1q-82 0 -143.5 61.5t-61.5 155.5z" />
<glyph unicode="V" horiz-adv-x="1564" d="M27 760q0 27 6 55.5t18 58.5q63 145 222 230.5t337 107.5q29 2 56.5 4.5t56.5 2.5q66 0 128 -9.5t116 -29.5q106 -37 171 -112q63 -72 62 -169q0 -32 -5 -60t-15 -57q-20 -63 -51 -122.5t-64 -118.5q-47 -92 -81 -164t-42 -119v-4v-4q-2 -2 -2 -3v-3q2 -25 17.5 -38 t52.5 -13q137 0 245.5 138t167.5 304q31 80 46.5 158.5t15.5 140.5q0 86 -24.5 138t-100.5 89q6 8 10 15.5t10 13.5q25 33 54 54q26 20 66 20h7h10h9q8 0 15 -2t15 -5q29 -6 55.5 -21t45.5 -40q29 -45 42 -93t13 -102q0 -18 -2 -38.5t-6 -38.5q-6 -41 -16.5 -80t-22.5 -76 q-53 -156 -145.5 -305.5t-214.5 -259.5q-72 -63 -177.5 -119.5t-218.5 -79.5q-29 -4 -57.5 -7t-56.5 -3q-84 0 -160 31.5t-129 109.5q-33 45 -46.5 92t-13.5 95q0 33 6.5 66.5t16.5 68.5q18 59 47 119.5t59 117.5q31 59 61 115.5t48 110.5q8 20 11 38.5t3 32.5 q0 45 -30.5 69.5t-94.5 24.5q-106 0 -187 -71.5t-89 -177.5q-2 -8 -2 -16v-15q0 -72 43 -89.5t104 -23.5q4 0 9.5 -1t11.5 -1q-8 -8 -16.5 -17t-14.5 -20q-4 -4 -7 -9t-7 -9q-27 -31 -56.5 -51.5t-58.5 -30.5q-18 -6 -36.5 -9t-35.5 -3q-82 0 -143 62.5t-61 156.5z" />
<glyph unicode="W" horiz-adv-x="2383" d="M14 758q0 29 6.5 57.5t18.5 58.5q63 145 222 230.5t337 107.5q29 2 56.5 4.5t56.5 2.5q66 0 128 -9.5t117 -29.5q106 -37 169 -112t63 -175q0 -27 -5 -54.5t-16 -56.5q-20 -63 -51 -122.5t-63 -118.5q-4 -10 -19.5 -38t-32.5 -63q-6 -14 -13 -29.5t-13 -31.5 q-12 -31 -19.5 -59.5t-7.5 -51.5q0 -27 13.5 -43t42.5 -16q20 0 40.5 8t40.5 23q43 31 86 84t78 112q35 55 60.5 107.5t38.5 83.5q29 76 55.5 151.5t50.5 153.5q20 57 39.5 115.5t40.5 115.5h526q-57 -168 -114.5 -334.5t-116.5 -330.5q-27 -82 -47.5 -145.5t-20.5 -104.5 q0 -27 17.5 -41t56.5 -14q137 0 246.5 138t169.5 304q29 80 45 158.5t16 140.5q0 86 -25.5 138t-99.5 89q4 6 8.5 11.5t6.5 11.5q25 35 54 58q27 22 69 22h8h9h9q8 0 16 -2l17 -5q29 -6 54.5 -21t41.5 -40q33 -47 47.5 -102.5t14.5 -114.5q0 -49 -9.5 -100.5t-25.5 -102.5 q-35 -111 -96.5 -218t-129.5 -193q-39 -49 -74.5 -90.5t-68.5 -69.5q-111 -96 -242 -152.5t-280 -58.5q-125 0 -223.5 75.5t-120.5 200.5q-82 -115 -217 -196.5t-281 -81.5q-160 0 -244 95t-84 226q0 35 6.5 72t20.5 74q20 53 45 104t49 101q4 6 6 10l5 10q29 55 54 110.5 t46 112.5q8 23 12 42.5t4 37.5q-2 49 -31.5 81t-95.5 32q-113 0 -193.5 -78t-90.5 -186v-8v-7q-2 -2 -2 -5v-7q2 -74 44 -92.5t105 -24.5q6 0 10 -1t11 -1q-6 -6 -12.5 -13t-10.5 -13q-2 -2 -4 -5.5t-4 -5.5q-4 -4 -8 -9t-9 -9q-29 -33 -59.5 -54.5t-62.5 -29.5 q-14 -6 -29.5 -8t-32.5 -2q-82 0 -143.5 61.5t-61.5 155.5z" />
<glyph unicode="X" horiz-adv-x="1708" d="M27 219q0 25 6 49.5t14 48.5q2 8 5 16.5t5 16.5q10 -14 19.5 -27.5t19.5 -23.5q39 -47 83 -73.5t122 -26.5q133 0 239.5 71.5t200.5 157.5q16 16 33 31.5t33 29.5q-8 33 -14.5 65t-14.5 62q0 4 -1 8.5t-1 8.5q-12 59 -25.5 118.5t-31.5 118.5q0 2 -1 3t-1 4 q-18 63 -46 112q-27 47 -100 47h-6q-88 -2 -147 -74q-56 -68 -56 -148v-11q4 -66 40 -89.5t85 -23.5q12 0 25.5 1t28.5 3q12 2 23 5t24 6q6 2 14 3t16 3q-2 -6 -5 -12.5t-5 -12.5q-6 -10 -11 -21.5t-9 -23.5q-35 -74 -89.5 -106.5t-113.5 -32.5q-90 0 -164 67.5t-74 173.5 q0 25 5.5 51.5t15.5 53.5q61 166 210.5 253t317.5 105q23 2 45.5 3t44.5 1q190 0 296 -107.5t167 -258.5q29 31 59.5 66.5t65.5 72.5q76 84 168 154.5t199 70.5q92 0 142 -52t50 -120q0 -8 -1 -18t-5 -19q-8 -39 -34.5 -73.5t-71.5 -61.5l-39 -22q0 2 -1 4l-1 2 q-20 53 -47 88t-91 35q-82 0 -147 -51.5t-121 -112.5q-23 -23 -43 -46.5t-39 -43.5q14 -49 26.5 -100.5t24.5 -100.5q2 -6 3.5 -10t3.5 -8q10 -47 21 -93.5t24 -91.5q16 -51 44.5 -71.5t65.5 -20.5q12 0 25.5 3t28.5 7q20 6 39.5 15.5t37.5 21.5q72 47 115 114t70 144 l100 -28q-53 -211 -219 -356.5t-391 -145.5q-203 0 -306.5 104.5t-158.5 253.5q-20 -20 -42 -42.5t-44 -45.5q-96 -98 -208 -179t-255 -81q-10 0 -19.5 1t-19.5 1q-88 10 -159.5 62.5t-71.5 148.5z" />
<glyph unicode="Y" horiz-adv-x="1789" d="M29 827q0 29 6 56.5t18 58.5q61 147 221 232.5t340 103.5q27 2 51.5 3t49.5 1q193 0 339 -79t146 -238q0 -27 -5 -56.5t-15 -60.5q-20 -63 -50 -122.5t-61 -119.5q-6 -10 -19.5 -34.5t-27.5 -57.5q-8 -14 -15.5 -30.5t-13.5 -32.5q-10 -27 -16 -52.5t-6 -48.5 q0 -27 13 -44t46 -17q6 0 11.5 1t11.5 1q57 12 112.5 77.5t100.5 141.5q33 57 57.5 111.5t34.5 83.5l28 81q29 82 64 181l54 162q26 77 34 100h502q-45 -129 -89 -259t-89 -259t-89 -259t-90 -259q-96 -285 -346 -431q-246 -143 -528 -143h-8q-57 0 -115.5 6t-116.5 19 q-23 4 -49 11t-53 17q-78 29 -142.5 80t-64.5 139q0 92 66.5 143.5t146.5 51.5q45 0 87 -17.5t75 -56.5l35 -37q-6 -2 -13.5 -5t-13.5 -5q-41 -20 -74.5 -47t-33.5 -72v-10q0 -6 2 -12q6 -39 38.5 -58.5t69.5 -23.5q2 -2 5 -2h7q14 -1 28 -1q198 0 314 140q125 150 191 334 q2 4 3 8t3 8q-74 -70 -171 -118t-200 -54h-11h-9q-10 0 -21.5 1t-21.5 1q-23 4 -44.5 9.5t-41.5 11.5q-104 37 -155.5 121t-51.5 180q0 18 2 35.5t6 36.5q2 18 7 35.5t12 35.5q18 53 41.5 104.5t48.5 102.5q0 2 2 5t2 5q27 57 53.5 115.5t46.5 118.5q6 20 9 39.5t3 36.5 q0 51 -29.5 83.5t-97.5 32.5q-111 0 -189.5 -75.5t-88.5 -182.5q-1 -14 -1 -27q0 -76 42 -96q49 -23 125 -28h4q-12 -14 -23.5 -27.5t-21.5 -25.5q-35 -41 -73 -65t-75 -30q-10 -2 -19 -3t-19 -1q-82 2 -144.5 64.5t-62.5 156.5z" />
<glyph unicode="Z" horiz-adv-x="1519" d="M8 39q109 117 216.5 233.5t215.5 233.5q106 117 215 233.5t215 233.5q8 8 13.5 17t9.5 20q0 4 1 9t1 9q0 20 -12.5 35.5t-40.5 21.5q-33 8 -68 12.5t-69 4.5q-41 0 -82 -6t-80 -23q-6 -2 -12.5 -5t-12.5 -7q-55 -31 -102 -88.5t-51 -120.5v-4v-4q0 -14 3 -27.5t7 -25.5 q14 -37 44 -54.5t64 -29.5q2 -2 4 -3.5t5 -1.5q2 -2 5 -3t5 -1q-6 -6 -13.5 -12t-15.5 -14q-37 -33 -76 -57q-36 -22 -85 -21h-9q-92 2 -153.5 74.5t-61.5 160.5q0 18 3 36t9 34q59 172 217 235q153 60 327 60h11q121 0 235 -18.5t202 -42.5q92 -25 187 -39.5t189 -14.5 q29 0 58.5 2t58.5 4l31 -63q-68 -68 -134.5 -136.5t-133.5 -137.5q-33 -33 -67 -68t-67 -68q-100 -104 -200.5 -206.5t-202.5 -204.5q-20 -20 -28.5 -39t-8.5 -35q0 -33 34 -53.5t79 -30.5q23 -4 47 -7t51 -3h22q11 0 21 2q63 6 121.5 28.5t101.5 63.5q25 25 40.5 47.5 t21.5 42.5q2 8 3 17.5t1 17.5q0 29 -12.5 60.5t-28.5 70.5q2 0 5 -1t7 -3q86 -29 158 -69t72 -142q0 -12 -1 -24.5t-6 -28.5q-18 -109 -104 -157t-184 -56q-10 -2 -22 -2h-21q-117 0 -231.5 24.5t-227.5 55.5q-10 2 -19.5 5t-19.5 5q-117 31 -237.5 42t-241.5 11 q-49 0 -97.5 -1t-97.5 -3z" />
<glyph unicode="[" horiz-adv-x="874" d="M39 -37l448 1299h347v-76h-187l-395 -1149h160v-74h-373z" />
<glyph unicode="\" horiz-adv-x="614" d="M14 1559h160l674 -2008h-158z" />
<glyph unicode="]" horiz-adv-x="874" d="M37 -37v76h186l395 1149h-159v74h372l-448 -1299h-346z" />
<glyph unicode="^" />
<glyph unicode="_" horiz-adv-x="1638" d="M-31 -78h1700v-155h-1700v155z" />
<glyph unicode="`" horiz-adv-x="407" d="M27 1413q0 8 2 15.5t4 15.5q10 25 35.5 36t52.5 11q18 0 34.5 -4t28.5 -12q16 -8 32.5 -22.5t37.5 -35.5q29 -29 54.5 -61.5t49.5 -65.5q4 -6 9.5 -13t9.5 -13q-14 2 -29.5 2t-30.5 2q-29 2 -58.5 4t-59.5 4q-27 4 -52.5 9t-44.5 13q-29 16 -52 48t-23 67z" />
<glyph unicode="a" horiz-adv-x="1214" d="M29 301q0 94 50 182t128 148q59 45 137 74.5t160 33.5q8 2 17 2h18q66 0 127 -19.5t110 -59.5l21 61h199h200q-12 -37 -25.5 -75t-25.5 -75q-27 -74 -52.5 -148.5t-50.5 -150.5q0 -2 -2 -5t-2 -9q-2 -4 -4 -11t-2 -13q-2 -4 -2 -9v-8q0 -8 3 -16t11 -10q4 -2 9.5 -3.5 t11.5 0.5q12 0 23.5 5.5t23.5 11.5q23 14 45.5 36.5t40.5 47.5q18 23 31.5 45t19.5 37l4 8l4 8q0 4 3 8l4 9l106 -48q-76 -162 -181.5 -269t-301.5 -107h-5h-5q-66 2 -124.5 29.5t-86.5 90.5q-55 -51 -126 -82.5t-145 -37.5q-8 -2 -17 -2h-20q-72 2 -138 28.5t-118 89.5 q-39 47 -56 98.5t-17 104.5zM387 174q0 -31 10.5 -51.5t36.5 -20.5q59 0 105.5 49.5t78.5 108.5q18 31 31 59.5t23 51.5q25 63 37 110t12 80q0 25 -7 39t-36 14q-10 0 -20.5 -2t-20.5 -6q-39 -16 -78 -57t-70 -88q-23 -33 -40 -64.5t-25 -54.5q-2 -6 -7 -20.5t-9 -32.5 q-4 -14 -8.5 -29.5t-6.5 -32.5q-4 -12 -5 -26.5t-1 -26.5z" />
<glyph unicode="b" horiz-adv-x="1116" d="M31 279q0 12 1 24t3 25q4 25 10 50t14 48q61 176 122 351t120 349h404l-154 -450q51 33 103.5 49t109.5 16q23 0 46.5 -3t45.5 -9q115 -27 174 -107q57 -78 58 -179q0 -27 -4 -50q-3 -23 -7 -45q-37 -168 -175 -252t-296 -104q-35 -6 -70.5 -8t-70.5 -2q-29 0 -59.5 2 t-63.5 6q-74 10 -143.5 37.5t-114.5 85.5q-27 37 -40 79t-13 87zM381.5 88.5q13.5 -14.5 42.5 -14.5q66 0 117 53t84 117q16 27 28.5 54.5t20.5 49.5q2 8 7 20.5t9 28.5q4 14 9.5 34t7.5 38q2 10 3 21.5t1 21.5q0 35 -14.5 58.5t-49.5 23.5q-45 0 -88 -46t-76 -99 q-23 -35 -38 -68t-23 -53q-25 -61 -40 -113q-14 -45 -14 -79q0 -33 13.5 -47.5z" />
<glyph unicode="c" horiz-adv-x="956" d="M25 342q0 94 57 179t147 136q59 33 145.5 56.5t176.5 27.5q12 2 22 2h21q78 0 147.5 -18t120.5 -63q25 -25 41.5 -59t20.5 -71v-7v-7q0 -27 -9.5 -53.5t-27.5 -46.5q-23 -27 -53.5 -39t-65.5 -12h-9q-5 0 -11 2q-18 2 -38 9t-36 17q-27 16 -43.5 42t-20.5 55v4v6 q-2 2 -2 4v4q0 47 31 82t76 47q-12 4 -24.5 7t-26.5 1h-12q-5 0 -11 -2q-6 0 -11 -2t-12 -4q-72 -25 -124 -101.5t-70 -164.5q-4 -18 -6 -39t-2 -39q2 -80 43 -138.5t135 -58.5q158 0 256 87t162 216l96 -43q-4 -6 -7 -13t-5 -13q-47 -96 -104.5 -171t-164.5 -126 q-63 -29 -140 -44.5t-157 -15.5h-13h-13q-119 6 -228.5 46t-179.5 129q-37 47 -54 95t-17 97z" />
<glyph unicode="d" horiz-adv-x="1177" d="M14 307q0 92 49.5 179t131.5 149q59 45 137 73.5t160 34.5h19h17q68 0 130.5 -18t113.5 -61l158 462h195h194l-148 -426l-147 -426q0 -2 -2 -7t-2 -11q-2 -4 -3 -10t-1 -10q-2 -4 -2 -9v-8q0 -8 3 -16t9 -10q4 -2 9 -3.5t12 0.5q10 0 21 4.5t24 10.5q23 14 46 37.5 t44 48.5q18 23 31.5 45t19.5 37l8 16l8 17l105 -48q-78 -162 -182.5 -269t-299.5 -107q-68 0 -128 26.5t-89 91.5q-57 -61 -134 -92t-156 -31q-76 2 -147 31t-124 90q-35 39 -53 83t-25 89q0 10 -1 19.5t-1 17.5zM371 184q0 -31 12 -53t41 -22q66 0 112 48t76 105 q14 25 25.5 48.5t19.5 43.5q4 8 9.5 23.5t11.5 36.5q6 16 11 33.5t7 35.5q4 14 5 27.5t1 26.5q0 33 -12 54t-47 21q-6 0 -11 -1t-11 -3q-41 -10 -80 -52t-72 -91q-20 -35 -37.5 -67.5t-25.5 -53.5q-2 -6 -6.5 -17.5t-8.5 -25.5q-6 -16 -10 -35.5t-8 -40.5q0 -10 -1 -20.5 t-1 -20.5z" />
<glyph unicode="e" horiz-adv-x="940" d="M20 336q0 29 5.5 58.5t15.5 60.5q41 123 166 191.5t266 86.5q31 4 60.5 6t58.5 2q43 0 84 -4t76 -14q6 -2 11 -3t11 -3q59 -16 112 -58q54 -43 54 -119q0 -104 -92 -165q-96 -63 -211 -92q-63 -16 -123 -23q-45 -5 -80 -5q-12 0 -22 1q10 -74 56 -114t122 -40 q154 0 258 86t164 218l102 -48q-51 -102 -114.5 -186t-176.5 -137q-68 -31 -142.5 -45.5t-152.5 -14.5h-24q-12 0 -23 2q-49 2 -96 11.5t-92 23.5q-119 41 -196 125t-77 199zM426 373q25 2 51.5 6t52.5 12q78 20 142.5 67.5t66.5 131.5q0 35 -18.5 49t-52.5 16h-5 q-73 0 -126 -57q-55 -59 -84 -131q-10 -25 -16.5 -49.5t-10.5 -44.5z" />
<glyph unicode="f" horiz-adv-x="933" d="M-147 -469l374 1096h-121l37 100h121q6 20 12.5 39.5t12.5 38.5q31 90 69.5 167t126.5 134q55 35 136 57.5t165 24.5h9h8q72 0 139.5 -17.5t114.5 -58.5q29 -25 46 -57.5t21 -67.5v-9v-9q0 -53 -32.5 -97.5t-98.5 -56.5q-4 0 -8 -1t-8 -1h-8h-8q-72 0 -117 47t-45 105v7 v7q4 31 23.5 59.5t58.5 46.5h-5h-8q-63 0 -107 -60t-73 -134q-18 -47 -32.5 -92t-22.5 -72h188l-35 -100h-190l-377 -1096h-366z" />
<glyph unicode="g" horiz-adv-x="1069" d="M-43 -221q2 51 32.5 92t100.5 53q4 0 8 1t11 1h8h8q74 0 119 -47t47 -104v-3v-3q0 -41 -25.5 -79t-81.5 -57q4 -2 9.5 -4t11.5 -2q4 -2 9 -3t9 -1h6q103 0 160 78q59 80 96 174q14 39 26.5 77t23.5 68q-27 -12 -56.5 -19t-58.5 -11q-14 -2 -28.5 -3t-29.5 -1 q-131 0 -231 80.5t-100 234.5q0 178 145.5 306t319.5 145q10 0 21 1t22 1q59 0 116.5 -17.5t108.5 -52.5l14 41h391l-73 -217q-37 -109 -74 -215q-39 -109 -76 -216.5t-74 -215.5q-47 -139 -187 -229.5t-296 -110.5q-20 -2 -39.5 -3t-38.5 -1q-63 0 -123.5 14t-111.5 45 q-47 27 -77 72t-38 92q-2 10 -3 19.5t-1 19.5zM385 197q0 -14 3 -28.5t7 -25.5q8 -14 17.5 -21t23.5 -7q84 0 136.5 73.5t82.5 163.5q20 55 35 107.5t27 87.5v10q0 6 -2 10q-2 14 -9.5 27.5t-23.5 19.5q-2 2 -6 3t-6 1q-4 2 -7 3h-8q-18 0 -38.5 -10.5t-41.5 -26.5 q-41 -37 -80.5 -96.5t-66.5 -122.5q-20 -45 -31.5 -89t-11.5 -79z" />
<glyph unicode="h" horiz-adv-x="1208" d="M12 0l387 1126h394l-156 -450q43 23 95 40t108 23q10 0 21 1t22 1q59 -2 114.5 -20.5t94.5 -63.5q27 -29 38 -62.5t11 -68.5q0 -20 -3 -39.5t-12 -40.5q-6 -20 -13 -41.5t-15 -44.5q-8 -20 -15.5 -41.5t-13.5 -44.5l-4 -8q-2 -4 -4 -10l-4 -12q-2 -6 -4 -15q0 -4 -1 -10 t-1 -10q0 -10 5 -17.5t19 -7.5q10 0 20.5 3t20.5 10q29 14 55.5 40.5t49.5 55.5q14 20 26.5 40.5t18.5 37.5l4 8q2 4 4 10l4 8l4 9l102 -50q-74 -156 -180 -265t-299 -109q-12 0 -25.5 1t-25.5 1q-49 6 -94 24.5t-76 59.5q-20 29 -28.5 59.5t-8.5 62.5v17q0 8 2 16 q4 41 16.5 82t26.5 76q2 6 8.5 20.5t12.5 32.5q4 8 7 18.5t5 20.5q4 14 7 29.5t3 27.5q0 18 -7 29.5t-26 11.5q-37 0 -69.5 -31.5t-54.5 -68.5q-12 -20 -21.5 -37.5t-13.5 -32.5q-23 -59 -43.5 -119.5t-40.5 -119.5q-14 -41 -27.5 -81t-28.5 -81h-391z" />
<glyph unicode="i" horiz-adv-x="583" d="M25 207q0 23 3 46t9 48q4 12 7 23.5t7 23.5q33 94 64.5 187.5t64.5 187.5h100h101h101h100q-12 -37 -25.5 -75t-26.5 -75q-27 -74 -52 -148.5t-50 -150.5q-6 -14 -10 -29.5t-4 -27.5t9 -20.5t32 -6.5q16 0 40.5 13.5t51.5 38.5q37 37 60.5 77.5t43.5 86.5q8 -4 17.5 -8.5 t17.5 -8.5q16 -8 33.5 -15t36.5 -18q-4 -10 -9.5 -19t-11.5 -20q-33 -66 -71.5 -127t-94.5 -110q-51 -45 -119.5 -69.5t-142.5 -28.5h-9h-9q-31 0 -61.5 4t-59.5 14q-78 27 -110.5 83t-32.5 124zM221 946q0 16 6 32.5t17 31.5q29 37 75 55t95 22h11h11q23 0 45.5 -3t42.5 -9 l13 -4q6 -2 10 -4q43 -18 79 -51t36 -80q0 -6 -1.5 -13.5t-3.5 -15.5q-12 -39 -44.5 -64.5t-69.5 -37.5q-8 -2 -14.5 -3t-12.5 -3q-16 -2 -33.5 -4t-33.5 -2q-45 0 -90.5 11t-79.5 38q-27 20 -42.5 47.5t-15.5 56.5z" />
<glyph unicode="j" horiz-adv-x="727" d="M-416 -221q0 51 32 92t103 53q4 0 8.5 1t8.5 1h10h8q74 0 119 -47t47 -104v-3v-3q-2 -41 -26.5 -79t-79.5 -57q8 -4 18 -6l21 -4h5q88 0 144 62q57 63 90 139q4 10 7 19.5t7 19.5q76 215 151 431t146 431h396q-76 -217 -151 -433t-148 -431q-49 -137 -186.5 -227.5 t-290.5 -110.5q-23 -4 -42.5 -5t-39.5 -1q-63 0 -124 14t-112 45q-47 27 -77.5 72t-39.5 92q-2 10 -3 19.5t-1 19.5zM457 950q0 16 5 33.5t17 32.5q29 37 75 55.5t95 22.5h11h12q23 0 45 -3.5t43 -9.5q4 -2 9 -3t9 -3q45 -16 83 -49q36 -31 36 -77v-7v-7q0 -5 -2 -11v-5 q0 -3 -2 -6q-10 -39 -43 -62.5t-70 -37.5q-6 -2 -13 -4t-15 -4q-10 -2 -21.5 -3t-23.5 -3h-12h-11h-17q-9 0 -20 2q-35 4 -69.5 15t-63.5 32q-27 20 -42 46.5t-15 55.5z" />
<glyph unicode="k" horiz-adv-x="1181" d="M20 0l388 1126h391l-154 -448q49 29 106.5 46t114.5 19q8 2 17 2h16q39 0 76 -6t69 -18q53 -16 94.5 -54t41.5 -98q0 -74 -54.5 -124t-117.5 -78q-14 -6 -28.5 -11.5t-29.5 -9.5q-2 -10 -3 -22.5t-1 -24.5q0 -43 19.5 -78t66.5 -45q4 -2 10 -2h13q10 0 19 2l18 4 q53 16 85.5 62.5t55.5 97.5q8 16 14 33l13 33l106 -48q-33 -78 -74 -152.5t-108 -129.5q-55 -45 -129 -69.5t-172 -24.5q-70 0 -127.5 17t-100.5 60q-45 45 -64.5 102.5t-27.5 119.5l-4 45q-2 23 -2 43q2 0 5 1t5 3q16 6 33.5 12t34.5 12q47 18 90 43t70 66q8 12 11 23.5 t3 19.5q-2 18 -14.5 29.5t-34.5 11.5h-4h-4q-2 -2 -4 -2h-5q-59 -10 -105 -58.5t-75 -103.5q-6 -12 -11 -24.5t-9 -24.5l-131 -377h-392z" />
<glyph unicode="l" horiz-adv-x="577" d="M18 205q0 8 1 15t1 13q4 31 10.5 60t16.5 55q68 195 134.5 390.5t131.5 387.5h102h101h99h102l-148 -426q-74 -213 -145 -426q-8 -18 -12 -33.5t-4 -25.5q0 -12 10 -19.5t33 -5.5q16 0 40.5 13.5t51.5 38.5q37 37 60.5 77.5t43.5 86.5l103 -50q-74 -156 -174.5 -265 t-292.5 -109q-10 0 -21.5 1t-21.5 1q-51 6 -100.5 25.5t-80.5 62.5q-20 29 -30.5 63.5t-10.5 69.5z" />
<glyph unicode="m" horiz-adv-x="1767" d="M4 0l248 719h383l-17 -45q47 29 105.5 48t118.5 23h12h12q29 0 58.5 -4t56.5 -14q43 -14 78 -44t49 -77q61 66 138 100.5t159 34.5q31 0 61.5 -5t61.5 -15q80 -27 121 -86.5t41 -132.5q0 -25 -4.5 -49.5t-14.5 -51.5q-4 -12 -12 -34.5t-17 -47.5l-4 -12l-4 -12 q-8 -29 -15 -54.5t-7 -41.5v-5q0 -3 2 -8q2 -2 7 -2h13q10 0 20.5 3t20.5 10q29 16 57.5 46.5t51.5 63.5q20 29 35.5 54.5t23.5 44.5l103 -50q-76 -156 -182.5 -265t-299.5 -109q-14 0 -29.5 1t-31.5 3q-47 6 -91 23.5t-73 56.5q-20 29 -28.5 58.5t-8.5 61.5q0 14 1 27.5 t3 28.5q6 35 17.5 68.5t23.5 64.5q2 6 8.5 22.5t14.5 36.5q2 8 6 18.5t6 20.5q4 16 7 31.5t3 27.5q0 16 -7 27.5t-23 11.5q-37 0 -70 -33.5t-57 -72.5q-12 -23 -22.5 -44.5t-16.5 -37.5q-16 -47 -32.5 -95t-33.5 -95q-18 -49 -34.5 -97.5t-32.5 -95.5h-406q23 61 44.5 122.5 t43.5 125.5q20 61 42 122.5t42 123.5q4 12 6 23t2 20q0 20 -9 28t-26 8q-10 0 -21 -3t-22 -9q-12 -6 -23 -15t-22 -22q-31 -35 -66.5 -99.5t-76.5 -172.5l-13 -39q-13 -39 -30 -86q-12 -41 -25 -78l-16 -49h-383z" />
<glyph unicode="n" horiz-adv-x="1218" d="M14 0q61 180 123 359.5t125 359.5h381l-4 -12l-4 -13q-4 -8 -6 -14l-4 -12q47 27 105 46t120 25q10 2 20 2h21q59 0 113.5 -19.5t95.5 -64.5q27 -29 39 -63.5t12 -71.5q0 -8 -1 -18t-3 -19q-2 -10 -4 -19t-6 -20q-6 -20 -14.5 -41.5t-14.5 -44.5q-8 -20 -16.5 -41.5 t-14.5 -44.5q-2 -4 -4 -10t-4 -14q-2 -4 -4 -9t-2 -12q-2 -4 -3 -10t-1 -10q0 -10 6 -17.5t20 -7.5q12 0 23.5 4.5t24.5 10.5q25 16 50 41.5t46 52.5q16 20 28.5 40.5t18.5 37.5l4 8q2 4 4 10q0 4 2 8l4 9l103 -50q-74 -156 -181.5 -265t-296.5 -109q-12 0 -24 1t-25 1 q-51 6 -98 24.5t-78 59.5q-20 29 -29.5 60.5t-9.5 64.5q0 16 2 32.5t4 30.5q6 33 17.5 65.5t21.5 61.5q2 6 8.5 20.5t14.5 32.5q2 10 5 19.5t7 19.5q4 16 7 31.5t3 28.5q0 16 -7 27t-23 11q-20 0 -47 -19t-62 -67q-49 -70 -84 -150.5t-65 -164.5q-12 -39 -24.5 -77 t-25.5 -75q-2 -4 -4 -9t-4 -11h-381z" />
<glyph unicode="o" horiz-adv-x="1181" d="M31 297q0 96 57 184t152 150q82 53 184 83.5t211 30.5q16 0 31.5 -1t31.5 -1q88 -8 172 -37.5t148 -89.5q55 -49 83.5 -111.5t28.5 -129.5q0 -25 -4 -49.5t-12 -49.5q29 4 50.5 15.5t41.5 36.5q12 12 24.5 31.5t26.5 43.5l111 -49q-12 -25 -28.5 -58.5t-36.5 -68.5 q-39 -68 -95.5 -124t-132.5 -56q-31 0 -58.5 9.5t-51.5 23.5q-80 -66 -187.5 -102.5t-220.5 -43.5h-17h-20q-106 0 -204.5 32t-172.5 95q-59 53 -85.5 114t-26.5 122zM451 197q0 -12 1 -31t5 -37q6 -35 21.5 -62.5t47.5 -27.5q51 0 91 36t65 81q6 10 12 19t11 20 q-33 23 -50.5 56.5t-17.5 72.5v8v6q6 61 46 115.5t101 70.5q-2 63 -23.5 91t-53.5 28q-20 0 -45 -11t-50 -32q-10 -8 -19 -18.5t-20 -20.5q-47 -55 -75.5 -125.5t-40.5 -144.5q-2 -25 -4 -48t-2 -46z" />
<glyph unicode="p" horiz-adv-x="1226" d="M-137 -473q43 119 83 235.5t79 233.5q20 55 39.5 113.5t39.5 117.5q61 174 122 349.5t122 349.5h381l-88 -252q47 25 107.5 43t121.5 22h12h11q59 0 114.5 -19.5t94.5 -64.5q27 -29 38 -62.5t11 -68.5q0 -20 -3 -39.5t-11 -40.5q-6 -20 -13.5 -41.5t-15.5 -44.5 q-2 -6 -5 -13t-5 -15q-4 -14 -9.5 -28.5t-9.5 -29.5l-4 -8q-2 -4 -4 -10q-2 -4 -3 -9t-3 -12q-2 -6 -3 -12t-1 -12q0 -10 5 -17.5t19 -7.5q10 0 19.5 2t19.5 9q29 12 56.5 39.5t48.5 56.5q16 23 28.5 43t18.5 35l4 8l4 8l4 8q2 4 2 8l105 -47q-76 -156 -182.5 -264 t-294.5 -108q-12 0 -25.5 1t-26.5 1q-51 6 -98 23.5t-78 58.5q-20 29 -28.5 59.5t-8.5 62.5v17q0 8 2 18q4 37 15.5 75t23.5 73q2 4 3 7t3 7q2 6 8.5 19.5t12.5 29.5q4 10 7 19.5t7 19.5q4 14 6 28.5t2 26.5q0 16 -7 26.5t-23 10.5q-41 0 -80 -47t-68 -104 q-20 -39 -35.5 -76t-21.5 -57q-33 -94 -66.5 -187.5t-64.5 -187.5q-8 -18 -14.5 -38t-12.5 -38q-27 -76 -52.5 -150.5t-51.5 -150.5z" />
<glyph unicode="q" horiz-adv-x="1079" d="M23 305q0 92 49 179t131 149q57 43 130 71.5t150 36.5q12 0 25.5 1t26.5 1q59 0 117.5 -16t107.5 -51l18 49h383q-35 -100 -68.5 -199.5t-68.5 -199.5q-70 -199 -138.5 -398.5t-135.5 -398.5l-385 -2l165 481q-37 -14 -75.5 -22.5t-79.5 -8.5q-76 0 -147.5 30t-125.5 91 q-41 47 -60 100.5t-19 106.5zM379 190q0 -14 2 -28.5t8 -26.5q8 -14 21.5 -21.5t27.5 -7.5q8 0 16.5 1.5t16.5 5.5q14 4 27.5 11t25.5 13l10.5 7t8.5 8q8 8 15 16t15 18q12 12 22.5 28.5t18.5 35.5q14 35 26.5 70.5t25.5 72.5q2 6 5 13.5t5 13.5q10 29 19.5 57.5t19.5 57.5 q0 4 -1 9t-1 9q-2 16 -9.5 31.5t-23.5 21.5q-6 4 -13.5 5t-15.5 1t-16 -2l-17 -4q-35 -14 -69.5 -53t-63.5 -82q-25 -39 -43 -75t-26 -54q-10 -20 -18.5 -47t-14.5 -55q-2 -12 -3 -25t-1 -25z" />
<glyph unicode="r" horiz-adv-x="1183" d="M29 389q53 139 156.5 251t258.5 120q14 2 29.5 2t32.5 -2q68 -4 130 -34t99 -89q45 33 95.5 61.5t103.5 44.5q25 8 48.5 11.5t45.5 3.5q31 0 60.5 -8.5t56.5 -24.5q27 -18 42 -45t21 -55q4 -12 4 -25v-22q0 -76 -46 -120t-101 -44h-3h-3q-43 0 -82 28.5t-55 92.5 q-6 18 -15.5 27t-21.5 7q-20 0 -46 -23.5t-55 -64.5q-49 -63 -83.5 -141t-61.5 -158q-12 -35 -22.5 -67.5t-22.5 -65.5l-8 -24l-8 -25h-379l170 475q4 8 4 14v11q0 23 -17.5 30t-40.5 5q-53 -6 -94 -49.5t-67 -92.5q-6 -10 -12.5 -22.5t-10.5 -22.5z" />
<glyph unicode="s" horiz-adv-x="858" d="M23 246q0 23 3 45t9 45q14 53 57 83q40 28 88 28q3 0 6 -1h12h9q4 0 9 -1t11 -3l183 254l387 99q6 -109 13 -218.5t15 -218.5q1 -13 1 -26q0 -151 -111 -233q-121 -89 -266 -103q-18 -2 -36 -3t-34 -1q-20 0 -43 1t-45 5q-59 6 -115.5 28.5t-97.5 65.5q-29 35 -42 74 t-13 80zM174 162q14 -20 36.5 -35.5t49.5 -15.5q84 0 134 45t50 133q2 63 2 126v124l-122 -164q12 -16 17 -36t5 -40t-6 -38.5t-18 -35.5q-20 -31 -55.5 -48t-71.5 -17h-6h-5q-2 0 -5 1t-5 1z" />
<glyph unicode="t" horiz-adv-x="565" d="M23 211q0 10 1 19.5t3 19.5q4 29 11 57.5t15 54.5q12 33 23.5 66t21.5 68q10 33 21.5 65.5t23.5 65.5h-88l35 98h88q10 31 20.5 60.5t22.5 60.5q10 29 20.5 58.5t20.5 60.5q68 10 135.5 19t134.5 20q33 4 68 9t68 9q-12 -37 -25.5 -74t-26.5 -74q-12 -37 -25 -74.5 t-26 -74.5h111l-37 -98h-109q-14 -43 -29.5 -87t-29.5 -89q-16 -45 -30.5 -89.5t-30.5 -87.5q-4 -14 -7.5 -27.5t-3.5 -23.5q0 -18 8.5 -25.5t22.5 -7.5q12 0 27.5 6.5t31.5 16.5q8 6 17.5 12t17.5 15q39 35 63.5 77.5t45.5 88.5l104 -50q-4 -10 -9 -19t-9 -20 q-33 -66 -72 -127t-94 -110q-51 -45 -122 -71.5t-163 -26.5h-7h-5q-57 2 -109.5 22.5t-85.5 69.5q-20 31 -29 65.5t-9 71.5z" />
<glyph unicode="u" horiz-adv-x="1132" d="M20 209q0 31 6.5 61.5t16.5 59.5q18 51 35.5 101t34.5 99q16 51 33.5 101.5t35.5 99.5h389q-20 -57 -39.5 -114.5t-37.5 -114.5q-20 -57 -40 -114.5t-40 -115.5q-2 -8 -5 -17t-3 -17q0 -12 7 -20.5t25 -8.5q20 0 50 15.5t65 58.5q45 51 77 119.5t58 140.5 q10 33 21.5 66.5t23.5 66.5q2 8 5 15t5 16q0 4 1 7t4 5q0 2 1 3l1 1q0 2 1 4t1 4h64h65h128h130q-20 -55 -40 -111.5t-38 -111.5q-18 -57 -37.5 -113.5t-40.5 -111.5q-6 -16 -8 -29.5t-2 -24.5q0 -16 7 -23t19 -7t26.5 6t31.5 14l20 17l21 16q39 35 63.5 75t44.5 87l105 -49 q-2 -4 -5 -9.5t-6 -11.5q-35 -70 -76.5 -137.5t-101.5 -118.5q-57 -47 -127.5 -72.5t-163.5 -25.5q-88 0 -153.5 41t-79.5 133q-70 -74 -163 -125t-199 -51q-111 0 -163.5 66.5t-52.5 154.5z" />
<glyph unicode="v" horiz-adv-x="880" d="M16 221q0 14 1 27.5t3 27.5q2 12 6.5 25.5t8.5 28.5q35 102 70.5 201.5t68.5 199.5h389q-39 -113 -78 -228.5t-79 -230.5q-2 -8 -4.5 -15t-2.5 -15q0 -18 9.5 -32.5t29.5 -14.5q43 0 83 32.5t69 71.5q12 16 21.5 31.5t17.5 27.5q-2 16 -3 33t-1 33q0 12 1 26.5t1 26.5 q6 53 22.5 105.5t42.5 93.5q2 2 3 5t3 5q18 25 41 44.5t49 19.5h9q4 0 6 -2q33 -8 48 -36t19 -59q2 -8 2 -15v-15q0 -80 -33.5 -157t-74.5 -142q-2 -6 -5 -10.5t-5 -8.5q6 -6 13 -10t15 -8q8 -2 15.5 -3t13.5 -1q37 0 68.5 29.5t52.5 66.5q2 6 6 14t6 15l105 -48 q-14 -39 -35 -71.5t-56 -61.5q-27 -23 -58.5 -38t-65.5 -21q-8 0 -16.5 -1t-16.5 -1q-33 0 -64.5 13.5t-56.5 41.5q-84 -94 -191.5 -163.5t-240.5 -69.5q-115 0 -173.5 69.5t-58.5 163.5z" />
<glyph unicode="w" horiz-adv-x="1447" d="M23 209q0 31 6 61.5t16 59.5q18 51 35.5 101t34.5 99q16 51 33.5 101.5t35.5 99.5h389q-20 -57 -39.5 -114.5t-37.5 -114.5q-20 -57 -40 -114.5t-40 -115.5q-4 -10 -6 -19t0 -15q0 -14 8 -21.5t22 -7.5q10 0 21.5 3t21.5 7q14 6 26.5 14.5t22.5 18.5q57 51 93.5 128 t62.5 159q12 33 21.5 65.5t19.5 65.5q4 16 9 31.5t12 29.5h389q-20 -57 -40 -114.5t-38 -114.5q-20 -57 -40 -114.5t-40 -115.5q-2 -8 -4 -15t-2 -15q0 -18 9 -32.5t30 -14.5q43 0 82 32.5t69 71.5q10 16 21 32l18 27q-2 16 -3 33t-1 33q0 12 1 26.5t1 26.5q6 53 22.5 105.5 t43.5 93.5q2 2 3 5t3 5q16 25 39.5 44.5t52.5 19.5h3h3q2 -2 3 -2h3q33 -8 48.5 -36t19.5 -59q2 -8 2 -15v-15q0 -80 -34 -157t-75 -142q-2 -6 -5 -10.5t-5 -8.5q14 -12 28.5 -18t28.5 -4q37 0 70 29.5t53 66.5q4 6 8.5 14t6.5 15l100 -48q-14 -37 -35.5 -70.5t-54.5 -62.5 q-29 -25 -63.5 -40t-69.5 -19q-6 -2 -12 -2h-13q-33 0 -64.5 13.5t-56.5 41.5q-84 -94 -191.5 -163.5t-240.5 -69.5q-82 0 -145.5 45t-81.5 127q-70 -76 -160 -124t-198 -48q-111 0 -163 66.5t-52 154.5z" />
<glyph unicode="x" horiz-adv-x="1114" d="M14 403q53 141 155.5 241.5t258.5 111.5q18 2 37.5 1t40.5 -3q68 -8 130 -42t93 -98q16 -39 35.5 -76.5t40.5 -74.5q6 -12 13 -24.5t13 -24.5q8 4 17.5 9t17.5 9q18 10 36 19.5t34 19.5q-59 16 -89 53t-32 78v4v4q0 57 45 105q43 45 117 45h6h23q12 0 24 -4 q29 -6 56.5 -18.5t43.5 -39.5q20 -33 29.5 -61.5t7.5 -54.5q0 -80 -66.5 -140.5t-144.5 -103.5q-18 -10 -35.5 -19.5t-33.5 -17.5q2 -4 4 -7t2 -7q2 -2 2 -3t2 -3q12 -29 30.5 -52.5t55.5 -21.5q57 4 99 47t71 96q10 14 17.5 28.5t13.5 29.5l98 -46q-55 -154 -166.5 -257 t-279.5 -111q-16 -2 -34 -1t-34 1q-74 6 -139.5 40t-96.5 105v-2q-10 23 -21 46.5t-22 47.5q-12 23 -23 46.5t-22 46.5q-27 -12 -52 -26.5t-52 -31.5q59 -16 87 -54t28 -79v-5v-5q-6 -53 -53 -96q-44 -41 -115 -41h-6h-23q-12 0 -25 4q-66 14 -101.5 57t-35.5 98 q0 14 3 29.5t10 32.5q6 14 14 29.5t20 29.5q25 31 64 60.5t80 54.5q29 16 55.5 29.5t48.5 23.5q0 2 -1 3t-1 3q-2 4 -3 7.5t-3 7.5q-10 29 -25.5 50t-50.5 21h-3h-4h-3q-66 -8 -111 -59t-69 -111z" />
<glyph unicode="y" horiz-adv-x="1052" d="M-80 -223q2 55 41 95t94 50q10 2 19.5 3t17.5 1q74 -2 119 -49t45 -104v-3v-3q0 -41 -25.5 -79t-80.5 -57q4 -2 9 -4t11 -2q4 -2 9 -2h9h5q105 0 166 83q62 85 102 190q18 51 33.5 100t27.5 88q-45 -35 -105.5 -61.5t-125.5 -36.5q-12 -2 -25.5 -3t-27.5 -1 q-51 0 -97.5 19t-79.5 69q-18 29 -26 62.5t-8 66.5t6 64.5t16 60.5q18 49 35.5 99t34.5 101q16 51 33.5 101.5t33.5 99.5h392q-20 -57 -40 -114.5t-40 -114.5t-40 -114.5t-38 -115.5q-2 -4 -4 -10t-2 -14q-2 -2 -2 -5v-8q0 -8 4 -15t12 -11q6 -2 12 -3t13 -1q59 0 112 85 t92 185q33 82 54.5 154.5t31.5 101.5h392l-74 -217l-74 -217q-39 -109 -76 -216.5t-73 -215.5q-47 -139 -187.5 -229.5t-296.5 -110.5q-20 -2 -39.5 -3t-38.5 -1q-63 0 -123.5 14t-111.5 45q-49 31 -76.5 72t-40.5 98q0 4 -1 8t-1 8q-2 4 -2 9v8z" />
<glyph unicode="z" horiz-adv-x="913" d="M-111 -250q2 88 70 160t162 72h15q7 0 16 -2q6 0 13 -2.5t15 -4.5q57 -16 84 -53t29 -78v-4v-4q0 -53 -37 -98q-35 -43 -93 -43h-5q-10 0 -21.5 1t-21.5 5q-33 8 -57.5 30.5t-34.5 53.5q0 -6 -1.5 -11t-1.5 -10q-2 -4 -2 -9v-11q0 -39 20.5 -67.5t67.5 -36.5 q6 -2 13.5 -3.5t15.5 -1.5q8 -2 16 -2h13q119 0 213 91.5t129 199.5q8 27 12 52.5t4 48.5q0 63 -30.5 111t-102.5 67q-6 2 -13 3t-14 1q-6 2 -13 2h-13q-14 0 -29 -2l-28 -4l-29 -8q-14 -4 -29 -11l-31 109q25 4 52.5 11t56.5 15q78 25 141.5 71t63.5 132q0 27 -12.5 46.5 t-38.5 27.5q-6 2 -11.5 3t-9.5 1q-4 2 -9 2h-11h-8h-5q-61 -8 -120.5 -59.5t-106.5 -110.5q-16 -23 -30.5 -43t-26.5 -39l-105 49q90 147 228 245q134 95 298 95h7q35 0 71.5 -5t75.5 -15q76 -20 136.5 -73.5t60.5 -131.5q0 -12 -2 -24.5t-6 -26.5q-25 -82 -90.5 -125 t-141.5 -66q121 -43 178.5 -127t57.5 -178q0 -12 -1 -24.5t-3 -24.5q-12 -78 -60.5 -151.5t-130.5 -129.5q-66 -43 -165 -75.5t-206 -42.5q-18 0 -35.5 -1t-33.5 -1q-84 0 -161 21.5t-130 68.5q-35 33 -51.5 69.5t-16.5 75.5z" />
<glyph unicode="{" />
<glyph unicode="|" />
<glyph unicode="}" />
<glyph unicode="~" />
<glyph unicode="&#xa1;" horiz-adv-x="845" d="M35 -242v-2q0 86 47 149.5t104 117.5q4 6 10.5 11t10.5 9q78 78 144.5 160t123.5 178h107q-4 -49 -7.5 -98.5t-5.5 -96.5q0 -49 2 -98t11 -96q0 -4 1 -7t1 -5q6 -35 9 -73t1 -97q-2 -104 -85 -170t-181 -78q-12 -2 -24.5 -3t-24.5 -1h-4h-3q-88 2 -162.5 51t-74.5 149z M354 618q4 63 52.5 97.5t107.5 44.5q18 4 36.5 6t35.5 2q14 0 28 -2l29 -4q63 -12 113.5 -53t46.5 -113q-2 -66 -51.5 -99.5t-108.5 -43.5q-14 -2 -29.5 -3t-29.5 -1q-16 0 -35 2t-35 6q-61 14 -112.5 54.5t-47.5 106.5z" />
<glyph unicode="&#xa2;" horiz-adv-x="1124" d="M51 346v13q0 7 2 14q0 6 1 13t1 13q25 156 154 243t280 108q23 2 46.5 4t46.5 2q29 0 54.5 -2t49.5 -6l84 129l107 -70l-68 -100q49 -29 75.5 -73t26.5 -99q0 -8 -1 -18.5t-3 -20.5q-10 -55 -53 -86t-94 -31q-25 0 -47.5 7t-44.5 22q-27 18 -41.5 43.5t-18.5 52.5v8v8 q0 43 27 81t78 52q-10 4 -21.5 6.5t-23.5 2.5q-39 0 -76 -24t-64 -52q-35 -37 -62.5 -98.5t-37.5 -127.5q-2 -14 -3 -28.5t-1 -28.5q2 -35 9 -67.5t26 -59.5q23 -37 61.5 -52t83.5 -15h13q7 0 16 2q43 4 83 17t68 30q68 37 111 95t76 124l102 -31q-4 -10 -8 -19.5t-8 -19.5 q-68 -162 -212.5 -241.5t-307.5 -77.5q-39 0 -79 4t-79 12l-103 -156l-104 66l86 133q-90 45 -149.5 122t-57.5 177z" />
<glyph unicode="&#xa3;" horiz-adv-x="1642" d="M74 182q0 76 67.5 110t147.5 38h11h11q47 0 88 -7.5t70 -21.5l78 223h-273l35 105h273q8 25 16 48t16 48t16.5 48.5t16.5 47.5q49 139 188.5 224t297.5 104q23 2 43 3t41 1q61 0 119.5 -11.5t109.5 -35.5q47 -23 73.5 -58.5t34.5 -76.5q0 -6 1 -13.5t1 -15.5 q0 -51 -36.5 -91t-110.5 -40q-8 0 -17.5 2t-19.5 4q-25 8 -44 23.5t-19 36.5q0 6 3 13t11 15q10 10 20.5 25.5t16.5 32.5q2 6 3 13t1 13q0 16 -8 30.5t-31 22.5q-8 4 -17.5 5.5t-19.5 1.5q-66 0 -112 -70t-76 -152q-23 -59 -38 -114.5t-24 -83.5h238l-37 -105h-235 q-2 -10 -5.5 -19t-7.5 -18q-27 -90 -62.5 -168.5t-111.5 -146.5q4 -2 7 -3t7 -3q41 -14 96.5 -26.5t112.5 -16.5q10 -2 21 -2h20q78 0 141.5 27.5t84.5 99.5q2 8 3 15t1 13q0 12 -3 23.5t-8 22.5q-6 14 -14 27t-18 30q29 8 55.5 13t50.5 5q23 0 44.5 -5t41.5 -17 q10 -6 21.5 -14.5t21.5 -18.5q23 -20 37 -41.5t21 -44.5q2 -10 4 -21.5t2 -21.5q0 -57 -41 -108.5t-105 -81.5q-57 -27 -121.5 -38.5t-132.5 -11.5q-20 0 -41.5 1t-42.5 3q-106 10 -208.5 40t-186.5 71q-20 -8 -40.5 -17.5t-41.5 -17.5q-59 -23 -120.5 -38t-125.5 -15 q-35 0 -70.5 5t-72.5 18q-2 0 -5 1t-5 3q-51 20 -92 59t-41 96zM182 160q2 -18 17.5 -28.5t33.5 -14.5q8 -2 17.5 -4t15.5 -2q61 -4 105.5 17.5t77.5 72.5q-4 2 -11 4l-12 4q-20 6 -49 12t-58 8h-11h-9q-39 0 -71.5 -12t-43.5 -43q0 -2 -1 -4l-1 -2v-4v-4z" />
<glyph unicode="&#xa4;" horiz-adv-x="1630" d="M-2 485l117 115h114q0 10 1 19.5t3 17.5q2 4 3.5 9t1.5 9h-170l116 115h88q78 186 260.5 299t385.5 143q37 6 73.5 9.5t73.5 3.5q178 0 331.5 -41t221.5 -195l-117 -115q-27 86 -103.5 144.5t-187.5 56.5q-31 0 -62.5 -5t-66.5 -15q-90 -27 -152.5 -107t-105.5 -170 q-2 -2 -3 -4t-1 -4h580l-82 -82l-33 -33h-514v-3q-2 -3 -2 -4v-3q-4 -8 -7 -20.5t-7 -24.5h514l-117 -115h-424q-2 -20 -4 -39.5t-2 -39.5q0 -76 29.5 -141.5t109.5 -94.5q14 -6 29.5 -9t30.5 -7q14 -2 29.5 -3t29.5 -1h9h9q92 4 180.5 48t153.5 109l86 -82 q-115 -119 -264 -172t-340 -53q-221 0 -392 131t-194 354h-229z" />
<glyph unicode="&#xa5;" horiz-adv-x="1867" d="M27 612q0 16 2 33l4 33l8 33q4 16 10 32q57 156 203.5 235t308.5 79h6h4q201 0 366 -116t155 -345q25 37 54.5 78t63.5 84q90 109 205 200t244 89q72 -2 125 -46.5t53 -103.5q0 -8 -1 -16.5t-3 -16.5q-6 -16 -17.5 -32.5t-29.5 -32.5q-8 -8 -19.5 -16.5t-21.5 -18.5 l-4 12l-4 12q-16 41 -38 61.5t-79 20.5q-18 0 -36.5 -3t-37.5 -9q-72 -23 -138.5 -77t-119.5 -115q-23 -25 -42 -48.5t-34 -46.5h189l-31 -92h-213q-14 -27 -28.5 -55.5t-26.5 -58.5h229l-30 -93h-230l-96 -272h-477l94 272h-211l33 93h207q10 31 15 59.5t7 54.5h-192l30 92 h170v25q0 12 -2 25q-4 47 -18.5 94t-40.5 88q-31 47 -74 71.5t-88 30.5q-8 2 -15 2h-16q-80 0 -141 -52t-61 -146v-9v-8q0 -4 1 -8t1 -8q10 -63 45 -84t80 -21q20 0 40.5 3.5t41.5 5.5q0 -2 -1.5 -3.5t-1.5 -3.5q-23 -63 -62.5 -115t-117.5 -55q-104 -2 -150 62.5t-46 146.5 z" />
<glyph unicode="&#xa6;" />
<glyph unicode="&#xa7;" />
<glyph unicode="&#xa8;" horiz-adv-x="831" d="M82 1391q0 49 40 74.5t89 27.5h5h5q29 0 54.5 -7t41.5 -22q18 -14 26.5 -32.5t8.5 -40.5q0 -49 -36.5 -74t-79.5 -29q-6 -2 -13 -2h-12q-51 0 -90 24t-39 81zM397 1391q0 53 44 77.5t96 24.5q29 0 53 -7t43 -22q16 -14 25.5 -32.5t9.5 -40.5q0 -51 -39 -76t-84 -29h-11 h-10q-51 0 -89 24t-38 81z" />
<glyph unicode="&#xa9;" />
<glyph unicode="&#xaa;" horiz-adv-x="813" d="M20 942q0 63 33 122.5t86 98.5q37 29 87 49.5t102 24.5q8 2 16 2h16q45 -2 86 -14.5t74 -40.5l12 43h137h132q-12 -37 -25.5 -75t-25.5 -77q-14 -39 -26.5 -76.5t-25.5 -74.5q0 -2 -1 -5.5t-3 -7.5q0 -4 -1 -8t-3 -8v-4v-4q0 -6 2 -10.5t6 -6.5t8 -2h7q8 0 15 3t15 8 q16 10 32 25.5t28 31.5t21.5 30.5t13.5 24.5q0 2 1 4l3 6q2 2 3 5.5t1 5.5l72 -31q-51 -106 -121 -180t-203 -74q-45 0 -87 19.5t-63 64.5q-39 -37 -88 -58.5t-102 -25.5h-9h-9h-9h-8q-43 4 -83 22.5t-68 55.5q-25 33 -36.5 67.5t-11.5 69.5zM258 858q0 -20 7 -33.5 t26 -13.5q41 0 71.5 33t53.5 74q10 18 18 37.5t15 33.5q16 41 25 74t9 55q0 16 -6 25.5t-22 9.5q-6 0 -13.5 -2t-15.5 -4q-27 -12 -52.5 -40t-45.5 -58q-14 -23 -26.5 -44.5t-18.5 -35.5q-2 -4 -5.5 -14.5l-7.5 -22.5q-2 -10 -4 -19.5t-4 -19.5q-2 -8 -3 -17.5t-1 -17.5z " />
<glyph unicode="&#xab;" horiz-adv-x="1085" d="M41 608l448 334l101 -143l-240 -191l107 -190l-197 -144zM514 608l451 334l98 -143l-236 -191l103 -190l-195 -144z" />
<glyph unicode="&#xac;" />
<glyph unicode="&#xad;" />
<glyph unicode="&#xae;" />
<glyph unicode="&#xaf;" horiz-adv-x="649" />
<glyph unicode="&#xb0;" />
<glyph unicode="&#xb1;" />
<glyph unicode="&#xb2;" />
<glyph unicode="&#xb3;" />
<glyph unicode="&#xb4;" horiz-adv-x="407" d="M29 1264q4 6 9 13t9 13q25 33 50.5 66t54.5 61q20 20 37.5 34.5t31.5 23.5q14 8 30.5 12t35.5 4h4h4q25 -2 46 -13.5t32 -33.5q4 -8 5 -15.5t1 -15.5q-2 -37 -24.5 -67.5t-51.5 -47.5q-18 -8 -42.5 -13t-53.5 -9q-29 -2 -58.5 -4t-60.5 -4q-14 -2 -29.5 -2t-29.5 -2z" />
<glyph unicode="&#xb5;" />
<glyph unicode="&#xb6;" />
<glyph unicode="&#xb7;" horiz-adv-x="649" />
<glyph unicode="&#xb8;" horiz-adv-x="679" d="M31 -289q6 8 12 17.5t12 17.5q4 8 11 16l12 17q49 -14 98 -22.5t100 -8.5q16 0 39 1t47 3q35 4 65 15.5t42 35.5v3q0 1 2 1v4v3v1q0 1 -2 1v2l-3 3l-3 3q-8 8 -23.5 12t-31.5 8q-31 6 -61 7.5t-60 -1.5q-23 0 -44.5 -2t-41.5 -4q-8 0 -17.5 -1t-17.5 -1q20 27 39.5 55.5 t40.5 57.5q18 27 37.5 54.5t40.5 56.5l94 -50q-4 -6 -8 -11t-9 -11q-2 -2 -4 -5t-4 -7q-6 -8 -12 -17.5t-12 -17.5q16 -2 34.5 -3t36.5 -3q16 -2 35 -5.5t35 -7.5q8 -2 18.5 -5t20.5 -5q37 -14 68.5 -39.5t31.5 -68.5v-5v-4q-2 -2 -2 -4v-4v-2q-8 -45 -46 -74.5t-83 -46.5 q-4 -2 -10 -3t-12 -3q-41 -10 -89.5 -13t-99.5 -3q-14 0 -29.5 1t-29.5 1q-47 4 -91 15t-85 30q-8 2 -19.5 7t-21.5 9z" />
<glyph unicode="&#xb9;" />
<glyph unicode="&#xba;" horiz-adv-x="792" d="M20 942q0 63 38 122.5t102 98.5q55 35 123.5 56.5t142.5 21.5q14 0 28.5 -1t28.5 -3q55 -6 106.5 -26.5t92.5 -55.5q37 -33 56.5 -76t19.5 -90q0 -8 -1 -16t-1 -15l-4 -16l-4 -16q18 2 32.5 10t26.5 22q8 10 16 23.5t19 30.5l76 -33l-20 -39q-11 -23 -26 -47 q-27 -45 -64.5 -83t-88.5 -38q-20 0 -37.5 6t-34.5 17q-55 -45 -129 -70t-149 -29h-12h-9q-70 0 -135.5 20.5t-114.5 65.5q-39 37 -58.5 78t-19.5 82zM303 874q0 -8 1 -20t3 -27q2 -23 12.5 -42t32.5 -19q35 0 59.5 23.5t43.5 52.5l8 16q4 8 8 14q-23 12 -33 36t-10 50v8v7 q6 39 31.5 73.5t64.5 45.5q-2 43 -15 62.5t-36 19.5q-20 0 -42.5 -14.5t-45.5 -41.5q-33 -39 -51.5 -85t-26.5 -95q-2 -16 -3 -32t-1 -32z" />
<glyph unicode="&#xbb;" horiz-adv-x="1085" d="M-4 418l235 190l-102 191l195 143l219 -334l-449 -334zM479 418l238 190l-105 191l197 143l219 -334l-448 -334z" />
<glyph unicode="&#xbc;" />
<glyph unicode="&#xbd;" />
<glyph unicode="&#xbe;" />
<glyph unicode="&#xbf;" horiz-adv-x="1386" d="M25 -141q0 4 1 8t1 8q0 6 1 10t1 9v-3q27 158 167 198t308 54q10 2 21.5 3t23.5 1q139 14 263 52.5t163 156.5l8 27h121q-2 -10 -3 -21.5t-3 -21.5q-14 -98 -89 -153.5t-167 -104.5q-4 -2 -9.5 -5t-11.5 -5q-20 -10 -43.5 -21.5t-48.5 -25.5q-68 -37 -125 -92.5 t-57 -135.5q0 -61 45 -92t98 -41q14 -2 27.5 -3t25.5 -1q16 0 33 2t35 4q57 12 110.5 47t73.5 90q4 10 6.5 19.5t2.5 19.5q-2 27 -20.5 43.5t-45.5 30.5q-6 4 -12 7t-13 7l10 10q5 5 11 9q37 31 78 53.5t96 26.5h19h20q72 -8 133 -57.5t61 -129.5q0 -14 -3 -29.5t-9 -31.5 q-33 -82 -182.5 -151.5t-489.5 -69.5q-68 0 -130 5t-117 13q-31 6 -68 14.5t-74 20.5q-90 33 -166.5 92.5t-76.5 153.5zM858 618q4 76 72.5 113t150.5 37q88 -2 160 -45t68 -127q-4 -68 -56.5 -101.5t-113.5 -41.5q-14 -2 -27.5 -3t-26.5 -1q-16 0 -35.5 3t-39.5 7 q-57 16 -106.5 56t-45.5 103z" />
<glyph unicode="&#xc0;" horiz-adv-x="1726" d="M20 244v7q0 3 3 5v7v5h1h3q6 0 15 1t21.5 3t21.5 3t15 1q2 -35 29 -53t59 -24q8 0 16.5 -1t16.5 -1q66 0 120 29.5t99 70.5q152 141 280 303t251 328q6 8 13 18t13 19q-2 43 -28.5 72.5t-67.5 43.5q-16 6 -34.5 9.5t-39.5 1.5q-14 0 -29.5 -2.5t-31.5 -4.5 q-94 -20 -175 -88.5t-91 -158.5v-5v-8q-2 -2 -2 -5v-5q2 -70 51 -95.5t106 -33.5l25 -4q12 -2 25 -2q2 -2 5 -2h5q-6 -4 -12.5 -9t-12.5 -12q-49 -43 -103.5 -78.5t-125.5 -37.5q-98 -2 -148.5 65.5t-50.5 153.5q0 23 4 46t13 46q49 143 182 221t282 109q66 14 129.5 20 t120.5 6q238 0 379 -115.5t158 -359.5q2 -18 2 -37.5t2 -38.5q0 -20 1 -42.5t3 -45.5q4 -68 12.5 -135t26.5 -133q8 -29 23.5 -41t33.5 -12q8 0 16.5 3t16.5 5q6 4 14.5 9t16.5 11q33 25 61.5 67t42.5 99l105 -14q-12 -158 -146.5 -280.5t-292.5 -143.5q-12 0 -25 -1t-26 -1 q-53 0 -103 15.5t-97 48.5q-74 55 -95.5 130.5t-31.5 157.5q-2 6 -3.5 13.5t-1.5 13.5h-344q-23 -31 -49 -64.5t-57 -68.5q-78 -92 -177.5 -168t-205.5 -76h-7h-7q-4 0 -7.5 1t-7.5 1q-96 10 -149.5 80t-53.5 158zM772 1401q0 8 2 15t4 16q10 25 36 36t52 11q18 0 35 -4.5 t29 -12.5q16 -8 32.5 -22.5t36.5 -34.5q29 -29 54.5 -61.5t50.5 -65.5l9 -13.5l9 -13.5q-14 2 -29.5 2t-29.5 2q-29 2 -58.5 4.5t-60.5 4.5q-27 4 -52.5 9t-43.5 13q-29 16 -52.5 48t-23.5 67zM836 514h227q-6 39 -11 78l-10 78q-6 37 -10 75l-8 78q-39 -68 -87 -146.5 t-101 -162.5z" />
<glyph unicode="&#xc1;" horiz-adv-x="1726" d="M20 244v7q0 3 3 5v7v5h1h3q6 0 15 1t21.5 3t21.5 3t15 1q2 -35 29 -53t59 -24q8 0 16.5 -1t16.5 -1q66 0 120 29.5t99 70.5q152 141 280 303t251 328q6 8 13 18t13 19q-2 43 -28.5 72.5t-67.5 43.5q-16 6 -34.5 9.5t-39.5 1.5q-14 0 -29.5 -2.5t-31.5 -4.5 q-94 -20 -175 -88.5t-91 -158.5v-5v-8q-2 -2 -2 -5v-5q2 -70 51 -95.5t106 -33.5l25 -4q12 -2 25 -2q2 -2 5 -2h5q-6 -4 -12.5 -9t-12.5 -12q-49 -43 -103.5 -78.5t-125.5 -37.5q-98 -2 -148.5 65.5t-50.5 153.5q0 23 4 46t13 46q49 143 182 221t282 109q66 14 129.5 20 t120.5 6q238 0 379 -115.5t158 -359.5q2 -18 2 -37.5t2 -38.5q0 -20 1 -42.5t3 -45.5q4 -68 12.5 -135t26.5 -133q8 -29 23.5 -41t33.5 -12q8 0 16.5 3t16.5 5q6 4 14.5 9t16.5 11q33 25 61.5 67t42.5 99l105 -14q-12 -158 -146.5 -280.5t-292.5 -143.5q-12 0 -25 -1t-26 -1 q-53 0 -103 15.5t-97 48.5q-74 55 -95.5 130.5t-31.5 157.5q-2 6 -3.5 13.5t-1.5 13.5h-344q-23 -31 -49 -64.5t-57 -68.5q-78 -92 -177.5 -168t-205.5 -76h-7h-7q-4 0 -7.5 1t-7.5 1q-96 10 -149.5 80t-53.5 158zM836 514h227q-6 39 -11 78l-10 78q-6 37 -10 75l-8 78 q-39 -68 -87 -146.5t-101 -162.5zM973 1245l9 13.5l9 13.5q25 33 50.5 65.5t54.5 61.5q20 20 37.5 34.5t31.5 22.5t30.5 12.5t35.5 4.5h4h4q25 -2 46.5 -13.5t31.5 -34.5q4 -8 5 -15t1 -15q-2 -37 -24.5 -68t-51.5 -47q-18 -8 -42.5 -13t-53.5 -10q-29 -2 -59.5 -4t-59.5 -4 q-14 -2 -29.5 -2t-29.5 -2z" />
<glyph unicode="&#xc2;" horiz-adv-x="1726" d="M20 244v7q0 3 3 5v7v5h1h3q6 0 15 1t21.5 3t21.5 3t15 1q2 -35 29 -53t59 -24q8 0 16.5 -1t16.5 -1q66 0 120 29.5t99 70.5q152 141 280 303t251 328q6 8 13 18t13 19q-2 43 -28.5 72.5t-67.5 43.5q-16 6 -34.5 9.5t-39.5 1.5q-14 0 -29.5 -2.5t-31.5 -4.5 q-94 -20 -175 -88.5t-91 -158.5v-5v-8q-2 -2 -2 -5v-5q2 -70 51 -95.5t106 -33.5l25 -4q12 -2 25 -2q2 -2 5 -2h5q-6 -4 -12.5 -9t-12.5 -12q-49 -43 -103.5 -78.5t-125.5 -37.5q-98 -2 -148.5 65.5t-50.5 153.5q0 23 4 46t13 46q49 143 182 221t282 109q66 14 129.5 20 t120.5 6q238 0 379 -115.5t158 -359.5q2 -18 2 -37.5t2 -38.5q0 -20 1 -42.5t3 -45.5q4 -68 12.5 -135t26.5 -133q8 -29 23.5 -41t33.5 -12q8 0 16.5 3t16.5 5q6 4 14.5 9t16.5 11q33 25 61.5 67t42.5 99l105 -14q-12 -158 -146.5 -280.5t-292.5 -143.5q-12 0 -25 -1t-26 -1 q-53 0 -103 15.5t-97 48.5q-74 55 -95.5 130.5t-31.5 157.5q-2 6 -3.5 13.5t-1.5 13.5h-344q-23 -31 -49 -64.5t-57 -68.5q-78 -92 -177.5 -168t-205.5 -76h-7h-7q-4 0 -7.5 1t-7.5 1q-96 10 -149.5 80t-53.5 158zM643 1204l461 303l248 -317l-310 106zM836 514h227 q-6 39 -11 78l-10 78q-6 37 -10 75l-8 78q-39 -68 -87 -146.5t-101 -162.5z" />
<glyph unicode="&#xc3;" horiz-adv-x="1726" d="M20 244v7q0 3 3 5v7v5h1h3q6 0 15 1t21.5 3t21.5 3t15 1q2 -35 29 -53t59 -24q8 0 16.5 -1t16.5 -1q66 0 120 29.5t99 70.5q152 141 280 303t251 328q6 8 13 18t13 19q-2 43 -28.5 72.5t-67.5 43.5q-16 6 -34.5 9.5t-39.5 1.5q-14 0 -29.5 -2.5t-31.5 -4.5 q-94 -20 -175 -88.5t-91 -158.5v-5v-8q-2 -2 -2 -5v-5q2 -70 51 -95.5t106 -33.5l25 -4q12 -2 25 -2q2 -2 5 -2h5q-6 -4 -12.5 -9t-12.5 -12q-49 -43 -103.5 -78.5t-125.5 -37.5q-98 -2 -148.5 65.5t-50.5 153.5q0 23 4 46t13 46q49 143 182 221t282 109q66 14 129.5 20 t120.5 6q238 0 379 -115.5t158 -359.5q2 -18 2 -37.5t2 -38.5q0 -20 1 -42.5t3 -45.5q4 -68 12.5 -135t26.5 -133q8 -29 23.5 -41t33.5 -12q8 0 16.5 3t16.5 5q6 4 14.5 9t16.5 11q33 25 61.5 67t42.5 99l105 -14q-12 -158 -146.5 -280.5t-292.5 -143.5q-12 0 -25 -1t-26 -1 q-53 0 -103 15.5t-97 48.5q-74 55 -95.5 130.5t-31.5 157.5q-2 6 -3.5 13.5t-1.5 13.5h-344q-23 -31 -49 -64.5t-57 -68.5q-78 -92 -177.5 -168t-205.5 -76h-7h-7q-4 0 -7.5 1t-7.5 1q-96 10 -149.5 80t-53.5 158zM721 1268q45 92 124 138t187 46q35 0 77 -8t89 -25 q6 -2 13.5 -4t13.5 -4q18 -4 37.5 -9t40.5 -7q12 -2 23 -3t24 -1q16 0 30.5 2t28.5 8q12 6 27.5 13t36.5 16q-8 -33 -35 -66t-74 -61q-45 -31 -93 -45.5t-102 -14.5q-33 0 -74.5 9.5t-93.5 25.5q-8 2 -16 5t-16 5q-18 6 -38 11.5t-40 9.5q-12 2 -23.5 3t-21.5 1 q-12 0 -24.5 -2t-24.5 -6q-10 -2 -28.5 -11.5t-47.5 -25.5zM836 514h227q-6 39 -11 78l-10 78q-6 37 -10 75l-8 78q-39 -68 -87 -146.5t-101 -162.5z" />
<glyph unicode="&#xc4;" horiz-adv-x="1726" d="M20 244v7q0 3 3 5v7v5h1h3q6 0 15 1t21.5 3t21.5 3t15 1q2 -35 29 -53t59 -24q8 0 16.5 -1t16.5 -1q66 0 120 29.5t99 70.5q152 141 280 303t251 328q6 8 13 18t13 19q-2 43 -28.5 72.5t-67.5 43.5q-16 6 -34.5 9.5t-39.5 1.5q-14 0 -29.5 -2.5t-31.5 -4.5 q-94 -20 -175 -88.5t-91 -158.5v-5v-8q-2 -2 -2 -5v-5q2 -70 51 -95.5t106 -33.5l25 -4q12 -2 25 -2q2 -2 5 -2h5q-6 -4 -12.5 -9t-12.5 -12q-49 -43 -103.5 -78.5t-125.5 -37.5q-98 -2 -148.5 65.5t-50.5 153.5q0 23 4 46t13 46q49 143 182 221t282 109q66 14 129.5 20 t120.5 6q238 0 379 -115.5t158 -359.5q2 -18 2 -37.5t2 -38.5q0 -20 1 -42.5t3 -45.5q4 -68 12.5 -135t26.5 -133q8 -29 23.5 -41t33.5 -12q8 0 16.5 3t16.5 5q6 4 14.5 9t16.5 11q33 25 61.5 67t42.5 99l105 -14q-12 -158 -146.5 -280.5t-292.5 -143.5q-12 0 -25 -1t-26 -1 q-53 0 -103 15.5t-97 48.5q-74 55 -95.5 130.5t-31.5 157.5q-2 6 -3.5 13.5t-1.5 13.5h-344q-23 -31 -49 -64.5t-57 -68.5q-78 -92 -177.5 -168t-205.5 -76h-7h-7q-4 0 -7.5 1t-7.5 1q-96 10 -149.5 80t-53.5 158zM782 1362q0 49 40 74.5t89 27.5h5h6q29 0 54 -7t42 -21 q18 -14 26.5 -33t8.5 -41q0 -49 -37 -73.5t-80 -28.5q-6 -2 -12 -3h-13q-51 0 -90 24t-39 81zM836 514h227q-6 39 -11 78l-10 78q-6 37 -10 75l-8 78q-39 -68 -87 -146.5t-101 -162.5zM1098 1362q0 53 44 77.5t95 24.5q29 0 53.5 -7t42.5 -21q16 -14 25.5 -33t9.5 -41 q0 -51 -39 -75.5t-84 -29.5h-11h-9q-51 0 -89 24t-38 81z" />
<glyph unicode="&#xc5;" horiz-adv-x="1726" d="M20 244v7q0 3 3 5v7v5h1h3q6 0 15 1t21.5 3t21.5 3t15 1q2 -35 29 -53t59 -24q8 0 16.5 -1t16.5 -1q66 0 120 29.5t99 70.5q152 141 280 303t251 328q6 8 13 18t13 19q-2 43 -28.5 72.5t-67.5 43.5q-16 6 -34.5 9.5t-39.5 1.5q-14 0 -29.5 -2.5t-31.5 -4.5 q-94 -20 -175 -88.5t-91 -158.5v-5v-8q-2 -2 -2 -5v-5q2 -70 51 -95.5t106 -33.5l25 -4q12 -2 25 -2q2 -2 5 -2h5q-6 -4 -12.5 -9t-12.5 -12q-49 -43 -103.5 -78.5t-125.5 -37.5q-98 -2 -148.5 65.5t-50.5 153.5q0 23 4 46t13 46q49 143 182 221t282 109q66 14 129.5 20 t120.5 6q238 0 379 -115.5t158 -359.5q2 -18 2 -37.5t2 -38.5q0 -20 1 -42.5t3 -45.5q4 -68 12.5 -135t26.5 -133q8 -29 23.5 -41t33.5 -12q8 0 16.5 3t16.5 5q6 4 14.5 9t16.5 11q33 25 61.5 67t42.5 99l105 -14q-12 -158 -146.5 -280.5t-292.5 -143.5q-12 0 -25 -1t-26 -1 q-53 0 -103 15.5t-97 48.5q-74 55 -95.5 130.5t-31.5 157.5q-2 6 -3.5 13.5t-1.5 13.5h-344q-23 -31 -49 -64.5t-57 -68.5q-78 -92 -177.5 -168t-205.5 -76h-7h-7q-4 0 -7.5 1t-7.5 1q-96 10 -149.5 80t-53.5 158zM836 514h227q-6 39 -11 78l-10 78q-6 37 -10 75l-8 78 q-39 -68 -87 -146.5t-101 -162.5zM987 1401q0 68 48 115t116 47q66 0 114 -47.5t48 -114.5q0 -66 -48 -115t-114 -49q-68 0 -116 49t-48 115zM1073 1401q0 -33 22.5 -55.5t55.5 -22.5t55.5 22.5t22.5 55.5t-22.5 55.5t-55.5 22.5t-55.5 -22.5t-22.5 -55.5z" />
<glyph unicode="&#xc6;" horiz-adv-x="2109" d="M27 176v9q0 5 2 12q2 31 16 59.5t39 52.5q6 -63 39 -88.5t78 -25.5q18 0 37.5 4t37.5 10q33 8 64 22.5t57 30.5q14 8 28.5 17.5t25.5 17.5q166 135 316.5 289.5t293.5 312.5q16 18 31.5 34.5t29.5 33.5v4q0 2 2 6v4v4q0 57 -38.5 78.5t-92.5 21.5q-14 0 -28.5 -1 t-28.5 -3q-37 -6 -72 -16t-61 -21q-10 -4 -18.5 -8t-14.5 -8q-14 -8 -31.5 -21.5t-36.5 -29.5q-35 -31 -64.5 -71t-39.5 -81q-2 -8 -3 -16t-1 -16t2 -19.5t6 -21.5q18 -41 58 -56.5t83 -25.5q2 0 4.5 -1t4.5 -1l-14 -14l-13 -13q-33 -27 -75 -51.5t-85 -38.5 q-18 -4 -35.5 -7t-33.5 -3q-33 0 -60.5 12t-50.5 41q-20 29 -29.5 57.5t-9.5 59.5v13q0 7 2 13q6 68 45 132.5t84 107.5l3 3l3 3q90 84 232.5 143.5t296.5 79.5q33 4 65.5 6t65.5 2q90 0 173 -19t148 -60q68 39 171.5 63.5t215.5 28.5h14h13q121 0 228.5 -31t162.5 -102 q12 -16 19.5 -35t11.5 -37q0 -6 1 -12t1 -13q0 -29 -13.5 -56.5t-41.5 -47.5q-23 -14 -47.5 -21.5t-49.5 -7.5q-10 0 -21 1t-22 3q-33 6 -64.5 18.5t-62.5 26.5q6 4 12.5 9.5t12.5 11.5q23 16 41 37.5t18 50.5q0 4 -1 10t-3 12q-10 33 -40.5 46.5t-67.5 13.5h-12q-5 0 -9 -2 q-41 -4 -76.5 -15.5t-58.5 -25.5q-43 -29 -70.5 -77t-27.5 -103q-2 -47 22.5 -85t77.5 -38h63h62h63h62l-37 -113l-176 2q-14 -2 -29.5 -4t-29.5 -4q-102 -23 -186.5 -92.5t-84.5 -181.5q0 -106 79 -156.5t173 -50.5q147 0 265 78.5t173 214.5l111 -54q-100 -233 -274 -321 t-416 -88h-28q-13 0 -25 2q-178 6 -324.5 85t-130.5 304v16v17h-313q-29 -33 -74 -81t-100 -100q-51 -49 -110.5 -95t-119.5 -79q-47 -27 -93 -42t-89 -15q-31 0 -58.5 9t-54.5 28q-35 27 -52 63.5t-17 75.5zM885 514h227q0 39 1 77t3 77q2 37 4 74.5t4 76.5 q-20 -25 -39.5 -50.5t-40.5 -51.5q-39 -51 -78.5 -101.5t-80.5 -101.5z" />
<glyph unicode="&#xc7;" horiz-adv-x="1153" d="M25 541q0 164 85 301t218 225q109 76 248 117t288 41q25 0 48.5 -1t48.5 -3q84 -6 164.5 -30t144.5 -81q33 -29 47 -64.5t14 -72.5q0 -76 -55 -138.5t-143 -64.5q-51 -2 -90 17.5t-74 48.5q-8 6 -16.5 13t-16.5 15q6 2 11 5t11 5q41 23 72 48.5t49 74.5q4 8 5 15.5 t1 15.5q0 35 -28.5 53.5t-69.5 18.5q-111 0 -196.5 -88t-145.5 -195q-25 -45 -44 -90t-34 -82q-16 -45 -30.5 -102.5t-16.5 -114.5v-11v-11q0 -76 30 -141.5t109 -94.5q29 -10 59 -15t60 -5h16q7 0 13 2q127 8 241.5 89t170.5 187q2 4 4 7t4 7q2 2 4 7l4 8l78 -29l41 -16 q-125 -223 -306.5 -317.5t-435.5 -94.5q-231 0 -409 146.5t-178 394.5zM305 -289q6 8 12.5 17.5t12.5 17.5q4 8 10 16l12 17q49 -14 98.5 -22.5t100.5 -8.5q16 0 38.5 1t47.5 3q35 4 64.5 15.5t41.5 35.5v3q0 1 2 1v4v3v1q0 1 -2 1v2l-3 3l-3 3q-8 8 -23.5 12t-31.5 8 q-31 6 -60.5 7.5t-60.5 -1.5q-23 0 -44 -2l-42 -4q-8 0 -17 -1t-18 -1q20 27 40 55.5t40 57.5q18 27 38 54.5t40 56.5l94 -50q-4 -6 -8 -11t-8 -11q-2 -2 -4 -5t-4 -7q-6 -8 -12.5 -17.5t-12.5 -17.5q16 -2 34.5 -3t37.5 -3q16 -2 34.5 -5.5t34.5 -7.5q8 -2 18.5 -5t20.5 -5 q37 -14 69 -39.5t32 -68.5v-5v-4q-2 -2 -2 -4v-4v-2q-8 -45 -46 -74.5t-83 -46.5q-4 -2 -10.5 -3t-12.5 -3q-41 -10 -89 -13t-99 -3q-14 0 -29.5 1t-30.5 1q-47 4 -91 15t-85 30q-8 2 -19.5 7t-21.5 9z" />
<glyph unicode="&#xc8;" horiz-adv-x="1159" d="M20 365q0 139 108 229t237 121q31 6 60.5 10t57.5 4q-51 31 -83.5 79t-32.5 107q0 10 1 19.5t3 19.5q27 115 127 172.5t215 79.5q55 12 109.5 16.5t99.5 4.5q35 0 85 -5t103 -18q92 -20 167 -67t75 -133v-8v-9q-8 -66 -54.5 -93.5t-103.5 -25.5h-13q-7 0 -16 2 q-20 2 -40.5 7.5t-39.5 13.5l-33 15q-11 5 -16 9q-4 4 7.5 12.5t35.5 26.5q20 16 29.5 34t7.5 32q0 35 -34.5 60.5t-82.5 25.5q-96 0 -172.5 -60.5t-78.5 -162.5q-2 -84 59 -105.5t133 -21.5h27h26q12 2 26 2h25h28h26l-37 -109h-26h-27q-63 2 -124 -1t-120 -25 q-23 -6 -43.5 -17.5t-42.5 -25.5q-51 -37 -82 -85.5t-37 -99.5q-2 -8 -2 -15v-15q0 -70 45 -126.5t137 -72.5q20 -2 40 -5t38 -3q139 0 259 84t171 211l109 -54q-100 -233 -274.5 -321t-415.5 -88q-53 0 -119 5t-133 21q-147 33 -270.5 115t-123.5 234zM655 1407q0 8 2 15.5 t5 15.5q10 25 35.5 36t52.5 11q18 0 34.5 -4t28.5 -13q16 -8 32.5 -22t37.5 -35q29 -29 54.5 -61.5t49.5 -65.5q4 -6 9 -13l10 -14q-14 2 -29.5 2.5t-30.5 2.5q-31 2 -59.5 4t-59.5 4q-27 4 -52 9t-44 13q-29 16 -52.5 48t-23.5 67z" />
<glyph unicode="&#xc9;" horiz-adv-x="1159" d="M20 365q0 139 108 229t237 121q31 6 60.5 10t57.5 4q-51 31 -83.5 79t-32.5 107q0 10 1 19.5t3 19.5q27 115 127 172.5t215 79.5q55 12 109.5 16.5t99.5 4.5q35 0 85 -5t103 -18q92 -20 167 -67t75 -133v-8v-9q-8 -66 -54.5 -93.5t-103.5 -25.5h-13q-7 0 -16 2 q-20 2 -40.5 7.5t-39.5 13.5l-33 15q-11 5 -16 9q-4 4 7.5 12.5t35.5 26.5q20 16 29.5 34t7.5 32q0 35 -34.5 60.5t-82.5 25.5q-96 0 -172.5 -60.5t-78.5 -162.5q-2 -84 59 -105.5t133 -21.5h27h26q12 2 26 2h25h28h26l-37 -109h-26h-27q-63 2 -124 -1t-120 -25 q-23 -6 -43.5 -17.5t-42.5 -25.5q-51 -37 -82 -85.5t-37 -99.5q-2 -8 -2 -15v-15q0 -70 45 -126.5t137 -72.5q20 -2 40 -5t38 -3q139 0 259 84t171 211l109 -54q-100 -233 -274.5 -321t-415.5 -88q-53 0 -119 5t-133 21q-147 33 -270.5 115t-123.5 234zM856 1264q4 6 9 13 t9 13q25 33 50.5 66t54.5 61q20 20 37.5 34.5t32.5 23.5q14 8 30.5 12t34.5 4h4h4q25 -2 46.5 -13.5t31.5 -33.5q4 -8 5 -15.5t1 -15.5q-2 -37 -24.5 -67.5t-51.5 -47.5q-18 -8 -42.5 -13t-53.5 -9q-29 -2 -58.5 -4t-60.5 -4q-14 -2 -29.5 -2t-29.5 -2z" />
<glyph unicode="&#xca;" horiz-adv-x="1159" d="M20 365q0 139 108 229t237 121q31 6 60.5 10t57.5 4q-51 31 -83.5 79t-32.5 107q0 10 1 19.5t3 19.5q27 115 127 172.5t215 79.5q55 12 109.5 16.5t99.5 4.5q35 0 85 -5t103 -18q92 -20 167 -67t75 -133v-8v-9q-8 -66 -54.5 -93.5t-103.5 -25.5h-13q-7 0 -16 2 q-20 2 -40.5 7.5t-39.5 13.5l-33 15q-11 5 -16 9q-4 4 7.5 12.5t35.5 26.5q20 16 29.5 34t7.5 32q0 35 -34.5 60.5t-82.5 25.5q-96 0 -172.5 -60.5t-78.5 -162.5q-2 -84 59 -105.5t133 -21.5h27h26q12 2 26 2h25h28h26l-37 -109h-26h-27q-63 2 -124 -1t-120 -25 q-23 -6 -43.5 -17.5t-42.5 -25.5q-51 -37 -82 -85.5t-37 -99.5q-2 -8 -2 -15v-15q0 -70 45 -126.5t137 -72.5q20 -2 40 -5t38 -3q139 0 259 84t171 211l109 -54q-100 -233 -274.5 -321t-415.5 -88q-53 0 -119 5t-133 21q-147 33 -270.5 115t-123.5 234zM571 1239l461 303 l248 -317l-309 106z" />
<glyph unicode="&#xcb;" horiz-adv-x="1159" d="M20 365q0 139 108 229t237 121q31 6 60.5 10t57.5 4q-51 31 -83.5 79t-32.5 107q0 10 1 19.5t3 19.5q27 115 127 172.5t215 79.5q55 12 109.5 16.5t99.5 4.5q35 0 85 -5t103 -18q92 -20 167 -67t75 -133v-8v-9q-8 -66 -54.5 -93.5t-103.5 -25.5h-13q-7 0 -16 2 q-20 2 -40.5 7.5t-39.5 13.5l-33 15q-11 5 -16 9q-4 4 7.5 12.5t35.5 26.5q20 16 29.5 34t7.5 32q0 35 -34.5 60.5t-82.5 25.5q-96 0 -172.5 -60.5t-78.5 -162.5q-2 -84 59 -105.5t133 -21.5h27h26q12 2 26 2h25h28h26l-37 -109h-26h-27q-63 2 -124 -1t-120 -25 q-23 -6 -43.5 -17.5t-42.5 -25.5q-51 -37 -82 -85.5t-37 -99.5q-2 -8 -2 -15v-15q0 -70 45 -126.5t137 -72.5q20 -2 40 -5t38 -3q139 0 259 84t171 211l109 -54q-100 -233 -274.5 -321t-415.5 -88q-53 0 -119 5t-133 21q-147 33 -270.5 115t-123.5 234zM659 1372q0 49 40 75 t89 28h6h5q29 0 54.5 -7.5t41.5 -21.5q18 -14 26.5 -32.5t8.5 -41.5q0 -49 -37 -73.5t-80 -28.5q-6 -2 -12 -2h-13q-51 0 -90 23.5t-39 80.5zM975 1372q0 53 44 78t95 25q29 0 53.5 -7.5t42.5 -21.5q16 -14 25.5 -32.5t9.5 -41.5q0 -51 -39 -75.5t-84 -28.5h-11h-9 q-51 0 -89 23.5t-38 80.5z" />
<glyph unicode="&#xcc;" horiz-adv-x="1298" d="M16 260q0 23 5.5 46.5t13.5 49.5q18 53 67.5 85t106.5 32h4h4h8h11q27 -4 51 -13t45 -30q16 -14 22 -19t6 -10q0 -4 -7 -10t-23 -16q-27 -23 -44.5 -53.5t-23.5 -61.5q0 -8 -1 -14t-1 -13q0 -37 19.5 -68.5t62.5 -47.5q18 -6 36.5 -9.5t35.5 -3.5q96 0 173 72t122 156 q10 20 19 40.5t15 39.5q29 78 54.5 154.5t52.5 152.5q14 39 27.5 78t25.5 77q2 6 4 11.5t4 11.5q4 16 9.5 34.5t7.5 39.5q2 10 3 20t1 21q0 35 -16.5 59.5t-61.5 24.5q-98 0 -181 -86t-100 -191q-2 -12 -3 -23.5t-1 -21.5q0 -20 3 -39.5t12 -38.5q18 -45 50 -60t71 -26 q6 -2 13 -3t13 -3q-6 -6 -11 -12t-9 -12q-39 -41 -82 -71t-109 -32q-106 -2 -157.5 75t-51.5 171q0 35 6.5 66.5t18.5 60.5q84 205 283.5 287t422.5 86h16h13q127 0 247 -18.5t216 -47.5q-31 -88 -61 -178l-62 -180q-31 -90 -61.5 -179.5t-61.5 -179.5q-63 -178 -226 -283.5 t-347 -140.5q-45 -8 -90 -12t-88 -4t-93.5 3t-103.5 11q-121 18 -222.5 72.5t-101.5 173.5zM901 1407q0 8 2 15.5t4 15.5q10 25 36 36t52 11q18 0 35 -4t29 -13q16 -8 32.5 -22t36.5 -35q29 -29 54.5 -61.5t50.5 -65.5q4 -6 9 -13t9 -14q-14 2 -29.5 2.5t-29.5 2.5 q-29 2 -58.5 4t-60.5 4q-27 4 -52.5 9t-43.5 13q-29 16 -52.5 48t-23.5 67z" />
<glyph unicode="&#xcd;" horiz-adv-x="1298" d="M16 260q0 23 5.5 46.5t13.5 49.5q18 53 67.5 85t106.5 32h4h4h8h11q27 -4 51 -13t45 -30q16 -14 22 -19t6 -10q0 -4 -7 -10t-23 -16q-27 -23 -44.5 -53.5t-23.5 -61.5q0 -8 -1 -14t-1 -13q0 -37 19.5 -68.5t62.5 -47.5q18 -6 36.5 -9.5t35.5 -3.5q96 0 173 72t122 156 q10 20 19 40.5t15 39.5q29 78 54.5 154.5t52.5 152.5q14 39 27.5 78t25.5 77q2 6 4 11.5t4 11.5q4 16 9.5 34.5t7.5 39.5q2 10 3 20t1 21q0 35 -16.5 59.5t-61.5 24.5q-98 0 -181 -86t-100 -191q-2 -12 -3 -23.5t-1 -21.5q0 -20 3 -39.5t12 -38.5q18 -45 50 -60t71 -26 q6 -2 13 -3t13 -3q-6 -6 -11 -12t-9 -12q-39 -41 -82 -71t-109 -32q-106 -2 -157.5 75t-51.5 171q0 35 6.5 66.5t18.5 60.5q84 205 283.5 287t422.5 86h16h13q127 0 247 -18.5t216 -47.5q-31 -88 -61 -178l-62 -180q-31 -90 -61.5 -179.5t-61.5 -179.5q-63 -178 -226 -283.5 t-347 -140.5q-45 -8 -90 -12t-88 -4t-93.5 3t-103.5 11q-121 18 -222.5 72.5t-101.5 173.5zM1114 1251l9 13.5t10 13.5q25 33 50 65.5t54 61.5q20 20 37.5 34.5t32.5 22.5q14 8 30.5 12.5t34.5 4.5h4h4q25 -2 46.5 -13.5t31.5 -33.5q4 -8 5 -15.5t1 -15.5 q-2 -37 -24.5 -67.5t-50.5 -47.5q-18 -8 -43 -13t-54 -9q-29 -2 -59.5 -4.5t-58.5 -4.5q-14 -2 -30 -2t-30 -2z" />
<glyph unicode="&#xce;" horiz-adv-x="1298" d="M16 260q0 23 5.5 46.5t13.5 49.5q18 53 67.5 85t106.5 32h4h4h8h11q27 -4 51 -13t45 -30q16 -14 22 -19t6 -10q0 -4 -7 -10t-23 -16q-27 -23 -44.5 -53.5t-23.5 -61.5q0 -8 -1 -14t-1 -13q0 -37 19.5 -68.5t62.5 -47.5q18 -6 36.5 -9.5t35.5 -3.5q96 0 173 72t122 156 q10 20 19 40.5t15 39.5q29 78 54.5 154.5t52.5 152.5q14 39 27.5 78t25.5 77q2 6 4 11.5t4 11.5q4 16 9.5 34.5t7.5 39.5q2 10 3 20t1 21q0 35 -16.5 59.5t-61.5 24.5q-98 0 -181 -86t-100 -191q-2 -12 -3 -23.5t-1 -21.5q0 -20 3 -39.5t12 -38.5q18 -45 50 -60t71 -26 q6 -2 13 -3t13 -3q-6 -6 -11 -12t-9 -12q-39 -41 -82 -71t-109 -32q-106 -2 -157.5 75t-51.5 171q0 35 6.5 66.5t18.5 60.5q84 205 283.5 287t422.5 86h16h13q127 0 247 -18.5t216 -47.5q-31 -88 -61 -178l-62 -180q-31 -90 -61.5 -179.5t-61.5 -179.5q-63 -178 -226 -283.5 t-347 -140.5q-45 -8 -90 -12t-88 -4t-93.5 3t-103.5 11q-121 18 -222.5 72.5t-101.5 173.5zM760 1239l461 303l247 -317l-309 106z" />
<glyph unicode="&#xcf;" horiz-adv-x="1298" d="M16 260q0 23 5.5 46.5t13.5 49.5q18 53 67.5 85t106.5 32h4h4h8h11q27 -4 51 -13t45 -30q16 -14 22 -19t6 -10q0 -4 -7 -10t-23 -16q-27 -23 -44.5 -53.5t-23.5 -61.5q0 -8 -1 -14t-1 -13q0 -37 19.5 -68.5t62.5 -47.5q18 -6 36.5 -9.5t35.5 -3.5q96 0 173 72t122 156 q10 20 19 40.5t15 39.5q29 78 54.5 154.5t52.5 152.5q14 39 27.5 78t25.5 77q2 6 4 11.5t4 11.5q4 16 9.5 34.5t7.5 39.5q2 10 3 20t1 21q0 35 -16.5 59.5t-61.5 24.5q-98 0 -181 -86t-100 -191q-2 -12 -3 -23.5t-1 -21.5q0 -20 3 -39.5t12 -38.5q18 -45 50 -60t71 -26 q6 -2 13 -3t13 -3q-6 -6 -11 -12t-9 -12q-39 -41 -82 -71t-109 -32q-106 -2 -157.5 75t-51.5 171q0 35 6.5 66.5t18.5 60.5q84 205 283.5 287t422.5 86h16h13q127 0 247 -18.5t216 -47.5q-31 -88 -61 -178l-62 -180q-31 -90 -61.5 -179.5t-61.5 -179.5q-63 -178 -226 -283.5 t-347 -140.5q-45 -8 -90 -12t-88 -4t-93.5 3t-103.5 11q-121 18 -222.5 72.5t-101.5 173.5zM928 1384q0 49 40 75t89 28h5h5q29 0 54.5 -7t41.5 -22q18 -14 26.5 -32.5t8.5 -41.5q0 -49 -37 -73.5t-80 -28.5q-6 -2 -12 -2h-12q-51 0 -90 23.5t-39 80.5zM1243 1384 q0 53 44 78t95 25q29 0 53.5 -7t43.5 -22q16 -14 25 -32.5t9 -41.5q0 -51 -38.5 -75.5t-83.5 -28.5h-12h-9q-51 0 -89 23.5t-38 80.5z" />
<glyph unicode="&#xd0;" horiz-adv-x="2174" d="M41 173v9q0 55 45 101.5t133 64.5q29 6 57.5 9t59.5 3q18 0 35.5 -1t36.5 -3q47 -6 94 -18t88 -31q18 55 46 135t58 172h-137l41 95h127l131 370q2 2 3 5t1 6q2 6 4 11t4 11l4 16q2 8 2 17q0 18 -12 37.5t-45 40.5h99h92h76h83h25h25q186 0 357 -13.5t329 -97.5 q129 -68 185 -177.5t56 -232.5q0 -23 -2 -44t-4 -44q-6 -45 -18.5 -89t-30.5 -87q-90 -217 -293 -319.5t-430 -114.5q-16 -2 -34 -2h-36q-68 0 -134 7t-128 22q-39 8 -71.5 18t-61.5 21q-18 -8 -37.5 -16.5t-40.5 -18.5q-70 -27 -153.5 -45.5t-171.5 -24.5q-16 0 -32.5 -1 t-33.5 -1q-76 0 -146.5 14.5t-129.5 45.5q-51 29 -80 65.5t-33 75.5q-2 4 -2 9zM166 147q0 -20 20.5 -30.5t44.5 -14.5q14 -4 28.5 -5t25.5 -1h19q9 0 20 2q59 6 113.5 36t92.5 73q-35 10 -73.5 18t-79.5 11q-10 2 -20 2h-19q-27 0 -54.5 -4.5t-54.5 -14.5 q-23 -10 -39 -24.5t-22 -32.5q0 -2 -1 -4l-1 -2v-4v-5zM1032 158q29 -8 57.5 -13.5t55.5 -5.5q145 0 253.5 115t174.5 252q16 35 30.5 70.5t24.5 68.5q14 45 28.5 103.5t18.5 117.5q0 12 1 25.5t1 26.5q0 37 -6 71.5t-18 65.5q-14 35 -41 50t-58 15q-6 0 -12 -1t-10 -1 q-25 -4 -47.5 -17.5t-42.5 -31.5q-35 -33 -71 -98.5t-75 -171.5q-4 -16 -9 -33.5t-11 -34.5q-2 -6 -4 -11t-4 -11h108l-39 -95h-102q-27 -76 -52.5 -152.5t-54.5 -154.5q-14 -43 -38.5 -79.5t-57.5 -69.5z" />
<glyph unicode="&#xd1;" horiz-adv-x="1638" d="M27 184q0 31 9 63t25 64q18 -14 35 -26.5t31 -22.5q29 -18 59.5 -28.5t77.5 -10.5q129 -2 235.5 94.5t145.5 212.5q20 57 42 112.5t42 111.5q18 45 35.5 89t34.5 87q-39 37 -93.5 61.5t-111.5 32.5q-12 2 -25.5 3t-25.5 1q-88 0 -154.5 -51t-58.5 -166q4 -70 54 -94.5 t110 -28.5h45q23 0 43 2q-35 -74 -87.5 -132t-146.5 -56q-94 4 -138 75.5t-46 155.5v7v5q0 29 5 56.5t13 52.5q72 209 256.5 300t409.5 91q229 0 406.5 -162.5t271.5 -357.5q8 -16 16 -33.5t14 -34.5l175 471v-2q25 74 87 122t138 50q78 0 107.5 -37.5t41.5 -105.5 q-174 0 -257 -123t-136 -274l-264 -776q-53 78 -104.5 159.5t-100.5 163.5q-4 4 -7 10.5t-7 12.5q-80 133 -164 264t-182 248q-18 -102 -51 -203.5t-68 -202.5q-8 -20 -15.5 -39.5t-13.5 -40.5l-8 -20l-8 -21q-57 -123 -178 -224t-258 -101q-35 0 -69 7t-69 23 q-63 31 -90.5 74t-27.5 92zM1030 1280q45 92 124 138t187 46q35 0 77 -8t89 -24l13.5 -4.5l13.5 -4.5q18 -4 37.5 -9t40.5 -7q12 -2 23.5 -3t23.5 -1q16 0 30.5 2t28.5 8q12 6 27.5 13.5t36.5 15.5q-8 -33 -35 -66t-74 -61q-45 -31 -93 -45.5t-101 -14.5q-33 0 -75 9.5 t-93 25.5q-8 2 -16.5 5t-16.5 5q-18 6 -37.5 11.5t-40.5 9.5q-12 2 -23.5 3t-21.5 1q-12 0 -24.5 -2t-24.5 -6q-10 -2 -28.5 -11.5t-47.5 -25.5z" />
<glyph unicode="&#xd2;" horiz-adv-x="649" />
<glyph unicode="&#xd3;" horiz-adv-x="1576" d="M35 504q0 276 213 450t469 230q55 12 110.5 18t108.5 6q25 0 48.5 -1t47.5 -1q229 -14 422 -121.5t193 -375.5q0 -287 -219.5 -461t-483.5 -225q-53 -12 -107.5 -17.5t-107.5 -5.5q-27 0 -54.5 1t-56.5 3q-219 18 -401 130t-182 370zM553 305q0 -106 34 -157.5t85 -51.5 q39 2 87 31t97 82q6 6 12 13t13 16q68 84 122 197.5t87 234.5q16 61 25 122.5t9 118.5q0 16 -1 35t-5 39q-8 47 -32.5 86t-77.5 39q-92 0 -172 -89t-138 -198q-33 -63 -57.5 -123.5t-36.5 -101.5q-25 -82 -38 -156t-13 -137zM954 1245q4 6 9.5 13.5t9.5 13.5 q25 33 50.5 65.5t53.5 61.5q20 20 38 34.5t32 22.5t30.5 12.5t34.5 4.5h5h4q25 -2 46 -13.5t31 -34.5q4 -8 5.5 -15t1.5 -15q-2 -37 -25 -68t-51 -47q-18 -8 -43 -13t-53 -10q-29 -2 -59 -4l-60 -4q-14 -2 -30 -2t-30 -2z" />
<glyph unicode="&#xd4;" horiz-adv-x="1576" d="M35 504q0 276 213 450t469 230q55 12 110.5 18t108.5 6q25 0 48.5 -1t47.5 -1q229 -14 422 -121.5t193 -375.5q0 -287 -219.5 -461t-483.5 -225q-53 -12 -107.5 -17.5t-107.5 -5.5q-27 0 -54.5 1t-56.5 3q-219 18 -401 130t-182 370zM553 305q0 -106 34 -157.5t85 -51.5 q39 2 87 31t97 82q6 6 12 13t13 16q68 84 122 197.5t87 234.5q16 61 25 122.5t9 118.5q0 16 -1 35t-5 39q-8 47 -32.5 86t-77.5 39q-92 0 -172 -89t-138 -198q-33 -63 -57.5 -123.5t-36.5 -101.5q-25 -82 -38 -156t-13 -137zM649 1221l461 303l248 -318l-309 107z" />
<glyph unicode="&#xd5;" horiz-adv-x="1576" d="M35 504q0 276 213 450t469 230q55 12 110.5 18t108.5 6q25 0 48.5 -1t47.5 -1q229 -14 422 -121.5t193 -375.5q0 -287 -219.5 -461t-483.5 -225q-53 -12 -107.5 -17.5t-107.5 -5.5q-27 0 -54.5 1t-56.5 3q-219 18 -401 130t-182 370zM553 305q0 -106 34 -157.5t85 -51.5 q39 2 87 31t97 82q6 6 12 13t13 16q68 84 122 197.5t87 234.5q16 61 25 122.5t9 118.5q0 16 -1 35t-5 39q-8 47 -32.5 86t-77.5 39q-92 0 -172 -89t-138 -198q-33 -63 -57.5 -123.5t-36.5 -101.5q-25 -82 -38 -156t-13 -137zM715 1274q45 92 124 138t187 46q35 0 77 -8 t89 -25q6 -2 13 -4l14 -4q18 -4 37.5 -9t39.5 -7q12 -2 23.5 -3t23.5 -1q16 0 31 2t29 8q12 6 27.5 13t35.5 16q-8 -33 -34.5 -66t-73.5 -61q-45 -31 -93 -45.5t-102 -14.5q-33 0 -74.5 9.5t-93.5 25.5q-8 2 -16 5t-16 5q-18 6 -38 11.5t-40 9.5q-12 2 -23.5 3t-21.5 1 q-12 0 -24.5 -2t-24.5 -6q-10 -2 -28.5 -11.5t-47.5 -25.5z" />
<glyph unicode="&#xd6;" horiz-adv-x="1576" d="M35 504q0 276 213 450t469 230q55 12 110.5 18t108.5 6q25 0 48.5 -1t47.5 -1q229 -14 422 -121.5t193 -375.5q0 -287 -219.5 -461t-483.5 -225q-53 -12 -107.5 -17.5t-107.5 -5.5q-27 0 -54.5 1t-56.5 3q-219 18 -401 130t-182 370zM553 305q0 -106 34 -157.5t85 -51.5 q39 2 87 31t97 82q6 6 12 13t13 16q68 84 122 197.5t87 234.5q16 61 25 122.5t9 118.5q0 16 -1 35t-5 39q-8 47 -32.5 86t-77.5 39q-92 0 -172 -89t-138 -198q-33 -63 -57.5 -123.5t-36.5 -101.5q-25 -82 -38 -156t-13 -137zM700 1362q0 49 40 74.5t89 27.5h6h5 q29 0 54.5 -7t41.5 -21q18 -14 26.5 -33t8.5 -41q0 -49 -37 -73.5t-80 -28.5q-6 -2 -12 -3h-13q-51 0 -90 24t-39 81zM1016 1362q0 53 44 77.5t95 24.5q29 0 53.5 -7t42.5 -21q16 -14 25.5 -33t9.5 -41q0 -51 -39 -75.5t-84 -29.5h-11h-9q-51 0 -89 24t-38 81z" />
<glyph unicode="&#xd7;" />
<glyph unicode="&#xd8;" horiz-adv-x="1576" d="M35 504q0 276 213 450t469 230q55 12 110.5 18t108.5 6q25 0 48.5 -1t47.5 -1q229 -14 422 -121.5t193 -375.5q0 -287 -219.5 -461t-483.5 -225q-53 -12 -107.5 -17.5t-107.5 -5.5q-27 0 -54.5 1t-56.5 3q-219 18 -401 130t-182 370zM158 -74l1310 1415l78 -77 l-1310 -1416zM553 305q0 -106 34 -157.5t85 -51.5q39 2 87 31t97 82q6 6 12 13t13 16q68 84 122 197.5t87 234.5q16 61 25 122.5t9 118.5q0 16 -1 35t-5 39q-8 47 -32.5 86t-77.5 39q-92 0 -172 -89t-138 -198q-33 -63 -57.5 -123.5t-36.5 -101.5q-25 -82 -38 -156t-13 -137 z" />
<glyph unicode="&#xd9;" horiz-adv-x="1902" d="M16 758q0 29 6.5 57.5t20.5 58.5q61 143 216 228.5t329 107.5q33 4 64.5 6.5t62.5 2.5q66 0 128 -10.5t115 -28.5q106 -37 170 -112t64 -175q0 -27 -5 -54.5t-16 -56.5q-20 -53 -44.5 -105t-51.5 -104q-6 -8 -10 -16l-8 -16q-4 -10 -19.5 -38t-31.5 -63 q-6 -14 -13.5 -30.5t-13.5 -30.5q-12 -31 -19.5 -60.5t-7.5 -52.5q0 -27 12.5 -42t41.5 -15t76.5 31.5t99.5 95.5q6 6 11 12t9 12q41 51 81 119t71 154q29 80 56.5 159.5t55.5 161.5q2 8 5.5 17.5t5.5 19.5q16 43 31.5 88t29.5 90h261h261q-76 -217 -150.5 -434t-150.5 -436 q0 -2 -2 -5t-2 -5q-6 -14 -10 -26.5t-4 -20.5q0 -10 8 -16.5t29 -6.5q45 0 88 44t76 97q18 31 32.5 60t22.5 49l112 -51q-41 -84 -90 -165t-125 -140q-51 -41 -124.5 -68t-153.5 -35q-12 0 -25.5 -1t-25.5 -1q-113 2 -204 56.5t-104 183.5q-80 -100 -204.5 -176t-259.5 -80 h-8h-7q-33 0 -66.5 5t-66.5 17q-100 39 -147 121t-47 176q0 37 6 74t20 74q20 51 44 100l48 98q2 6 6.5 13.5t6.5 13.5q29 55 54.5 110.5t43.5 112.5q8 23 12 43.5t4 38.5q0 47 -29.5 79t-95.5 32q-113 0 -193.5 -78t-90.5 -186q-2 -8 -2 -16v-13q0 -72 44 -90.5t105 -24.5 q6 0 11.5 -1t9.5 -1q-6 -6 -12.5 -13t-10.5 -13q-2 -2 -4 -5.5t-4 -5.5q-4 -4 -8 -9t-8 -9q-35 -41 -73 -62.5t-75 -27.5q-10 -2 -19.5 -3t-19.5 -1q-82 0 -143.5 61.5t-61.5 155.5zM1116 1372q0 8 2 15.5t4 15.5q10 25 36 36t52 11q18 0 35 -4t29 -12q16 -8 32.5 -22.5 t36.5 -35.5q29 -29 54.5 -61.5t50.5 -65.5q4 -6 9 -13t9 -13q-14 2 -29.5 2t-29.5 2q-29 2 -58.5 4t-60.5 4q-27 4 -52.5 9t-43.5 13q-29 16 -52.5 48t-23.5 67z" />
<glyph unicode="&#xda;" horiz-adv-x="1902" d="M16 758q0 29 6.5 57.5t20.5 58.5q61 143 216 228.5t329 107.5q33 4 64.5 6.5t62.5 2.5q66 0 128 -10.5t115 -28.5q106 -37 170 -112t64 -175q0 -27 -5 -54.5t-16 -56.5q-20 -53 -44.5 -105t-51.5 -104q-6 -8 -10 -16l-8 -16q-4 -10 -19.5 -38t-31.5 -63 q-6 -14 -13.5 -30.5t-13.5 -30.5q-12 -31 -19.5 -60.5t-7.5 -52.5q0 -27 12.5 -42t41.5 -15t76.5 31.5t99.5 95.5q6 6 11 12t9 12q41 51 81 119t71 154q29 80 56.5 159.5t55.5 161.5q2 8 5.5 17.5t5.5 19.5q16 43 31.5 88t29.5 90h261h261q-76 -217 -150.5 -434t-150.5 -436 q0 -2 -2 -5t-2 -5q-6 -14 -10 -26.5t-4 -20.5q0 -10 8 -16.5t29 -6.5q45 0 88 44t76 97q18 31 32.5 60t22.5 49l112 -51q-41 -84 -90 -165t-125 -140q-51 -41 -124.5 -68t-153.5 -35q-12 0 -25.5 -1t-25.5 -1q-113 2 -204 56.5t-104 183.5q-80 -100 -204.5 -176t-259.5 -80 h-8h-7q-33 0 -66.5 5t-66.5 17q-100 39 -147 121t-47 176q0 37 6 74t20 74q20 51 44 100l48 98q2 6 6.5 13.5t6.5 13.5q29 55 54.5 110.5t43.5 112.5q8 23 12 43.5t4 38.5q0 47 -29.5 79t-95.5 32q-113 0 -193.5 -78t-90.5 -186q-2 -8 -2 -16v-13q0 -72 44 -90.5t105 -24.5 q6 0 11.5 -1t9.5 -1q-6 -6 -12.5 -13t-10.5 -13q-2 -2 -4 -5.5t-4 -5.5q-4 -4 -8 -9t-8 -9q-35 -41 -73 -62.5t-75 -27.5q-10 -2 -19.5 -3t-19.5 -1q-82 0 -143.5 61.5t-61.5 155.5zM1282 1223q4 6 9 13t9 13q25 33 50.5 66t54.5 61q20 20 37.5 34.5t32.5 23.5q14 8 30.5 12 t34.5 4h4h4q25 -2 46.5 -13.5t31.5 -33.5q4 -8 5 -15.5t1 -15.5q-2 -37 -24.5 -67.5t-51.5 -47.5q-18 -8 -42.5 -13t-53.5 -9q-29 -2 -59.5 -4t-59.5 -4q-14 -2 -29.5 -2t-29.5 -2z" />
<glyph unicode="&#xdb;" horiz-adv-x="1902" d="M16 758q0 29 6.5 57.5t20.5 58.5q61 143 216 228.5t329 107.5q33 4 64.5 6.5t62.5 2.5q66 0 128 -10.5t115 -28.5q106 -37 170 -112t64 -175q0 -27 -5 -54.5t-16 -56.5q-20 -53 -44.5 -105t-51.5 -104q-6 -8 -10 -16l-8 -16q-4 -10 -19.5 -38t-31.5 -63 q-6 -14 -13.5 -30.5t-13.5 -30.5q-12 -31 -19.5 -60.5t-7.5 -52.5q0 -27 12.5 -42t41.5 -15t76.5 31.5t99.5 95.5q6 6 11 12t9 12q41 51 81 119t71 154q29 80 56.5 159.5t55.5 161.5q2 8 5.5 17.5t5.5 19.5q16 43 31.5 88t29.5 90h261h261q-76 -217 -150.5 -434t-150.5 -436 q0 -2 -2 -5t-2 -5q-6 -14 -10 -26.5t-4 -20.5q0 -10 8 -16.5t29 -6.5q45 0 88 44t76 97q18 31 32.5 60t22.5 49l112 -51q-41 -84 -90 -165t-125 -140q-51 -41 -124.5 -68t-153.5 -35q-12 0 -25.5 -1t-25.5 -1q-113 2 -204 56.5t-104 183.5q-80 -100 -204.5 -176t-259.5 -80 h-8h-7q-33 0 -66.5 5t-66.5 17q-100 39 -147 121t-47 176q0 37 6 74t20 74q20 51 44 100l48 98q2 6 6.5 13.5t6.5 13.5q29 55 54.5 110.5t43.5 112.5q8 23 12 43.5t4 38.5q0 47 -29.5 79t-95.5 32q-113 0 -193.5 -78t-90.5 -186q-2 -8 -2 -16v-13q0 -72 44 -90.5t105 -24.5 q6 0 11.5 -1t9.5 -1q-6 -6 -12.5 -13t-10.5 -13q-2 -2 -4 -5.5t-4 -5.5q-4 -4 -8 -9t-8 -9q-35 -41 -73 -62.5t-75 -27.5q-10 -2 -19.5 -3t-19.5 -1q-82 0 -143.5 61.5t-61.5 155.5zM971 1221l461 303l247 -318l-309 107z" />
<glyph unicode="&#xdc;" horiz-adv-x="1902" d="M16 758q0 29 6.5 57.5t20.5 58.5q61 143 216 228.5t329 107.5q33 4 64.5 6.5t62.5 2.5q66 0 128 -10.5t115 -28.5q106 -37 170 -112t64 -175q0 -27 -5 -54.5t-16 -56.5q-20 -53 -44.5 -105t-51.5 -104q-6 -8 -10 -16l-8 -16q-4 -10 -19.5 -38t-31.5 -63 q-6 -14 -13.5 -30.5t-13.5 -30.5q-12 -31 -19.5 -60.5t-7.5 -52.5q0 -27 12.5 -42t41.5 -15t76.5 31.5t99.5 95.5q6 6 11 12t9 12q41 51 81 119t71 154q29 80 56.5 159.5t55.5 161.5q2 8 5.5 17.5t5.5 19.5q16 43 31.5 88t29.5 90h261h261q-76 -217 -150.5 -434t-150.5 -436 q0 -2 -2 -5t-2 -5q-6 -14 -10 -26.5t-4 -20.5q0 -10 8 -16.5t29 -6.5q45 0 88 44t76 97q18 31 32.5 60t22.5 49l112 -51q-41 -84 -90 -165t-125 -140q-51 -41 -124.5 -68t-153.5 -35q-12 0 -25.5 -1t-25.5 -1q-113 2 -204 56.5t-104 183.5q-80 -100 -204.5 -176t-259.5 -80 h-8h-7q-33 0 -66.5 5t-66.5 17q-100 39 -147 121t-47 176q0 37 6 74t20 74q20 51 44 100l48 98q2 6 6.5 13.5t6.5 13.5q29 55 54.5 110.5t43.5 112.5q8 23 12 43.5t4 38.5q0 47 -29.5 79t-95.5 32q-113 0 -193.5 -78t-90.5 -186q-2 -8 -2 -16v-13q0 -72 44 -90.5t105 -24.5 q6 0 11.5 -1t9.5 -1q-6 -6 -12.5 -13t-10.5 -13q-2 -2 -4 -5.5t-4 -5.5q-4 -4 -8 -9t-8 -9q-35 -41 -73 -62.5t-75 -27.5q-10 -2 -19.5 -3t-19.5 -1q-82 0 -143.5 61.5t-61.5 155.5zM1057 1321q0 49 40 74.5t89 27.5h5h5q29 0 54.5 -7t41.5 -21q18 -14 26.5 -33t8.5 -41 q0 -49 -37 -73.5t-80 -28.5q-6 -2 -12 -2h-12q-51 0 -90 23.5t-39 80.5zM1372 1321q0 53 44 77.5t95 24.5q29 0 53.5 -7t43.5 -21q16 -14 25 -33t9 -41q0 -51 -38.5 -75.5t-83.5 -28.5h-12h-9q-51 0 -89 23.5t-38 80.5z" />
<glyph unicode="&#xdd;" horiz-adv-x="649" />
<glyph unicode="&#xde;" horiz-adv-x="1730" d="M16 500q0 29 7.5 58.5t19.5 57.5q41 92 141.5 170t241.5 136q66 29 140.5 49t152.5 35q4 18 7 34.5t3 30.5q-2 27 -7 50.5t-11 45.5q6 2 13 5.5t15 5.5q8 4 15.5 7t13.5 5q35 14 72 23.5t73 15.5q25 4 49.5 6t49.5 2q111 0 190.5 -40t79.5 -122q0 -2 -1 -4t-1 -4v-4v-4 q-2 -2 -3 -5t-1 -5l-3 -7q-1 -2 -1 -6q156 -10 262 -37.5t170 -68.5q66 -41 95.5 -92.5t29.5 -112.5q0 -27 -5 -53.5t-16 -55.5q-49 -143 -186 -207.5t-291 -82.5q-41 -4 -82 -6.5t-80 -2.5t-77.5 3.5t-73.5 5.5q-14 -39 -18.5 -52.5l-6.5 -19.5q-4 -8 -8 -21.5t-18 -52.5 q-27 -82 -123 -126t-207 -52q-12 -2 -26 -2h-25q-63 0 -119.5 12.5t-97.5 34.5q-6 4 -11.5 6t-9.5 6q-6 2 -11 5.5t-11 5.5l12 12l12 12q31 33 56.5 69t42.5 81l219 622q-20 -6 -42 -15t-44 -20q-80 -41 -151 -102t-93 -135q-4 -18 -7 -32.5t-3 -26.5q0 -27 12 -44.5 t35 -33.5q12 -8 25.5 -15.5t29.5 -17.5q-45 -53 -96 -87t-129 -30q-92 4 -140.5 60.5t-48.5 132.5zM1057 436q164 16 262 89t164 227q10 23 15 44t5 38q0 41 -30.5 63.5t-92.5 22.5q-86 0 -141 -56.5t-80 -134.5q-27 -72 -52 -145.5t-50 -147.5z" />
<glyph unicode="&#xdf;" horiz-adv-x="1359" d="M-78 -229q23 27 43.5 53t36.5 51q16 27 31.5 52.5t25.5 54.5q49 143 98.5 287.5t98.5 287.5q25 72 49.5 144.5t48.5 144.5q49 147 196.5 227t315.5 101q29 2 56.5 4t56.5 2q70 -2 135.5 -11.5t118.5 -29.5l12 -4l12 -5q45 -20 83 -55t38 -90q0 -63 -46 -104t-103 -72 q-18 -10 -38 -19.5t-38 -17.5q-4 0 -19.5 -6t-31.5 -16q-6 -4 -14.5 -9.5t-14.5 -11.5q-10 -8 -16 -15t-6 -14q0 -2 1 -3l3 -3q59 -51 113.5 -102t97.5 -107l-9 -8l9 8q23 -31 37 -63.5t20 -67.5q4 -16 6 -32.5t2 -32.5q0 -82 -44 -155t-130 -116q-51 -25 -103.5 -37 t-101.5 -12q-88 0 -175 34t-171 91l78 94q27 -18 49.5 -32.5t42.5 -20.5q6 -2 13.5 -3t15.5 -1q16 0 34.5 6t39.5 21q25 16 35 32.5t8 34.5q0 12 -4.5 23.5t-10.5 23.5q-8 16 -18 30.5t-23 29.5q-6 8 -13 17t-13 18q-2 4 -5.5 8t-5.5 6q-29 39 -51 78t-26 90q-4 90 56 162.5 t134 130.5l53 41q27 20 49 39q14 12 24.5 25.5t16.5 27.5q2 6 4.5 13t2.5 13q0 16 -14.5 27.5t-49.5 11.5q-84 0 -140.5 -64.5t-92.5 -139.5q-14 -29 -25.5 -58.5t-19.5 -54.5q-72 -205 -142.5 -412t-142.5 -411q-35 -98 -123 -142.5t-186 -44.5q-43 0 -85 7.5t-77 23.5 q-12 6 -28.5 12.5t-43.5 14.5z" />
<glyph unicode="&#xe0;" horiz-adv-x="1214" d="M29 301q0 94 50 182t128 148q59 45 137 74.5t160 33.5q8 2 17 2h18q66 0 127 -19.5t110 -59.5l21 61h199h200q-12 -37 -25.5 -75t-25.5 -75q-27 -74 -52.5 -148.5t-50.5 -150.5q0 -2 -2 -5t-2 -9q-2 -4 -4 -11t-2 -13q-2 -4 -2 -9v-8q0 -8 3 -16t11 -10q4 -2 9.5 -3.5 t11.5 0.5q12 0 23.5 5.5t23.5 11.5q23 14 45.5 36.5t40.5 47.5q18 23 31.5 45t19.5 37l4 8l4 8q0 4 3 8l4 9l106 -48q-76 -162 -181.5 -269t-301.5 -107h-5h-5q-66 2 -124.5 29.5t-86.5 90.5q-55 -51 -126 -82.5t-145 -37.5q-8 -2 -17 -2h-20q-72 2 -138 28.5t-118 89.5 q-39 47 -56 98.5t-17 104.5zM387 174q0 -31 10.5 -51.5t36.5 -20.5q59 0 105.5 49.5t78.5 108.5q18 31 31 59.5t23 51.5q25 63 37 110t12 80q0 25 -7 39t-36 14q-10 0 -20.5 -2t-20.5 -6q-39 -16 -78 -57t-70 -88q-23 -33 -40 -64.5t-25 -54.5q-2 -6 -7 -20.5t-9 -32.5 q-4 -14 -8.5 -29.5t-6.5 -32.5q-4 -12 -5 -26.5t-1 -26.5zM467 950q0 8 2 15.5t4 15.5q10 25 36 36t52 11q18 0 34.5 -4t29.5 -12q16 -8 32.5 -22.5t36.5 -35.5q29 -29 54.5 -61.5t50.5 -65.5q4 -6 9 -13t9 -13q-14 2 -29.5 2t-29.5 2q-31 2 -59.5 4t-59.5 4q-27 4 -52.5 9 t-43.5 14q-29 16 -52.5 47.5t-23.5 66.5z" />
<glyph unicode="&#xe1;" horiz-adv-x="1214" d="M29 301q0 94 50 182t128 148q59 45 137 74.5t160 33.5q8 2 17 2h18q66 0 127 -19.5t110 -59.5l21 61h199h200q-12 -37 -25.5 -75t-25.5 -75q-27 -74 -52.5 -148.5t-50.5 -150.5q0 -2 -2 -5t-2 -9q-2 -4 -4 -11t-2 -13q-2 -4 -2 -9v-8q0 -8 3 -16t11 -10q4 -2 9.5 -3.5 t11.5 0.5q12 0 23.5 5.5t23.5 11.5q23 14 45.5 36.5t40.5 47.5q18 23 31.5 45t19.5 37l4 8l4 8q0 4 3 8l4 9l106 -48q-76 -162 -181.5 -269t-301.5 -107h-5h-5q-66 2 -124.5 29.5t-86.5 90.5q-55 -51 -126 -82.5t-145 -37.5q-8 -2 -17 -2h-20q-72 2 -138 28.5t-118 89.5 q-39 47 -56 98.5t-17 104.5zM387 174q0 -31 10.5 -51.5t36.5 -20.5q59 0 105.5 49.5t78.5 108.5q18 31 31 59.5t23 51.5q25 63 37 110t12 80q0 25 -7 39t-36 14q-10 0 -20.5 -2t-20.5 -6q-39 -16 -78 -57t-70 -88q-23 -33 -40 -64.5t-25 -54.5q-2 -6 -7 -20.5t-9 -32.5 q-4 -14 -8.5 -29.5t-6.5 -32.5q-4 -12 -5 -26.5t-1 -26.5zM698 772q4 6 9.5 13.5t9.5 13.5q25 33 50.5 65.5t53.5 61.5q20 20 38 34.5t32 22.5t30.5 12t34.5 4h5h4q25 -2 46 -13t31 -34q4 -8 5.5 -15t1.5 -15q-2 -37 -25 -68t-51 -47q-18 -8 -43 -13.5t-53 -9.5 q-29 -2 -59 -4l-60 -4q-14 -2 -30 -2t-30 -2z" />
<glyph unicode="&#xe2;" horiz-adv-x="1214" d="M29 301q0 94 50 182t128 148q59 45 137 74.5t160 33.5q8 2 17 2h18q66 0 127 -19.5t110 -59.5l21 61h199h200q-12 -37 -25.5 -75t-25.5 -75q-27 -74 -52.5 -148.5t-50.5 -150.5q0 -2 -2 -5t-2 -9q-2 -4 -4 -11t-2 -13q-2 -4 -2 -9v-8q0 -8 3 -16t11 -10q4 -2 9.5 -3.5 t11.5 0.5q12 0 23.5 5.5t23.5 11.5q23 14 45.5 36.5t40.5 47.5q18 23 31.5 45t19.5 37l4 8l4 8q0 4 3 8l4 9l106 -48q-76 -162 -181.5 -269t-301.5 -107h-5h-5q-66 2 -124.5 29.5t-86.5 90.5q-55 -51 -126 -82.5t-145 -37.5q-8 -2 -17 -2h-20q-72 2 -138 28.5t-118 89.5 q-39 47 -56 98.5t-17 104.5zM387 174q0 -31 10.5 -51.5t36.5 -20.5q59 0 105.5 49.5t78.5 108.5q18 31 31 59.5t23 51.5q25 63 37 110t12 80q0 25 -7 39t-36 14q-10 0 -20.5 -2t-20.5 -6q-39 -16 -78 -57t-70 -88q-23 -33 -40 -64.5t-25 -54.5q-2 -6 -7 -20.5t-9 -32.5 q-4 -14 -8.5 -29.5t-6.5 -32.5q-4 -12 -5 -26.5t-1 -26.5zM397 776l461 303l248 -317l-309 106z" />
<glyph unicode="&#xe3;" horiz-adv-x="1214" d="M29 301q0 94 50 182t128 148q59 45 137 74.5t160 33.5q8 2 17 2h18q66 0 127 -19.5t110 -59.5l21 61h199h200q-12 -37 -25.5 -75t-25.5 -75q-27 -74 -52.5 -148.5t-50.5 -150.5q0 -2 -2 -5t-2 -9q-2 -4 -4 -11t-2 -13q-2 -4 -2 -9v-8q0 -8 3 -16t11 -10q4 -2 9.5 -3.5 t11.5 0.5q12 0 23.5 5.5t23.5 11.5q23 14 45.5 36.5t40.5 47.5q18 23 31.5 45t19.5 37l4 8l4 8q0 4 3 8l4 9l106 -48q-76 -162 -181.5 -269t-301.5 -107h-5h-5q-66 2 -124.5 29.5t-86.5 90.5q-55 -51 -126 -82.5t-145 -37.5q-8 -2 -17 -2h-20q-72 2 -138 28.5t-118 89.5 q-39 47 -56 98.5t-17 104.5zM381 817q45 92 124 138t187 46q35 0 77 -8t89 -24q6 -2 13.5 -4t13.5 -4q18 -4 37.5 -9.5t40.5 -7.5q12 -2 23 -3t24 -1q16 0 30.5 2t28.5 8q12 6 27.5 13.5t36.5 15.5q-8 -33 -35 -65.5t-74 -61.5q-45 -31 -93 -45t-102 -14q-33 0 -74.5 9 t-92.5 25q-8 2 -16.5 5.5t-16.5 5.5q-18 6 -38 11t-40 9q-12 2 -23.5 3t-21.5 1q-12 0 -24.5 -2t-24.5 -6q-10 -2 -28.5 -11.5t-47.5 -25.5zM387 174q0 -31 10.5 -51.5t36.5 -20.5q59 0 105.5 49.5t78.5 108.5q18 31 31 59.5t23 51.5q25 63 37 110t12 80q0 25 -7 39t-36 14 q-10 0 -20.5 -2t-20.5 -6q-39 -16 -78 -57t-70 -88q-23 -33 -40 -64.5t-25 -54.5q-2 -6 -7 -20.5t-9 -32.5q-4 -14 -8.5 -29.5t-6.5 -32.5q-4 -12 -5 -26.5t-1 -26.5z" />
<glyph unicode="&#xe4;" horiz-adv-x="1214" d="M29 301q0 94 50 182t128 148q59 45 137 74.5t160 33.5q8 2 17 2h18q66 0 127 -19.5t110 -59.5l21 61h199h200q-12 -37 -25.5 -75t-25.5 -75q-27 -74 -52.5 -148.5t-50.5 -150.5q0 -2 -2 -5t-2 -9q-2 -4 -4 -11t-2 -13q-2 -4 -2 -9v-8q0 -8 3 -16t11 -10q4 -2 9.5 -3.5 t11.5 0.5q12 0 23.5 5.5t23.5 11.5q23 14 45.5 36.5t40.5 47.5q18 23 31.5 45t19.5 37l4 8l4 8q0 4 3 8l4 9l106 -48q-76 -162 -181.5 -269t-301.5 -107h-5h-5q-66 2 -124.5 29.5t-86.5 90.5q-55 -51 -126 -82.5t-145 -37.5q-8 -2 -17 -2h-20q-72 2 -138 28.5t-118 89.5 q-39 47 -56 98.5t-17 104.5zM387 174q0 -31 10.5 -51.5t36.5 -20.5q59 0 105.5 49.5t78.5 108.5q18 31 31 59.5t23 51.5q25 63 37 110t12 80q0 25 -7 39t-36 14q-10 0 -20.5 -2t-20.5 -6q-39 -16 -78 -57t-70 -88q-23 -33 -40 -64.5t-25 -54.5q-2 -6 -7 -20.5t-9 -32.5 q-4 -14 -8.5 -29.5t-6.5 -32.5q-4 -12 -5 -26.5t-1 -26.5zM485 903q0 43 35 65.5t78 24.5h5h5q25 0 48.5 -6t37.5 -18q16 -12 22.5 -28.5t6.5 -37.5q0 -45 -34 -66.5t-75 -25.5h-8h-8q-45 0 -79 20.5t-34 71.5zM764 903q0 45 36 66.5t79 23.5h3h3h7h5q20 -2 39.5 -8 t32.5 -16q16 -12 24 -28.5t8 -37.5q0 -43 -31.5 -64.5t-70.5 -25.5q-6 -2 -11 -2h-11q-45 0 -79 20.5t-34 71.5z" />
<glyph unicode="&#xe5;" horiz-adv-x="1214" d="M29 301q0 94 50 182t128 148q59 45 137 74.5t160 33.5q8 2 17 2h18q66 0 127 -19.5t110 -59.5l21 61h199h200q-12 -37 -25.5 -75t-25.5 -75q-27 -74 -52.5 -148.5t-50.5 -150.5q0 -2 -2 -5t-2 -9q-2 -4 -4 -11t-2 -13q-2 -4 -2 -9v-8q0 -8 3 -16t11 -10q4 -2 9.5 -3.5 t11.5 0.5q12 0 23.5 5.5t23.5 11.5q23 14 45.5 36.5t40.5 47.5q18 23 31.5 45t19.5 37l4 8l4 8q0 4 3 8l4 9l106 -48q-76 -162 -181.5 -269t-301.5 -107h-5h-5q-66 2 -124.5 29.5t-86.5 90.5q-55 -51 -126 -82.5t-145 -37.5q-8 -2 -17 -2h-20q-72 2 -138 28.5t-118 89.5 q-39 47 -56 98.5t-17 104.5zM387 174q0 -31 10.5 -51.5t36.5 -20.5q59 0 105.5 49.5t78.5 108.5q18 31 31 59.5t23 51.5q25 63 37 110t12 80q0 25 -7 39t-36 14q-10 0 -20.5 -2t-20.5 -6q-39 -16 -78 -57t-70 -88q-23 -33 -40 -64.5t-25 -54.5q-2 -6 -7 -20.5t-9 -32.5 q-4 -14 -8.5 -29.5t-6.5 -32.5q-4 -12 -5 -26.5t-1 -26.5zM666 928q0 68 48 115t115 47q66 0 114 -47.5t48 -114.5q0 -66 -48 -115t-114 -49q-68 0 -115.5 49t-47.5 115zM752 928q0 -33 22.5 -55.5t54.5 -22.5q33 0 55.5 22.5t22.5 55.5t-22.5 55.5t-55.5 22.5t-55 -22.5 t-22 -55.5z" />
<glyph unicode="&#xe6;" horiz-adv-x="1329" d="M29 195q0 8 1 17t3 19q2 4 3 9.5t3 9.5q27 80 112 121t183 57q57 10 111.5 14t97.5 7q2 8 3 16t1 16q2 6 2 15v16q0 27 -9.5 49.5t-37.5 36.5q-16 8 -36 11t-40 3t-40.5 -3t-43.5 -9q-33 -8 -64.5 -20.5t-60.5 -26.5q-14 -6 -29 -13l-26 -14l-37 92q88 47 182 73t195 26 q18 0 35.5 -1t35.5 -3q41 -2 82 -12.5t78 -28.5q68 29 143.5 45t151.5 16q35 0 71 -4t68 -12q2 0 5.5 -1t7.5 -1q59 -18 110 -59.5t53 -110.5q6 -111 -87 -177.5t-203 -95.5q-55 -14 -108.5 -20t-94.5 -4q6 -68 45 -111t109 -43q129 0 219 87t157 190q6 10 11.5 19t11.5 18 l104 -48q-4 -10 -9 -20l-9 -18q-45 -88 -112.5 -168t-153.5 -125q-61 -29 -134 -45.5t-149 -16.5q-109 2 -211 37t-172 115q-45 -49 -111.5 -83t-136.5 -40q-10 0 -19 -1t-20 -1q-23 0 -45 3t-45 9q-63 23 -107 74.5t-44 114.5zM293 166q4 -27 18.5 -43.5t38.5 -13.5h3h3h4 q59 6 89 52t47 99q6 23 12 43.5t10 38.5q0 2 1 3t1 3h-20h-23q-4 -2 -8 -2h-8q-6 0 -12.5 -2t-12.5 -2q-53 -16 -99 -61t-44 -103v-5v-7zM866 365q20 2 41 5t41 9q61 16 116.5 53t78.5 96q6 16 9 31.5t3 30.5q0 23 -13.5 39t-47.5 18q-68 2 -118 -53t-77 -123 q-12 -29 -20.5 -56t-12.5 -50z" />
<glyph unicode="&#xe7;" horiz-adv-x="956" d="M25 342q0 94 57 179t147 136q59 33 145.5 56.5t176.5 27.5q12 2 22 2h21q78 0 147.5 -18t120.5 -63q25 -25 41.5 -59t20.5 -71v-7v-7q0 -27 -9.5 -53.5t-27.5 -46.5q-23 -27 -53.5 -39t-65.5 -12h-9q-5 0 -11 2q-18 2 -38 9t-36 17q-27 16 -43.5 42t-20.5 55v4v6 q-2 2 -2 4v4q0 47 31 82t76 47q-12 4 -24.5 7t-26.5 1h-12q-5 0 -11 -2q-6 0 -11 -2t-12 -4q-72 -25 -124 -101.5t-70 -164.5q-4 -18 -6 -39t-2 -39q2 -80 43 -138.5t135 -58.5q158 0 256 87t162 216l96 -43q-4 -6 -7 -13t-5 -13q-47 -96 -104.5 -171t-164.5 -126 q-63 -29 -140 -44.5t-157 -15.5h-13h-13q-119 6 -228.5 46t-179.5 129q-37 47 -54 95t-17 97zM184 -270q10 14 21.5 29.5t19.5 29.5q23 -6 44.5 -11t43.5 -9q23 -2 44.5 -4.5t43.5 -2.5h34q19 0 42 5q29 2 55.5 12t36.5 31q2 2 2 4v4v3q0 1 -2 1q0 2 -2 3t-4 3 q-8 6 -20.5 10t-26.5 8q-20 2 -39.5 4.5t-40.5 2.5q-33 0 -65.5 -3.5t-65.5 -5.5q18 29 39 58.5t43 60.5q12 20 26.5 38.5t28.5 39.5l82 -45q-6 -8 -13 -18.5t-13 -20.5q-4 -4 -8.5 -10t-8.5 -10q18 0 37 -2.5t37 -6.5q14 -2 27 -4l24 -4l17 -4q8 -2 14 -6 q35 -12 63.5 -33.5t28.5 -60.5v-3v-3q-2 -2 -2 -5v-4v-2q-6 -41 -39 -66.5t-72 -37.5q-6 -2 -11 -3t-11 -3q-35 -10 -78 -13.5t-88 -3.5q-14 0 -29.5 1t-29.5 3q-39 4 -76 13.5t-72 23.5q-4 2 -9 4t-9 4t-9.5 4.5t-9.5 4.5z" />
<glyph unicode="&#xe8;" horiz-adv-x="940" d="M20 336q0 29 5.5 58.5t15.5 60.5q41 123 166 191.5t266 86.5q31 4 60.5 6t58.5 2q43 0 84 -4t76 -14q6 -2 11 -3t11 -3q59 -16 111.5 -57.5t54.5 -110.5q4 -111 -92 -174.5t-211 -91.5q-63 -16 -122.5 -22.5t-102.5 -4.5q10 -74 56 -114t122 -40q154 0 258 86t164 218 l102 -48q-51 -102 -114.5 -186t-176.5 -137q-68 -31 -142.5 -45.5t-152.5 -14.5h-24q-12 0 -23 2q-49 2 -96 11.5t-92 23.5q-119 41 -196 125t-77 199zM334 956q0 8 2 15.5t4 15.5q10 25 35.5 36t52.5 11q18 0 34.5 -4t29.5 -12q16 -8 32.5 -22.5t36.5 -34.5 q29 -29 54.5 -62t50.5 -65l9 -13.5l9 -13.5q-14 2 -29.5 2t-29.5 2q-31 2 -59.5 4t-59.5 4q-27 4 -52.5 9.5t-43.5 13.5q-29 16 -52.5 47.5t-23.5 66.5zM426 373q25 2 51.5 6t52.5 12q78 20 142.5 67.5t66.5 131.5q0 35 -18.5 49t-52.5 16q-76 2 -131.5 -57t-83.5 -131 q-10 -25 -16.5 -49.5t-10.5 -44.5z" />
<glyph unicode="&#xe9;" horiz-adv-x="940" d="M20 336q0 29 5.5 58.5t15.5 60.5q41 123 166 191.5t266 86.5q31 4 60.5 6t58.5 2q43 0 84 -4t76 -14q6 -2 11 -3t11 -3q59 -16 111.5 -57.5t54.5 -110.5q4 -111 -92 -174.5t-211 -91.5q-63 -16 -122.5 -22.5t-102.5 -4.5q10 -74 56 -114t122 -40q154 0 258 86t164 218 l102 -48q-51 -102 -114.5 -186t-176.5 -137q-68 -31 -142.5 -45.5t-152.5 -14.5h-24q-12 0 -23 2q-49 2 -96 11.5t-92 23.5q-119 41 -196 125t-77 199zM426 373q25 2 51.5 6t52.5 12q78 20 142.5 67.5t66.5 131.5q0 35 -18.5 49t-52.5 16q-76 2 -131.5 -57t-83.5 -131 q-10 -25 -16.5 -49.5t-10.5 -44.5zM528 784q4 6 9.5 13.5t9.5 13.5q25 33 50.5 65.5t53.5 61.5q20 20 38 34.5t32 22.5t30.5 12.5t34.5 4.5h5h4q25 -2 46 -13.5t31 -33.5q4 -8 5.5 -15.5t1.5 -15.5q-2 -37 -25 -67.5t-51 -47.5q-18 -8 -43 -13t-53 -9q-29 -2 -59 -4t-60 -5 q-14 -2 -30 -2t-30 -2z" />
<glyph unicode="&#xea;" horiz-adv-x="940" d="M20 336q0 29 5.5 58.5t15.5 60.5q41 123 166 191.5t266 86.5q31 4 60.5 6t58.5 2q43 0 84 -4t76 -14q6 -2 11 -3t11 -3q59 -16 111.5 -57.5t54.5 -110.5q4 -111 -92 -174.5t-211 -91.5q-63 -16 -122.5 -22.5t-102.5 -4.5q10 -74 56 -114t122 -40q154 0 258 86t164 218 l102 -48q-51 -102 -114.5 -186t-176.5 -137q-68 -31 -142.5 -45.5t-152.5 -14.5h-24q-12 0 -23 2q-49 2 -96 11.5t-92 23.5q-119 41 -196 125t-77 199zM221 741l461 303l248 -317l-309 107zM426 373q25 2 51.5 6t52.5 12q78 20 142.5 67.5t66.5 131.5q0 35 -18.5 49 t-52.5 16q-76 2 -131.5 -57t-83.5 -131q-10 -25 -16.5 -49.5t-10.5 -44.5z" />
<glyph unicode="&#xeb;" horiz-adv-x="940" d="M20 336q0 29 5.5 58.5t15.5 60.5q41 123 166 191.5t266 86.5q31 4 60.5 6t58.5 2q43 0 84 -4t76 -14q6 -2 11 -3t11 -3q59 -16 111.5 -57.5t54.5 -110.5q4 -111 -92 -174.5t-211 -91.5q-63 -16 -122.5 -22.5t-102.5 -4.5q10 -74 56 -114t122 -40q154 0 258 86t164 218 l102 -48q-51 -102 -114.5 -186t-176.5 -137q-68 -31 -142.5 -45.5t-152.5 -14.5h-24q-12 0 -23 2q-49 2 -96 11.5t-92 23.5q-119 41 -196 125t-77 199zM322 903q0 43 34.5 65.5t77.5 24.5h5h5q25 0 48.5 -6t37.5 -18q16 -12 22.5 -28.5t6.5 -37.5q0 -45 -33.5 -66.5 t-74.5 -25.5h-9h-8q-45 0 -78.5 20.5t-33.5 71.5zM426 373q25 2 51.5 6t52.5 12q78 20 142.5 67.5t66.5 131.5q0 35 -18.5 49t-52.5 16q-76 2 -131.5 -57t-83.5 -131q-10 -25 -16.5 -49.5t-10.5 -44.5zM600 903q0 45 36 66.5t79 23.5h3h3h7h5q20 -2 40 -8t32 -16 q16 -12 24.5 -28.5t8.5 -37.5q0 -43 -32 -64.5t-71 -25.5q-6 -2 -11 -2h-11q-45 0 -79 20.5t-34 71.5z" />
<glyph unicode="&#xec;" horiz-adv-x="800" d="M37 209q0 35 7 70.5t17 68.5q33 94 65 187.5t64 187.5h203h201q-18 -55 -37.5 -111.5t-40.5 -111.5q-20 -57 -39.5 -113.5t-38.5 -112.5q0 -2 -1 -5t-3 -7q-4 -12 -7 -23.5t-3 -21.5q2 -12 11 -20.5t32 -6.5q16 0 39.5 13.5t50.5 38.5q35 35 57.5 71.5t42.5 77.5l3.5 7 t3.5 8l17 -8.5l17 -8.5l9 -4l8 -4q12 -6 25.5 -12.5t25.5 -12.5q-4 -10 -9 -19t-12 -20q-31 -66 -69.5 -127t-93.5 -110q-53 -45 -122 -69.5t-141 -28.5h-9h-11q-31 0 -60.5 4t-58.5 14q-80 27 -111.5 84t-31.5 125zM193 928q0 8 2 15t4 15q10 25 35.5 36.5t52.5 11.5 q18 0 34.5 -4.5t28.5 -12.5q16 -8 32.5 -22.5t37.5 -34.5q29 -29 54.5 -61.5t49.5 -65.5q4 -6 9.5 -13.5t9.5 -13.5q-14 2 -29.5 2t-30.5 2q-29 2 -58.5 4t-59.5 5q-27 4 -52.5 9t-44.5 13q-29 16 -52 48t-23 67z" />
<glyph unicode="&#xed;" horiz-adv-x="800" d="M37 209q0 35 7 70.5t17 68.5q33 94 65 187.5t64 187.5h203h201q-18 -55 -37.5 -111.5t-40.5 -111.5q-20 -57 -39.5 -113.5t-38.5 -112.5q0 -2 -1 -5t-3 -7q-4 -12 -7 -23.5t-3 -21.5q2 -12 11 -20.5t32 -6.5q16 0 39.5 13.5t50.5 38.5q35 35 57.5 71.5t42.5 77.5l3.5 7 t3.5 8l17 -8.5l17 -8.5l9 -4l8 -4q12 -6 25.5 -12.5t25.5 -12.5q-4 -10 -9 -19t-12 -20q-31 -66 -69.5 -127t-93.5 -110q-53 -45 -122 -69.5t-141 -28.5h-9h-11q-31 0 -60.5 4t-58.5 14q-80 27 -111.5 84t-31.5 125zM352 778q4 6 9.5 13.5t9.5 13.5q25 33 50 65.5t54 61.5 q20 20 37.5 34.5t32.5 22.5q14 8 30.5 12.5t34.5 4.5h4h4q25 -2 46.5 -13.5t31.5 -34.5q4 -8 5 -15t1 -15q-2 -37 -24.5 -68t-50.5 -47q-18 -8 -43 -13t-54 -9q-29 -2 -59.5 -4.5t-58.5 -4.5q-14 -2 -30 -2t-30 -2z" />
<glyph unicode="&#xee;" horiz-adv-x="800" d="M35 754l461 303l247 -318l-309 107zM37 209q0 35 7 70.5t17 68.5q33 94 65 187.5t64 187.5h203h201q-18 -55 -37.5 -111.5t-40.5 -111.5q-20 -57 -39.5 -113.5t-38.5 -112.5q0 -2 -1 -5t-3 -7q-4 -12 -7 -23.5t-3 -21.5q2 -12 11 -20.5t32 -6.5q16 0 39.5 13.5t50.5 38.5 q35 35 57.5 71.5t42.5 77.5l3.5 7t3.5 8l17 -8.5l17 -8.5l9 -4l8 -4q12 -6 25.5 -12.5t25.5 -12.5q-4 -10 -9 -19t-12 -20q-31 -66 -69.5 -127t-93.5 -110q-53 -45 -122 -69.5t-141 -28.5h-9h-11q-31 0 -60.5 4t-58.5 14q-80 27 -111.5 84t-31.5 125z" />
<glyph unicode="&#xef;" horiz-adv-x="800" d="M37 209q0 35 7 70.5t17 68.5q33 94 65 187.5t64 187.5h203h201q-18 -55 -37.5 -111.5t-40.5 -111.5q-20 -57 -39.5 -113.5t-38.5 -112.5q0 -2 -1 -5t-3 -7q-4 -12 -7 -23.5t-3 -21.5q2 -12 11 -20.5t32 -6.5q16 0 39.5 13.5t50.5 38.5q35 35 57.5 71.5t42.5 77.5l3.5 7 t3.5 8l17 -8.5l17 -8.5l9 -4l8 -4q12 -6 25.5 -12.5t25.5 -12.5q-4 -10 -9 -19t-12 -20q-31 -66 -69.5 -127t-93.5 -110q-53 -45 -122 -69.5t-141 -28.5h-9h-11q-31 0 -60.5 4t-58.5 14q-80 27 -111.5 84t-31.5 125zM104 909q0 45 37 66.5t82 23.5h3h3q25 0 47.5 -6 t36.5 -18q16 -12 23.5 -28.5t7.5 -37.5q0 -43 -31.5 -64.5t-70.5 -25.5q-6 -2 -12 -2h-11q-45 0 -80 20.5t-35 71.5zM385 909q0 45 36 66.5t79 23.5h3h3h7h5q20 -2 40 -8t32 -16q16 -12 23.5 -28.5t7.5 -37.5q0 -43 -32 -64.5t-71 -25.5q-6 -2 -11 -2h-11q-45 0 -78 20.5 t-33 71.5z" />
<glyph unicode="&#xf0;" horiz-adv-x="1204" d="M61 330q0 113 48.5 200.5t146.5 151.5q96 63 220 94t276 33h16q8 0 16 -2q31 -2 63 -10.5t60 -22.5q6 20 9.5 36.5t5.5 29.5q0 59 -9.5 105t-29.5 85l-168 -90l-17 98l131 68q-33 31 -76.5 46t-97.5 15l41 115q84 0 158 -22.5t137 -67.5l22 11l48 24q27 14 48 25l21 12 v-101l-63 -37q6 -4 11 -10t9 -12q80 -88 120 -197.5t42 -240.5q0 -145 -52 -268.5t-155 -221.5q-102 -96 -237 -144t-303 -50q-100 0 -179 23.5t-141 72.5q-59 49 -90 112.5t-31 139.5zM403 238q0 -78 31 -118t94 -40q59 0 111.5 37t101.5 108q47 74 72 147.5t27 147.5 q0 39 -6.5 70t-22.5 53q-12 25 -33.5 36t-50.5 11q-61 0 -116.5 -38t-106.5 -115q-51 -76 -76 -150.5t-25 -148.5z" />
<glyph unicode="&#xf1;" horiz-adv-x="1218" d="M14 0q61 180 123 359.5t125 359.5h381l-4 -12l-4 -13q-4 -8 -6 -14l-4 -12q47 27 105 46t120 25q10 2 20 2h21q59 0 113.5 -19.5t95.5 -64.5q27 -29 39 -63.5t12 -71.5q0 -8 -1 -18t-3 -19q-2 -10 -4 -19t-6 -20q-6 -20 -14.5 -41.5t-14.5 -44.5q-8 -20 -16.5 -41.5 t-14.5 -44.5q-2 -4 -4 -10t-4 -14q-2 -4 -4 -9t-2 -12q-2 -4 -3 -10t-1 -10q0 -10 6 -17.5t20 -7.5q12 0 23.5 4.5t24.5 10.5q25 16 50 41.5t46 52.5q16 20 28.5 40.5t18.5 37.5l4 8q2 4 4 10q0 4 2 8l4 9l103 -50q-74 -156 -181.5 -265t-296.5 -109q-12 0 -24 1t-25 1 q-51 6 -98 24.5t-78 59.5q-20 29 -29.5 60.5t-9.5 64.5q0 16 2 32.5t4 30.5q6 33 17.5 65.5t21.5 61.5q2 6 8.5 20.5t14.5 32.5q2 10 5 19.5t7 19.5q4 16 7 31.5t3 28.5q0 16 -7 27t-23 11q-20 0 -47 -19t-62 -67q-49 -70 -84 -150.5t-65 -164.5q-12 -39 -24.5 -77 t-25.5 -75q-2 -4 -4 -9t-4 -11h-381zM403 823q45 92 124 138.5t188 46.5q35 0 77 -8.5t89 -24.5q6 -2 13 -4t13 -4q18 -4 38 -9.5t40 -7.5q12 -2 23.5 -3t23.5 -1q16 0 30.5 2t29.5 8q12 6 27.5 13.5t35.5 15.5q-8 -33 -34.5 -65.5t-73.5 -61.5q-45 -31 -93.5 -45 t-101.5 -14q-33 0 -75 9t-93 26q-8 2 -16.5 5t-16.5 5q-18 6 -37.5 11t-40.5 9q-12 2 -23 3t-22 1q-12 0 -24 -2t-25 -6q-10 -2 -28.5 -11.5t-47.5 -25.5z" />
<glyph unicode="&#xf2;" horiz-adv-x="1181" d="M31 297q0 96 57 184t152 150q82 53 184 83.5t211 30.5q16 0 31.5 -1t31.5 -1q88 -8 172 -37.5t148 -89.5q55 -49 83.5 -111.5t28.5 -129.5q0 -25 -4 -49.5t-12 -49.5q29 4 50.5 15.5t41.5 36.5q12 12 24.5 31.5t26.5 43.5l111 -49q-12 -25 -28.5 -58.5t-36.5 -68.5 q-39 -68 -95.5 -124t-132.5 -56q-31 0 -58.5 9.5t-51.5 23.5q-80 -66 -187.5 -102.5t-220.5 -43.5h-17h-20q-106 0 -204.5 32t-172.5 95q-59 53 -85.5 114t-26.5 122zM416 944q0 8 2 15.5t4 15.5q10 25 35.5 36t52.5 11q18 0 34.5 -4t28.5 -12q16 -8 33 -22.5t37 -35.5 q29 -29 54.5 -61.5t50.5 -65.5q4 -6 9 -13t9 -13q-14 2 -29.5 2t-29.5 2q-31 2 -60 4t-59 4q-27 4 -52.5 9t-43.5 13q-29 16 -52.5 48t-23.5 67zM451 197q0 -12 1 -31t5 -37q6 -35 21.5 -62.5t47.5 -27.5q51 0 91 36t65 81q6 10 12 19t11 20q-33 23 -50.5 56.5t-17.5 72.5v8 v6q6 61 46 115.5t101 70.5q-2 63 -23.5 91t-53.5 28q-20 0 -45 -11t-50 -32q-10 -8 -19 -18.5t-20 -20.5q-47 -55 -75.5 -125.5t-40.5 -144.5q-2 -25 -4 -48t-2 -46z" />
<glyph unicode="&#xf3;" horiz-adv-x="1181" d="M31 297q0 96 57 184t152 150q82 53 184 83.5t211 30.5q16 0 31.5 -1t31.5 -1q88 -8 172 -37.5t148 -89.5q55 -49 83.5 -111.5t28.5 -129.5q0 -25 -4 -49.5t-12 -49.5q29 4 50.5 15.5t41.5 36.5q12 12 24.5 31.5t26.5 43.5l111 -49q-12 -25 -28.5 -58.5t-36.5 -68.5 q-39 -68 -95.5 -124t-132.5 -56q-31 0 -58.5 9.5t-51.5 23.5q-80 -66 -187.5 -102.5t-220.5 -43.5h-17h-20q-106 0 -204.5 32t-172.5 95q-59 53 -85.5 114t-26.5 122zM451 197q0 -12 1 -31t5 -37q6 -35 21.5 -62.5t47.5 -27.5q51 0 91 36t65 81q6 10 12 19t11 20 q-33 23 -50.5 56.5t-17.5 72.5v8v6q6 61 46 115.5t101 70.5q-2 63 -23.5 91t-53.5 28q-20 0 -45 -11t-50 -32q-10 -8 -19 -18.5t-20 -20.5q-47 -55 -75.5 -125.5t-40.5 -144.5q-2 -25 -4 -48t-2 -46zM586 791q4 6 9 13t9 13q25 33 50.5 65.5t54.5 61.5q20 20 37.5 34.5 t31.5 22.5t30.5 12.5t35.5 4.5h4h4q25 -2 46.5 -13.5t31.5 -33.5q4 -8 5 -15.5t1 -15.5q-2 -37 -24.5 -67.5t-51.5 -47.5q-18 -8 -42.5 -13t-53.5 -9q-29 -2 -58.5 -4t-60.5 -4q-14 -2 -29.5 -2t-29.5 -2z" />
<glyph unicode="&#xf4;" horiz-adv-x="1181" d="M31 297q0 96 57 184t152 150q82 53 184 83.5t211 30.5q16 0 31.5 -1t31.5 -1q88 -8 172 -37.5t148 -89.5q55 -49 83.5 -111.5t28.5 -129.5q0 -25 -4 -49.5t-12 -49.5q29 4 50.5 15.5t41.5 36.5q12 12 24.5 31.5t26.5 43.5l111 -49q-12 -25 -28.5 -58.5t-36.5 -68.5 q-39 -68 -95.5 -124t-132.5 -56q-31 0 -58.5 9.5t-51.5 23.5q-80 -66 -187.5 -102.5t-220.5 -43.5h-17h-20q-106 0 -204.5 32t-172.5 95q-59 53 -85.5 114t-26.5 122zM268 754l461 303l248 -318l-309 107zM451 197q0 -12 1 -31t5 -37q6 -35 21.5 -62.5t47.5 -27.5 q51 0 91 36t65 81q6 10 12 19t11 20q-33 23 -50.5 56.5t-17.5 72.5v8v6q6 61 46 115.5t101 70.5q-2 63 -23.5 91t-53.5 28q-20 0 -45 -11t-50 -32q-10 -8 -19 -18.5t-20 -20.5q-47 -55 -75.5 -125.5t-40.5 -144.5q-2 -25 -4 -48t-2 -46z" />
<glyph unicode="&#xf5;" horiz-adv-x="1181" d="M31 297q0 96 57 184t152 150q82 53 184 83.5t211 30.5q16 0 31.5 -1t31.5 -1q88 -8 172 -37.5t148 -89.5q55 -49 83.5 -111.5t28.5 -129.5q0 -25 -4 -49.5t-12 -49.5q29 4 50.5 15.5t41.5 36.5q12 12 24.5 31.5t26.5 43.5l111 -49q-12 -25 -28.5 -58.5t-36.5 -68.5 q-39 -68 -95.5 -124t-132.5 -56q-31 0 -58.5 9.5t-51.5 23.5q-80 -66 -187.5 -102.5t-220.5 -43.5h-17h-20q-106 0 -204.5 32t-172.5 95q-59 53 -85.5 114t-26.5 122zM340 829q45 92 124 138.5t187 46.5q35 0 77 -8.5t89 -24.5q6 -2 13.5 -4t13.5 -4q18 -4 37.5 -9.5 t40.5 -7.5q12 -2 23 -3t24 -1q16 0 30.5 2t28.5 9q12 6 27.5 13t36.5 15q-8 -33 -35 -65.5t-74 -61.5q-45 -31 -93 -45t-102 -14q-33 0 -74.5 9t-92.5 26q-8 2 -16.5 5t-16.5 5q-18 6 -38 11t-40 9q-12 2 -23.5 3t-21.5 1q-12 0 -24.5 -2t-24.5 -6q-10 -2 -28.5 -11.5 t-47.5 -25.5zM451 197q0 -12 1 -31t5 -37q6 -35 21.5 -62.5t47.5 -27.5q51 0 91 36t65 81q6 10 12 19t11 20q-33 23 -50.5 56.5t-17.5 72.5v8v6q6 61 46 115.5t101 70.5q-2 63 -23.5 91t-53.5 28q-20 0 -45 -11t-50 -32q-10 -8 -19 -18.5t-20 -20.5q-47 -55 -75.5 -125.5 t-40.5 -144.5q-2 -25 -4 -48t-2 -46z" />
<glyph unicode="&#xf6;" horiz-adv-x="1181" d="M31 297q0 96 57 184t152 150q82 53 184 83.5t211 30.5q16 0 31.5 -1t31.5 -1q88 -8 172 -37.5t148 -89.5q55 -49 83.5 -111.5t28.5 -129.5q0 -25 -4 -49.5t-12 -49.5q29 4 50.5 15.5t41.5 36.5q12 12 24.5 31.5t26.5 43.5l111 -49q-12 -25 -28.5 -58.5t-36.5 -68.5 q-39 -68 -95.5 -124t-132.5 -56q-31 0 -58.5 9.5t-51.5 23.5q-80 -66 -187.5 -102.5t-220.5 -43.5h-17h-20q-106 0 -204.5 32t-172.5 95q-59 53 -85.5 114t-26.5 122zM381 903q0 47 39 68.5t84 21.5q25 0 47 -6t39 -18q14 -12 21 -28.5t7 -37.5q0 -45 -33.5 -66.5 t-74.5 -25.5h-8h-8q-45 0 -79 20.5t-34 71.5zM451 197q0 -12 1 -31t5 -37q6 -35 21.5 -62.5t47.5 -27.5q51 0 91 36t65 81q6 10 12 19t11 20q-33 23 -50.5 56.5t-17.5 72.5v8v6q6 61 46 115.5t101 70.5q-2 63 -23.5 91t-53.5 28q-20 0 -45 -11t-50 -32q-10 -8 -19 -18.5 t-20 -20.5q-47 -55 -75.5 -125.5t-40.5 -144.5q-2 -25 -4 -48t-2 -46zM659 903q0 47 37 68.5t82 21.5q25 0 47.5 -6t38.5 -18t23.5 -28.5t7.5 -37.5q0 -45 -34 -66.5t-75 -25.5h-8h-8q-45 0 -78 20.5t-33 71.5z" />
<glyph unicode="&#xf7;" />
<glyph unicode="&#xf8;" horiz-adv-x="1181" d="M31 297q0 96 57 184t152 150q82 53 184 83.5t211 30.5q16 0 31.5 -1t31.5 -1q88 -8 172 -37.5t148 -89.5q55 -49 83.5 -111.5t28.5 -129.5q0 -25 -4 -49.5t-12 -49.5q29 4 50.5 15.5t41.5 36.5q12 12 24.5 31.5t26.5 43.5l111 -49q-12 -25 -28.5 -58.5t-36.5 -68.5 q-39 -68 -95.5 -124t-132.5 -56q-31 0 -58.5 9.5t-51.5 23.5q-80 -66 -187.5 -102.5t-220.5 -43.5h-17h-20q-106 0 -204.5 32t-172.5 95q-59 53 -85.5 114t-26.5 122zM96 -82l959 961l78 -80l-959 -959zM451 197q0 -12 1 -31t5 -37q6 -35 21.5 -62.5t47.5 -27.5q51 0 91 36 t65 81q6 10 12 19t11 20q-33 23 -50.5 56.5t-17.5 72.5v8v6q6 61 46 115.5t101 70.5q-2 63 -23.5 91t-53.5 28q-20 0 -45 -11t-50 -32q-10 -8 -19 -18.5t-20 -20.5q-47 -55 -75.5 -125.5t-40.5 -144.5q-2 -25 -4 -48t-2 -46z" />
<glyph unicode="&#xf9;" horiz-adv-x="1132" d="M20 209q0 31 6.5 61.5t16.5 59.5q18 51 35.5 101t34.5 99q16 51 33.5 101.5t35.5 99.5h389q-20 -57 -39.5 -114.5t-37.5 -114.5q-20 -57 -40 -114.5t-40 -115.5q-2 -8 -5 -17t-3 -17q0 -12 7 -20.5t25 -8.5q20 0 50 15.5t65 58.5q45 51 77 119.5t58 140.5 q10 33 21.5 66.5t23.5 66.5q2 8 5 15t5 16q0 4 1 7t4 5q0 2 1 3l1 1q0 2 1 4t1 4h64h65h128h130q-20 -55 -40 -111.5t-38 -111.5q-18 -57 -37.5 -113.5t-40.5 -111.5q-6 -16 -8 -29.5t-2 -24.5q0 -16 7 -23t19 -7t26.5 6t31.5 14l20 17l21 16q39 35 63.5 75t44.5 87l105 -49 q-2 -4 -5 -9.5t-6 -11.5q-35 -70 -76.5 -137.5t-101.5 -118.5q-57 -47 -127.5 -72.5t-163.5 -25.5q-88 0 -153.5 41t-79.5 133q-70 -74 -163 -125t-199 -51q-111 0 -163.5 66.5t-52.5 154.5zM420 934q0 8 2 15t4 16q10 25 35.5 36t52.5 11q18 0 34.5 -4t29.5 -13 q16 -8 32.5 -22.5t36.5 -34.5q29 -29 54.5 -61.5t50.5 -65.5q4 -6 9 -13t9 -14q-14 2 -29.5 2t-29.5 2q-31 2 -59.5 4.5t-59.5 4.5q-27 4 -52.5 9t-43.5 13q-29 16 -52.5 48t-23.5 67z" />
<glyph unicode="&#xfa;" horiz-adv-x="1132" d="M20 209q0 31 6.5 61.5t16.5 59.5q18 51 35.5 101t34.5 99q16 51 33.5 101.5t35.5 99.5h389q-20 -57 -39.5 -114.5t-37.5 -114.5q-20 -57 -40 -114.5t-40 -115.5q-2 -8 -5 -17t-3 -17q0 -12 7 -20.5t25 -8.5q20 0 50 15.5t65 58.5q45 51 77 119.5t58 140.5 q10 33 21.5 66.5t23.5 66.5q2 8 5 15t5 16q0 4 1 7t4 5q0 2 1 3l1 1q0 2 1 4t1 4h64h65h128h130q-20 -55 -40 -111.5t-38 -111.5q-18 -57 -37.5 -113.5t-40.5 -111.5q-6 -16 -8 -29.5t-2 -24.5q0 -16 7 -23t19 -7t26.5 6t31.5 14l20 17l21 16q39 35 63.5 75t44.5 87l105 -49 q-2 -4 -5 -9.5t-6 -11.5q-35 -70 -76.5 -137.5t-101.5 -118.5q-57 -47 -127.5 -72.5t-163.5 -25.5q-88 0 -153.5 41t-79.5 133q-70 -74 -163 -125t-199 -51q-111 0 -163.5 66.5t-52.5 154.5zM604 778l9 13.5t10 13.5q25 33 50 65.5t54 61.5q20 20 37.5 34.5t32.5 22.5 q14 8 30.5 12.5t34.5 4.5h4h4q25 -2 46.5 -13.5t31.5 -34.5q4 -8 5 -15t1 -15q-2 -37 -24.5 -68t-50.5 -47q-18 -8 -43 -13t-54 -9q-29 -2 -58.5 -4.5t-59.5 -4.5q-14 -2 -30 -2t-30 -2z" />
<glyph unicode="&#xfb;" horiz-adv-x="1132" d="M20 209q0 31 6.5 61.5t16.5 59.5q18 51 35.5 101t34.5 99q16 51 33.5 101.5t35.5 99.5h389q-20 -57 -39.5 -114.5t-37.5 -114.5q-20 -57 -40 -114.5t-40 -115.5q-2 -8 -5 -17t-3 -17q0 -12 7 -20.5t25 -8.5q20 0 50 15.5t65 58.5q45 51 77 119.5t58 140.5 q10 33 21.5 66.5t23.5 66.5q2 8 5 15t5 16q0 4 1 7t4 5q0 2 1 3l1 1q0 2 1 4t1 4h64h65h128h130q-20 -55 -40 -111.5t-38 -111.5q-18 -57 -37.5 -113.5t-40.5 -111.5q-6 -16 -8 -29.5t-2 -24.5q0 -16 7 -23t19 -7t26.5 6t31.5 14l20 17l21 16q39 35 63.5 75t44.5 87l105 -49 q-2 -4 -5 -9.5t-6 -11.5q-35 -70 -76.5 -137.5t-101.5 -118.5q-57 -47 -127.5 -72.5t-163.5 -25.5q-88 0 -153.5 41t-79.5 133q-70 -74 -163 -125t-199 -51q-111 0 -163.5 66.5t-52.5 154.5zM315 770l461 303l248 -317l-309 106z" />
<glyph unicode="&#xfc;" horiz-adv-x="1132" d="M20 209q0 31 6.5 61.5t16.5 59.5q18 51 35.5 101t34.5 99q16 51 33.5 101.5t35.5 99.5h389q-20 -57 -39.5 -114.5t-37.5 -114.5q-20 -57 -40 -114.5t-40 -115.5q-2 -8 -5 -17t-3 -17q0 -12 7 -20.5t25 -8.5q20 0 50 15.5t65 58.5q45 51 77 119.5t58 140.5 q10 33 21.5 66.5t23.5 66.5q2 8 5 15t5 16q0 4 1 7t4 5q0 2 1 3l1 1q0 2 1 4t1 4h64h65h128h130q-20 -55 -40 -111.5t-38 -111.5q-18 -57 -37.5 -113.5t-40.5 -111.5q-6 -16 -8 -29.5t-2 -24.5q0 -16 7 -23t19 -7t26.5 6t31.5 14l20 17l21 16q39 35 63.5 75t44.5 87l105 -49 q-2 -4 -5 -9.5t-6 -11.5q-35 -70 -76.5 -137.5t-101.5 -118.5q-57 -47 -127.5 -72.5t-163.5 -25.5q-88 0 -153.5 41t-79.5 133q-70 -74 -163 -125t-199 -51q-111 0 -163.5 66.5t-52.5 154.5zM381 903q0 47 39 68.5t84 21.5q25 0 47 -6t39 -18q14 -12 21 -28.5t7 -37.5 q0 -45 -33.5 -66.5t-74.5 -25.5h-8h-8q-45 0 -79 20.5t-34 71.5zM659 903q0 47 37 68.5t82 21.5q25 0 47.5 -6t38.5 -18t23.5 -28.5t7.5 -37.5q0 -45 -34 -66.5t-75 -25.5h-8h-8q-45 0 -78 20.5t-33 71.5z" />
<glyph unicode="&#xfd;" horiz-adv-x="649" />
<glyph unicode="&#xfe;" horiz-adv-x="1218" d="M-141 -473q63 176 139 397t156 453q80 231 156.5 454.5t138.5 397.5h382l-194 -555q47 25 107.5 43t121.5 22h12h11q59 0 114.5 -19.5t94.5 -64.5q27 -29 38 -62.5t11 -68.5q0 -20 -3 -39.5t-11 -40.5q-6 -20 -13.5 -41.5t-15.5 -44.5q-2 -6 -5 -13t-5 -15 q-4 -14 -9.5 -28.5t-9.5 -29.5l-4 -8q-2 -4 -4 -10q-2 -4 -3 -9t-3 -12q-2 -6 -3 -12t-1 -12q0 -10 5 -17.5t19 -7.5q10 0 20.5 3t20.5 8q29 14 55.5 40.5t49.5 55.5q14 23 26.5 43t18.5 35l4 8l4 8l4 8l4 8l103 -47q-76 -156 -181.5 -264t-296.5 -108q-12 0 -25.5 1 t-25.5 1q-51 6 -98 23.5t-78 58.5q-20 29 -28.5 59.5t-8.5 62.5v17q0 8 2 18q4 37 15.5 75t23.5 73q2 4 3 7t3 7q2 6 8.5 19.5t12.5 29.5q4 10 7 19.5t7 19.5q4 14 6 28.5t2 26.5q0 16 -7 26.5t-23 10.5q-41 0 -80 -47t-68 -104q-20 -39 -35.5 -76t-21.5 -57 q-33 -94 -67 -187.5t-64 -187.5q-8 -18 -14.5 -38t-12.5 -38q-27 -76 -52.5 -150.5t-51.5 -150.5z" />
<glyph unicode="&#xff;" horiz-adv-x="1052" d="M-80 -223q2 55 41 95t94 50q10 2 19.5 3t17.5 1q74 -2 119 -49t45 -104v-3v-3q0 -41 -25.5 -79t-80.5 -57q4 -2 9 -4t11 -2q4 -2 9 -2h9q109 -2 171.5 83t101.5 190q18 51 33.5 100t27.5 88q-45 -35 -105.5 -61.5t-125.5 -36.5q-12 -2 -25.5 -3t-27.5 -1q-51 0 -97.5 19 t-79.5 69q-18 29 -26 62.5t-8 66.5t6 64.5t16 60.5q18 49 35.5 99t34.5 101q16 51 33.5 101.5t33.5 99.5h392q-20 -57 -40 -114.5t-40 -114.5t-40 -114.5t-38 -115.5q-2 -4 -4 -10t-2 -14q-2 -2 -2 -5v-8q0 -8 4 -15t12 -11q6 -2 12 -3t13 -1q59 0 112 85t92 185 q33 82 54.5 154.5t31.5 101.5h392l-74 -217l-74 -217q-39 -109 -76 -216.5t-73 -215.5q-47 -139 -187.5 -229.5t-296.5 -110.5q-20 -2 -39.5 -3t-38.5 -1q-63 0 -123.5 14t-111.5 45q-49 31 -76.5 72t-40.5 98q0 4 -1 8t-1 8q-2 4 -2 9v8zM410 891q0 45 34.5 67.5t77.5 24.5 h5h5q25 0 48.5 -6t37.5 -19q14 -14 21.5 -29.5t7.5 -37.5q0 -45 -33.5 -66.5t-74.5 -25.5h-9h-8q-45 0 -78.5 20.5t-33.5 71.5zM688 891q0 47 36 68.5t79 23.5h3h3q25 0 47.5 -6t36.5 -19q16 -14 23.5 -29.5t7.5 -37.5q0 -45 -34 -66.5t-75 -25.5h-8h-8q-45 0 -78 20.5 t-33 71.5z" />
<glyph unicode="&#x152;" horiz-adv-x="2050" d="M33 471q0 311 248.5 512t545.5 201q31 0 61 -1t60 -5q96 -10 187.5 -41t162.5 -95q51 68 134.5 104t173.5 52q53 8 103 12t95 4q35 0 85 -5t104 -17q90 -20 165.5 -67.5t75.5 -131.5v-4v-4q-2 -4 -2 -6v-4q-6 -63 -51 -90t-102 -27q-29 0 -57.5 6t-53.5 17 q-20 8 -31.5 12t-15.5 8q-2 2 -2 3v3q0 4 10 12.5t31 22.5q20 16 29.5 33.5t9.5 34.5q-2 35 -37 59.5t-82 24.5q-96 0 -174 -59.5t-78 -162.5q-2 -94 59.5 -112.5t133.5 -16.5q10 2 19 2h20q18 2 34.5 3.5t32.5 1.5h13h14h13h13l-36 -113h-27h-27q-63 2 -121.5 -1 t-115.5 -22q-23 -8 -46.5 -19t-45.5 -28q-51 -33 -81 -80t-38 -96q-2 -10 -3 -19.5t-1 -19.5q0 -68 45 -124t137 -74q20 -2 39.5 -5.5t38.5 -3.5q139 0 259 84t171 213l108 -53q-98 -236 -273 -322.5t-417 -86.5q-35 0 -70.5 2t-70.5 6q-90 10 -176 34.5t-160 71.5 q-84 -47 -187.5 -75.5t-211.5 -36.5q-14 0 -30.5 -1t-33.5 -1q-221 0 -397 113.5t-176 377.5zM485 270q2 -39 7.5 -74.5t17.5 -66.5t30.5 -44t39.5 -13q12 0 26.5 5t28.5 13q20 12 39.5 29.5t38.5 36.5q14 14 25.5 28.5t19.5 26.5q59 84 106 193.5t78 224.5 q16 70 26.5 138.5t10.5 129.5q0 14 -1 36.5t-5 45.5q-8 41 -26.5 73.5t-57.5 32.5q-76 0 -143.5 -85t-116.5 -187q-35 -72 -58.5 -136.5t-33.5 -101.5q-2 -10 -5.5 -22t-7.5 -25q-10 -37 -18 -79.5t-14 -88.5l-5 -45q-2 -22 -2 -45z" />
<glyph unicode="&#x153;" horiz-adv-x="1550" d="M27 336q0 90 55 176t143 143q78 51 176.5 80t202.5 29h26q13 0 25 -2q70 -4 138.5 -24.5t128.5 -61.5q57 33 125.5 53.5t140.5 26.5q16 0 31.5 1t29.5 1q37 0 74 -3t70 -14q2 0 3 -1t3 -1q63 -16 116.5 -56t57.5 -114q4 -111 -89 -177t-206 -95q-55 -14 -107.5 -20.5 t-93.5 -4.5q6 -68 44 -110.5t110 -44.5q139 -2 230 85t155 206l104 -48q-43 -96 -108.5 -178t-161.5 -129q-55 -27 -119.5 -42t-130.5 -19h-16h-17q-86 0 -169 22.5t-150 69.5q-70 -41 -156 -63.5t-176 -26.5h-12h-12q-98 0 -191.5 28.5t-165.5 92.5q-57 51 -82.5 107.5 t-25.5 113.5zM428 242q0 -12 1 -28.5t3 -35.5q6 -31 21.5 -57.5t46.5 -26.5q63 0 108 54.5t74 119.5q14 35 24.5 68t16.5 57q2 8 4 18.5t4 24.5q4 18 7 39t3 41q2 8 2 15v16q0 49 -14 86t-57 37q-23 0 -48.5 -14.5t-50.5 -37.5l-13 -13l-13 -13q-45 -53 -73 -118.5 t-38 -135.5q-4 -25 -6 -49t-2 -47zM1092 389q18 2 38.5 5t40.5 7q63 16 120 53.5t79 98.5q4 14 8 29.5t4 29.5q-2 25 -14 42.5t-47 17.5q-68 2 -118 -53.5t-79 -120.5q-12 -29 -20 -57.5t-12 -51.5z" />
<glyph unicode="&#x178;" horiz-adv-x="1789" d="M29 827q0 29 6 56.5t18 58.5q61 147 221 232.5t340 103.5q27 2 51.5 3t49.5 1q193 0 339 -79t146 -238q0 -27 -5 -56.5t-15 -60.5q-20 -63 -50 -122.5t-61 -119.5q-6 -10 -19.5 -34.5t-27.5 -57.5q-8 -14 -15.5 -30.5t-13.5 -32.5q-10 -27 -16 -52.5t-6 -48.5 q0 -27 13 -44t46 -17q6 0 11.5 1t11.5 1q57 12 112.5 77.5t100.5 141.5q33 57 57.5 111.5t34.5 83.5l28 81q29 82 64 181l54 162q26 77 34 100h502q-45 -129 -89 -259t-89 -259t-89 -259t-90 -259q-96 -285 -346 -430.5t-536 -143.5q-57 0 -115.5 6t-116.5 19q-23 4 -49 11 t-53 17q-78 29 -142.5 80t-64.5 139q0 92 66.5 143.5t146.5 51.5q45 0 87 -17.5t75 -56.5l35 -37q-6 -2 -13.5 -5t-13.5 -5q-41 -20 -74.5 -47t-33.5 -72v-10q0 -6 2 -12q6 -39 38.5 -58.5t69.5 -23.5q2 -2 5 -2h7q217 -10 342 139.5t191 333.5q2 4 3 8t3 8 q-74 -70 -171 -118t-200 -54h-11h-9q-10 0 -21.5 1t-21.5 1q-23 4 -44.5 9.5t-41.5 11.5q-104 37 -155.5 121t-51.5 180q0 18 2 35.5t6 36.5q2 18 7 35.5t12 35.5q18 53 41.5 104.5t48.5 102.5q0 2 2 5t2 5q27 57 53.5 115.5t46.5 118.5q6 20 9 39.5t3 36.5q0 51 -29.5 83.5 t-97.5 32.5q-111 0 -189.5 -75.5t-88.5 -182.5q-8 -100 41 -122.5t125 -28.5h4q-12 -14 -23.5 -27.5t-21.5 -25.5q-35 -41 -73 -65t-75 -30q-10 -2 -19 -3t-19 -1q-82 2 -144.5 64.5t-62.5 156.5zM1092 1380q0 49 39.5 75t89.5 28h5h5q29 0 54.5 -7.5t41.5 -21.5 q18 -14 26.5 -32.5t8.5 -41.5q0 -49 -37 -73.5t-80 -28.5q-6 -2 -12 -2h-12q-51 0 -90 23.5t-39 80.5zM1407 1380q0 53 44 78t95 25q29 0 53.5 -7.5t42.5 -21.5q16 -14 25.5 -32.5t9.5 -41.5q0 -51 -39 -75.5t-84 -28.5h-11h-9q-51 0 -89 23.5t-38 80.5z" />
<glyph unicode="&#x2c6;" horiz-adv-x="827" d="M45 1303q45 92 124 138t187 46q35 0 77 -8.5t89 -24.5q6 -2 13.5 -4t13.5 -4q18 -4 37.5 -9t40.5 -7q12 -2 23.5 -3.5t23.5 -1.5q16 0 30.5 2.5t28.5 8.5q12 6 27.5 13t36.5 15q-8 -33 -35 -65.5t-74 -61.5q-45 -31 -93 -45t-101 -14q-33 0 -75 9t-93 26q-8 2 -16.5 5 t-16.5 5q-18 6 -37.5 11t-40.5 9q-12 2 -23.5 3.5t-21.5 1.5q-12 0 -24.5 -2.5t-24.5 -6.5q-10 -2 -28.5 -11t-47.5 -25z" />
<glyph unicode="&#x2dc;" horiz-adv-x="944" d="M94 1233l461 303l248 -317l-309 106z" />
<glyph unicode="&#x2000;" horiz-adv-x="780" />
<glyph unicode="&#x2001;" horiz-adv-x="1562" />
<glyph unicode="&#x2002;" horiz-adv-x="780" />
<glyph unicode="&#x2003;" horiz-adv-x="1562" />
<glyph unicode="&#x2004;" horiz-adv-x="520" />
<glyph unicode="&#x2005;" horiz-adv-x="389" />
<glyph unicode="&#x2006;" horiz-adv-x="260" />
<glyph unicode="&#x2007;" horiz-adv-x="260" />
<glyph unicode="&#x2008;" horiz-adv-x="194" />
<glyph unicode="&#x2009;" horiz-adv-x="311" />
<glyph unicode="&#x200a;" horiz-adv-x="86" />
<glyph unicode="&#x2010;" horiz-adv-x="460" d="M78 547v186h340v-186h-340z" />
<glyph unicode="&#x2011;" horiz-adv-x="460" d="M78 547v186h340v-186h-340z" />
<glyph unicode="&#x2012;" horiz-adv-x="460" d="M78 547v186h340v-186h-340z" />
<glyph unicode="&#x2013;" horiz-adv-x="694" d="M14 547v186h678v-186h-678z" />
<glyph unicode="&#x2014;" horiz-adv-x="1380" d="M10 547v186h1358v-186h-1358z" />
<glyph unicode="&#x2018;" horiz-adv-x="573" d="M29 1124q0 8 1 17.5t3 17.5q10 57 48 111.5t91 89.5q72 47 154 69.5t166 26.5l59 -102h-4h-4q-12 0 -23.5 -1t-21.5 -1q-49 -2 -96.5 -12.5t-86.5 -45.5q-10 -8 -14 -16t-4 -14q2 -14 21.5 -23.5t43.5 -15.5q2 0 5.5 -1t5.5 -1q4 0 7 -1t7 -3q53 -14 95 -49t38 -97 q-2 -80 -69.5 -114.5t-147.5 -36.5h-3h-3h-7h-7q-49 4 -94.5 16t-75.5 33q-45 31 -64.5 70.5t-19.5 82.5z" />
<glyph unicode="&#x2019;" horiz-adv-x="573" d="M12 995h4h4h21q10 0 20 2q51 2 98.5 12.5t86.5 43.5q10 10 15 17t3 13q0 14 -19.5 23.5t-41.5 15.5q-4 2 -7 3t-8 1q-4 0 -7 1t-7 3q-53 14 -95 49t-38 97q4 80 71.5 114.5t149.5 34.5q53 0 103.5 -13t83.5 -36q45 -31 64 -70.5t19 -80.5q0 -8 -1 -17.5t-3 -17.5 q-10 -57 -48 -111.5t-91 -89.5q-70 -49 -151.5 -70.5t-167.5 -27.5z" />
<glyph unicode="&#x201a;" horiz-adv-x="573" d="M12 -156q2 2 4 2h4h21q10 0 20 2q51 2 98.5 12.5t86.5 43.5q10 8 15 16t3 14q0 14 -19.5 23.5t-41.5 15.5q-4 2 -7 3t-8 1q-4 0 -7 1.5l-7 3.5q-53 14 -95 47.5t-38 95.5q4 80 72.5 114.5t150.5 34.5q53 0 102.5 -13t82.5 -36q45 -31 64 -70.5t19 -80.5q0 -8 -1 -17.5 t-3 -17.5q-10 -55 -48 -109.5t-91 -89.5q-70 -47 -151.5 -69.5t-167.5 -28.5z" />
<glyph unicode="&#x201c;" horiz-adv-x="923" d="M14 1128q0 8 1 17.5t1 17.5q10 57 48 111.5t92 89.5q72 47 153.5 69.5t165.5 26.5l60 -102h-5h-4h-20q-10 0 -21 -2q-51 -2 -98 -12.5t-86 -45.5q-10 -8 -15 -16t-5 -14q2 -14 21.5 -23.5t43.5 -15.5q2 0 5 -1t5 -1q23 -6 42.5 -13.5t35.5 -17.5q16 49 51 93t80 75 q72 47 154 69.5t166 26.5l59 -102h-4h-4h-21q-10 0 -20 -2q-51 -2 -98 -12.5t-86 -45.5q-10 -8 -15.5 -16t-5.5 -14q2 -14 21.5 -23.5t44.5 -15.5q2 0 5 -1t5 -1q4 -2 9 -3t9 -3q51 -14 93.5 -48t37.5 -96q-4 -82 -72.5 -116.5t-152.5 -34.5q-51 2 -100 14t-82 35l-16 12 q-8 6 -15 14q-31 -39 -84 -56t-112 -17q-51 0 -100.5 12t-82.5 35q-45 31 -64.5 70.5t-19.5 82.5z" />
<glyph unicode="&#x201d;" horiz-adv-x="956" d="M12 995h4h4h21q10 0 20 2q51 2 98.5 12.5t86.5 43.5q10 10 15 17t3 13q0 14 -19.5 23.5t-41.5 15.5q-4 2 -7 3t-8 1q-4 0 -7 1t-7 3q-53 14 -95 49t-38 97q4 80 71.5 114.5t149.5 34.5q53 0 103.5 -13t83.5 -36q10 -4 17 -10t11 -14q31 39 84 56t113 17q53 0 102 -13 t82 -36q45 -31 64.5 -70.5t19.5 -80.5q0 -8 -1 -17.5t-3 -17.5q-10 -57 -48 -111.5t-91 -89.5q-70 -49 -152 -70.5t-168 -27.5l-57 104h4h4h21q10 0 20 2q51 2 98 12.5t86 43.5q10 10 15.5 17t3.5 13q0 14 -19.5 23.5t-42.5 15.5q-4 2 -7 3t-7 1q-20 4 -39.5 12.5 t-38.5 18.5q-14 -51 -49 -94t-82 -74q-70 -49 -151.5 -70.5t-167.5 -27.5z" />
<glyph unicode="&#x201e;" horiz-adv-x="1048" d="M12 -156q2 2 4 2h4h21q10 0 20 2q51 2 98.5 12.5t86.5 43.5q10 8 15 16t3 14q0 14 -19.5 23.5t-41.5 15.5q-4 2 -7 3t-8 1q-4 0 -7 1.5l-7 3.5q-53 14 -95 47.5t-38 95.5q4 80 72.5 114.5t150.5 34.5q53 0 102.5 -13t82.5 -36q45 -31 64 -70.5t19 -80.5q0 -8 -1 -17.5 t-3 -17.5q-10 -55 -48 -109.5t-91 -89.5q-70 -47 -151.5 -69.5t-167.5 -28.5zM518 -156q2 2 4 2h4q12 0 23.5 1t21.5 1q49 2 96.5 12.5t86.5 43.5q10 8 14 16t4 14q-2 14 -21.5 24.5t-43.5 16.5q-2 0 -5.5 1t-5.5 1q-4 0 -7 1.5l-7 3.5q-53 14 -95 47.5t-38 95.5 q4 80 71.5 114.5t149.5 34.5h7h7q49 -2 95.5 -15t76.5 -34q45 -31 64.5 -70.5t19.5 -80.5q0 -8 -1 -17.5t-3 -17.5q-10 -55 -48 -109.5t-91 -89.5q-72 -47 -153.5 -69.5t-165.5 -28.5z" />
<glyph unicode="&#x2022;" horiz-adv-x="735" d="M70 608q0 127 90 216t215 89q127 0 215 -89t88 -216q0 -125 -88 -214t-215 -89q-125 0 -215 89t-90 214z" />
<glyph unicode="&#x2026;" horiz-adv-x="1501" d="M23 154q0 76 64.5 129t154.5 53t154.5 -53.5t64.5 -129t-64.5 -128t-154.5 -52.5t-154.5 52.5t-64.5 128.5zM535 154q0 76 64.5 129t154.5 53t154.5 -53.5t64.5 -129t-64.5 -128t-154.5 -52.5t-154.5 52.5t-64.5 128.5zM1047 154q0 76 64.5 129t154.5 53t154.5 -53.5 t64.5 -129t-64.5 -128t-154.5 -52.5t-154.5 52.5t-64.5 128.5z" />
<glyph unicode="&#x202f;" horiz-adv-x="311" />
<glyph unicode="&#x2039;" horiz-adv-x="614" d="M49 608l449 334l98 -143l-238 -191l107 -190l-199 -144z" />
<glyph unicode="&#x203a;" horiz-adv-x="614" d="M33 418l235 190l-102 191l194 143l220 -334l-449 -334z" />
<glyph unicode="&#x205f;" horiz-adv-x="389" />
<glyph unicode="&#x2122;" />
<glyph unicode="&#xe000;" horiz-adv-x="760" d="M0 760h760v-760h-760v760z" />
<glyph unicode="&#xfb01;" horiz-adv-x="1517" d="M959 207q0 23 3 46t9 48q4 12 7 23.5t7 23.5q33 94 64.5 187.5t64.5 187.5h100h101h101h100q-12 -37 -25.5 -75t-26.5 -75q-27 -74 -52 -148.5t-50 -150.5q-6 -14 -10 -29.5t-4 -27.5t9 -20.5t32 -6.5q16 0 40.5 13.5t51.5 38.5q37 37 60.5 77.5t43.5 86.5 q8 -4 17.5 -8.5t17.5 -8.5q16 -8 33.5 -15t36.5 -18q-4 -10 -9.5 -19t-11.5 -20q-33 -66 -71.5 -127t-94.5 -110q-51 -45 -119.5 -69.5t-142.5 -28.5h-9h-9q-31 0 -61.5 4t-59.5 14q-78 27 -110.5 83t-32.5 124zM1155 946q0 16 6 32.5t17 31.5q29 37 75 55t95 22h11h11 q23 0 45.5 -3t42.5 -9l13 -4q6 -2 10 -4q43 -18 79 -51t36 -80q0 -6 -1.5 -13.5t-3.5 -15.5q-12 -39 -44.5 -64.5t-69.5 -37.5q-8 -2 -14.5 -3t-12.5 -3q-16 -2 -33.5 -4t-33.5 -2q-45 0 -90.5 11t-79.5 38q-27 20 -42.5 47.5t-15.5 56.5zM-147 -469l374 1096h-121l37 100 h121q6 20 12.5 39.5t12.5 38.5q31 90 69.5 167t126.5 134q55 35 136 57.5t165 24.5h9h8q72 0 139.5 -17.5t114.5 -58.5q29 -25 46 -57.5t21 -67.5v-9v-9q0 -53 -32.5 -97.5t-98.5 -56.5q-4 0 -8 -1t-8 -1h-8h-8q-72 0 -117 47t-45 105v7v7q4 31 23.5 59.5t58.5 46.5h-5h-8 q-63 0 -107 -60t-73 -134q-18 -47 -32.5 -92t-22.5 -72h188l-35 -100h-190l-377 -1096h-366z" />
<glyph unicode="&#xfb02;" horiz-adv-x="1511" d="M952 205q0 8 1 15t1 13q4 31 10.5 60t16.5 55q68 195 134.5 390.5t131.5 387.5h102h101h99h102l-148 -426q-74 -213 -145 -426q-8 -18 -12 -33.5t-4 -25.5q0 -12 10 -19.5t33 -5.5q16 0 40.5 13.5t51.5 38.5q37 37 60.5 77.5t43.5 86.5l103 -50q-74 -156 -174.5 -265 t-292.5 -109q-10 0 -21.5 1t-21.5 1q-51 6 -100.5 25.5t-80.5 62.5q-20 29 -30.5 63.5t-10.5 69.5zM-147 -469l374 1096h-121l37 100h121q6 20 12.5 39.5t12.5 38.5q31 90 69.5 167t126.5 134q55 35 136 57.5t165 24.5h9h8q72 0 139.5 -17.5t114.5 -58.5q29 -25 46 -57.5 t21 -67.5v-9v-9q0 -53 -32.5 -97.5t-98.5 -56.5q-4 0 -8 -1t-8 -1h-8h-8q-72 0 -117 47t-45 105v7v7q4 31 23.5 59.5t58.5 46.5h-5h-8q-63 0 -107 -60t-73 -134q-18 -47 -32.5 -92t-22.5 -72h188l-35 -100h-190l-377 -1096h-366z" />
<glyph unicode="&#xfb03;" horiz-adv-x="2451" d="M1893 207q0 23 3 46t9 48q4 12 7 23.5t7 23.5q33 94 64.5 187.5t64.5 187.5h100h101h101h100q-12 -37 -25.5 -75t-26.5 -75q-27 -74 -52 -148.5t-50 -150.5q-6 -14 -10 -29.5t-4 -27.5t9 -20.5t32 -6.5q16 0 40.5 13.5t51.5 38.5q37 37 60.5 77.5t43.5 86.5 q8 -4 17.5 -8.5t17.5 -8.5q16 -8 33.5 -15t36.5 -18q-4 -10 -9.5 -19t-11.5 -20q-33 -66 -71.5 -127t-94.5 -110q-51 -45 -119.5 -69.5t-142.5 -28.5h-9h-9q-31 0 -61.5 4t-59.5 14q-78 27 -110.5 83t-32.5 124zM2089 946q0 16 6 32.5t17 31.5q29 37 75 55t95 22h11h11 q23 0 45.5 -3t42.5 -9l13 -4q6 -2 10 -4q43 -18 79 -51t36 -80q0 -6 -1.5 -13.5t-3.5 -15.5q-12 -39 -44.5 -64.5t-69.5 -37.5q-8 -2 -14.5 -3t-12.5 -3q-16 -2 -33.5 -4t-33.5 -2q-45 0 -90.5 11t-79.5 38q-27 20 -42.5 47.5t-15.5 56.5zM787 -469l374 1096h-121l37 100 h121q6 20 12.5 39.5t12.5 38.5q31 90 69.5 167t126.5 134q55 35 136 57.5t165 24.5h9h8q72 0 139.5 -17.5t114.5 -58.5q29 -25 46 -57.5t21 -67.5v-9v-9q0 -53 -32.5 -97.5t-98.5 -56.5q-4 0 -8 -1t-8 -1h-8h-8q-72 0 -117 47t-45 105v7v7q4 31 23.5 59.5t58.5 46.5h-5h-8 q-63 0 -107 -60t-73 -134q-18 -47 -32.5 -92t-22.5 -72h188l-35 -100h-190l-377 -1096h-366zM-147 -469l374 1096h-121l37 100h121q6 20 12.5 39.5t12.5 38.5q31 90 69.5 167t126.5 134q55 35 136 57.5t165 24.5h9h8q72 0 139.5 -17.5t114.5 -58.5q29 -25 46 -57.5t21 -67.5 v-9v-9q0 -53 -32.5 -97.5t-98.5 -56.5q-4 0 -8 -1t-8 -1h-8h-8q-72 0 -117 47t-45 105v7v7q4 31 23.5 59.5t58.5 46.5h-5h-8q-63 0 -107 -60t-73 -134q-18 -47 -32.5 -92t-22.5 -72h188l-35 -100h-190l-377 -1096h-366z" />
<glyph unicode="&#xfb04;" horiz-adv-x="2445" d="M1886 205q0 8 1 15t1 13q4 31 10.5 60t16.5 55q68 195 134.5 390.5t131.5 387.5h102h101h99h102l-148 -426q-74 -213 -145 -426q-8 -18 -12 -33.5t-4 -25.5q0 -12 10 -19.5t33 -5.5q16 0 40.5 13.5t51.5 38.5q37 37 60.5 77.5t43.5 86.5l103 -50q-74 -156 -174.5 -265 t-292.5 -109q-10 0 -21.5 1t-21.5 1q-51 6 -100.5 25.5t-80.5 62.5q-20 29 -30.5 63.5t-10.5 69.5zM787 -469l374 1096h-121l37 100h121q6 20 12.5 39.5t12.5 38.5q31 90 69.5 167t126.5 134q55 35 136 57.5t165 24.5h9h8q72 0 139.5 -17.5t114.5 -58.5q29 -25 46 -57.5 t21 -67.5v-9v-9q0 -53 -32.5 -97.5t-98.5 -56.5q-4 0 -8 -1t-8 -1h-8h-8q-72 0 -117 47t-45 105v7v7q4 31 23.5 59.5t58.5 46.5h-5h-8q-63 0 -107 -60t-73 -134q-18 -47 -32.5 -92t-22.5 -72h188l-35 -100h-190l-377 -1096h-366zM-147 -469l374 1096h-121l37 100h121 q6 20 12.5 39.5t12.5 38.5q31 90 69.5 167t126.5 134q55 35 136 57.5t165 24.5h9h8q72 0 139.5 -17.5t114.5 -58.5q29 -25 46 -57.5t21 -67.5v-9v-9q0 -53 -32.5 -97.5t-98.5 -56.5q-4 0 -8 -1t-8 -1h-8h-8q-72 0 -117 47t-45 105v7v7q4 31 23.5 59.5t58.5 46.5h-5h-8 q-63 0 -107 -60t-73 -134q-18 -47 -32.5 -92t-22.5 -72h188l-35 -100h-190l-377 -1096h-366z" />
</font>
</defs>
</svg>
